<svg width="190" height="46" viewBox="0 0 190 46" fill="none" xmlns="http://www.w3.org/2000/svg">
<path d="M11.0169 34.6812V34.3531L16.2253 31.0354C26.6471 26.15 34.0742 18.9208 34.0742 10.1917C34.0742 2.76977 27.9492 0.0979004 22.4805 0.0979004C16.8138 0.0979004 9.26172 3.55103 0.792969 20.025L0.990886 20.3531L14.3398 16.9C12.9701 11.3635 11.9961 4.53019 15.7721 4.07186C18.7044 3.74373 20.5898 6.15519 20.9805 10.5198C21.6315 17.8792 16.8815 24.5198 10.7565 32.5302L1.3138 44.6448V45.0354H33.4232L33.8763 44.5771V28.426H33.4857C32.1836 32.6604 29.7096 34.6812 25.7357 34.6812H11.0169Z" fill="black"/>
<path d="M65.0039 34.0928L64.9414 12.6032L64.3529 12.6709L52.306 23.6761V34.0928H38.8893L67.5456 1.46777V1.07715H51.6549L37.0664 34.223V35.2646H52.306V40.999L48.9206 44.6449V45.0355H68.3893V44.6449L65.0039 40.999V35.2646H73.1445V34.0928H65.0039Z" fill="black"/>
<path d="M83.1523 14.5073H74.9023V14.7052L76.6836 16.424V34.8719L74.9023 36.5907V36.7886H83.2201C92.6628 36.7886 95.3659 30.3823 95.3659 25.1011C95.3659 18.0073 91.2409 14.5073 83.1523 14.5073ZM83.1211 36.1271V15.1011H83.2878C87.4805 15.1011 88.569 18.2365 88.569 25.6323C88.569 33.424 87.4128 36.1271 83.7461 36.1271H83.1211Z" fill="black"/>
<path d="M114.605 31.9346C113.283 32.6273 112.428 32.8617 111.501 32.8617C108.1 32.8617 105.757 30.3512 104.538 27.5804H108.762C110.147 27.5804 114.538 25.5648 114.538 24.6429C114.272 21.3408 112.293 18.7314 108.137 18.7314C106.288 18.7314 99.0898 20.4502 99.0898 28.2731C99.0898 33.8512 103.184 37.2835 108.465 37.2835C109.59 37.2835 111.965 35.1689 114.772 32.1012L114.605 31.9346ZM105.329 20.2523C107.147 20.2523 108.564 23.1533 108.632 26.9867H104.303C103.809 25.6637 103.548 24.346 103.548 23.1898C103.548 21.2106 104.371 20.2523 105.329 20.2523Z" fill="black"/>
<path d="M124.275 23.023C122.889 22.1012 122.165 21.4084 122.165 20.648C122.165 19.9553 122.624 19.7574 123.254 19.7574C124.936 19.7574 128.535 21.9032 131.738 27.0178H131.967V18.5334H131.77L130.217 19.8199C128.931 19.0959 127.28 18.7001 125.598 18.7001C121.733 18.7001 119.061 20.8772 119.061 24.1793C119.061 26.3564 120.316 27.8407 122.691 29.3928L126.556 31.9709C129.129 33.622 129.754 34.3459 129.754 35.0699C129.754 35.7991 129.259 36.0959 128.702 36.0959C126.223 36.0959 121.207 32.6272 118.499 27.3824H118.301L118.993 36.5907C121.374 36.1949 122.723 37.2157 125.796 37.2157C131.275 37.2157 132.827 33.9501 132.827 31.6376C132.827 28.997 130.811 27.6428 128.467 26.0282L124.275 23.023Z" fill="black"/>
<path d="M141.173 17.2157C142.855 17.2157 143.975 16.1219 143.975 14.5073C143.975 12.924 142.855 11.8667 141.173 11.8667C139.423 11.8667 138.236 12.924 138.236 14.5073C138.236 16.1219 139.423 17.2157 141.173 17.2157ZM138.298 35.3042L136.746 36.5907V36.7886H145.626V36.5907L144.111 35.3042L144.173 20.8094V19.2261H136.814V19.424L138.335 20.8094L138.298 35.3042Z" fill="black"/>
<path d="M167.942 19.2262H162.692C160.577 19.2262 159.124 18.7627 157.707 18.7627C157.379 18.7627 150.348 19.721 150.348 25.2367C150.348 27.1169 151.238 28.7367 152.655 29.8564C150.942 31.4085 148.827 33.0908 148.827 33.5231C148.827 35.2679 149.952 36.7575 151.863 37.4814C149.686 39.3981 147.707 41.2106 147.869 41.5439C149.389 44.2835 153.15 45.3721 156.78 45.3721C162.395 45.3721 166.452 41.3773 166.452 37.8096C166.452 35.4658 164.738 33.5856 161.108 33.5856L156.223 33.5544C153.02 33.5544 152.723 32.1325 152.723 31.3408C152.723 30.7471 152.889 30.3825 153.087 30.1533C154.306 30.9814 155.889 31.4398 157.608 31.4398C158.4 31.4398 165.067 30.2523 165.067 25.0387C165.067 22.9242 163.947 20.945 161.207 19.9554L161.306 19.7575C163.514 20.3148 165.431 20.6117 167.942 20.6481V19.2262ZM159.421 30.4502C158.103 30.4502 156.817 28.57 155.561 24.971C154.306 21.2731 154.603 19.8877 155.79 19.8564C157.145 19.7887 158.4 21.6377 159.655 25.3669C160.942 29.0335 160.613 30.4189 159.421 30.4502ZM160.843 38.1742C164.176 38.2731 165.233 39.0335 165.233 39.9919C165.233 41.0804 163.452 41.7731 160.973 41.7731C158.004 41.7731 151.994 41.0127 151.994 38.5075C151.994 38.1742 152.093 37.9085 152.296 37.6481C152.988 37.8773 153.811 38.0127 154.702 38.0127L160.843 38.1742Z" fill="black"/>
<path d="M187.704 24.5439C187.704 21.3721 186.319 18.7627 182.658 18.7627C181.6 18.7627 179.882 20.4814 177.673 23.5179H177.637C177.934 19.7575 176.715 18.7992 175.132 18.7992C173.116 18.7992 171.699 21.2106 169.684 24.0127L169.814 24.1794L172.293 22.9554V35.3044L170.741 36.5908V36.7887H179.621V36.5908L178.1 35.3044V23.9137C178.564 23.2523 179.189 22.7939 180.048 22.7939C181.038 22.7939 181.829 23.2887 181.829 24.9398V35.3044L180.314 36.5908V36.7887H189.194V36.5908L187.642 35.3044L187.704 24.5439Z" fill="black"/>
</svg>
