<svg width="187" height="41" viewBox="0 0 187 41" fill="none" xmlns="http://www.w3.org/2000/svg">
<path d="M183.274 3.40332C181.219 3.40332 179.547 5.14482 179.547 7.28189C179.547 9.41896 181.219 11.1629 183.274 11.1629C185.328 11.1629 187 9.42137 187 7.28189C187 5.14241 185.328 3.40332 183.274 3.40332Z" fill="url(#paint0_linear_1210_6073)"/>
<path d="M44.7021 22.4036C43.8845 21.9116 42.9973 21.6414 42.0361 21.5932V21.352C42.9117 21.159 43.6806 20.8189 44.3477 20.3365C45.0124 19.8517 45.5359 19.2414 45.9158 18.5034C46.2956 17.7653 46.4855 16.9259 46.4855 15.9804C46.4855 14.7382 46.1821 13.6455 45.573 12.7024C44.9661 11.7593 44.0582 11.026 42.8561 10.5002C41.6516 9.97678 40.16 9.71387 38.3789 9.71387H28.4609V34.4832H39.1339C40.8919 34.4832 42.3859 34.1817 43.6181 33.5811C44.8503 32.9805 45.7907 32.158 46.4415 31.1135C47.0924 30.0691 47.4166 28.8824 47.4166 27.5509C47.4166 26.357 47.1688 25.3246 46.6731 24.4491C46.1775 23.5735 45.522 22.8909 44.7044 22.3988L44.7021 22.4036ZM34.2097 14.4704H37.4848C38.4437 14.4704 39.2081 14.7092 39.7732 15.1844C40.3384 15.6596 40.6209 16.3132 40.6209 17.143C40.6209 17.7243 40.4843 18.2187 40.2087 18.6312C39.933 19.0437 39.5532 19.3572 39.0645 19.5743C38.5757 19.7914 38.0199 19.8999 37.3922 19.8999H34.2097V14.4704ZM40.5213 28.9234C39.9284 29.4155 39.0089 29.6615 37.7628 29.6615H34.2097V23.7592H37.8693C38.6059 23.7592 39.2359 23.887 39.7616 24.1403C40.2874 24.3936 40.6951 24.753 40.9823 25.2161C41.2695 25.6792 41.4108 26.2291 41.4108 26.8659C41.4108 27.7439 41.1143 28.4313 40.5213 28.921V28.9234Z" fill="white"/>
<path d="M74.9828 9.71628L67.3186 33.3712L62.9688 25.0569C64.2797 24.4322 65.2942 23.5252 66.0099 22.3361C66.7302 21.1397 67.0893 19.6804 67.0893 17.9631C67.0893 16.2457 66.7372 14.8033 66.0331 13.5659C65.329 12.3285 64.3284 11.3758 63.0313 10.7125C61.7342 10.0467 60.1963 9.71387 58.4151 9.71387H48.5898V34.4832H54.3386V26.0048H57.2825L61.6323 34.4832H73.1392L74.7049 29.2828H82.9181L84.4862 34.4832H90.6658L82.6402 9.71387H74.9875L74.9828 9.71628ZM54.3363 14.5428H57.169C58.0283 14.5428 58.7533 14.6706 59.3416 14.9239C59.9299 15.1772 60.3746 15.5558 60.678 16.06C60.9791 16.5641 61.132 17.1984 61.132 17.9655C61.132 18.7325 60.9815 19.3596 60.678 19.8469C60.3769 20.3341 59.9322 20.6983 59.3485 20.9347C58.7649 21.1735 58.0376 21.2917 57.1713 21.2917H54.3386V14.5428H54.3363ZM76.0691 24.7385L78.7119 15.9587H78.8972L81.5446 24.7385H76.0691Z" fill="white"/>
<path d="M103.375 9.7168L98.057 27.8602H97.8578L92.5398 9.7168H86.1055L94.1311 34.4885H101.784L109.809 9.7168H103.375Z" fill="white"/>
<path d="M122.438 34.488H128.618L120.592 9.71875H112.94L104.914 34.488H111.094L112.659 29.2877H120.873L122.441 34.488H122.438ZM114.024 24.7386L116.666 15.9587H116.852L119.499 24.7386H114.024Z" fill="white"/>
<path d="M137.93 34.8245C136.334 34.8245 134.912 34.5375 133.661 33.9658C132.41 33.3942 131.424 32.5982 130.699 31.5779C129.974 30.5576 129.585 29.3757 129.531 28.0273H133.179C133.226 28.7606 133.464 29.3974 133.893 29.9329C134.323 30.4683 134.886 30.8832 135.583 31.1727C136.281 31.4621 137.054 31.6092 137.907 31.6092C138.842 31.6092 139.674 31.4404 140.399 31.1003C141.124 30.7626 141.689 30.2874 142.101 29.6796C142.511 29.0718 142.717 28.3674 142.717 27.5691C142.717 26.7707 142.513 26.0061 142.108 25.3741C141.703 24.7421 141.11 24.2429 140.332 23.881C139.553 23.5192 138.615 23.3359 137.515 23.3359H135.507V20.2871H137.515C138.398 20.2871 139.174 20.1231 139.843 19.7902C140.512 19.4598 141.038 18.9991 141.416 18.4057C141.795 17.8123 141.985 17.1177 141.985 16.3193C141.985 15.5209 141.821 14.8865 141.492 14.3173C141.163 13.748 140.698 13.3042 140.098 12.981C139.498 12.6578 138.791 12.4962 137.978 12.4962C137.165 12.4962 136.482 12.6433 135.813 12.9376C135.143 13.2319 134.599 13.6516 134.18 14.1943C133.761 14.737 133.538 15.3906 133.506 16.148H130.034C130.073 14.8093 130.453 13.6323 131.178 12.6168C131.903 11.6013 132.86 10.8078 134.052 10.2337C135.245 9.66203 136.568 9.375 138.025 9.375C139.482 9.375 140.869 9.68374 141.978 10.3012C143.09 10.9187 143.95 11.7388 144.556 12.7615C145.163 13.7866 145.464 14.9058 145.457 16.1239C145.464 17.5108 145.096 18.6879 144.348 19.6551C143.6 20.6224 142.608 21.2712 141.369 21.6017V21.7946C142.949 22.0455 144.174 22.6967 145.045 23.7532C145.916 24.8097 146.347 26.1194 146.34 27.6848C146.347 29.0476 145.985 30.2681 145.254 31.3487C144.522 32.4293 143.526 33.2784 142.263 33.8959C141.001 34.5133 139.558 34.8221 137.932 34.8221L137.93 34.8245Z" fill="white"/>
<path d="M155.752 34.8245C154.691 34.8076 153.649 34.6074 152.623 34.2191C151.597 33.8331 150.666 33.1867 149.83 32.2846C148.994 31.3825 148.327 30.1668 147.826 28.6448C147.326 27.1204 147.078 25.2173 147.078 22.9355C147.078 20.7743 147.284 18.8568 147.699 17.178C148.113 15.5016 148.711 14.0833 149.494 12.9255C150.277 11.7677 151.219 10.8874 152.327 10.2819C153.434 9.6765 154.678 9.375 156.056 9.375C157.434 9.375 158.731 9.66445 159.831 10.2457C160.931 10.8271 161.823 11.6278 162.509 12.653C163.194 13.6781 163.63 14.8431 163.815 16.148H160.273C160.033 15.1157 159.558 14.2739 158.844 13.6202C158.131 12.9665 157.202 12.6409 156.058 12.6409C154.316 12.6409 152.959 13.4321 151.986 15.0119C151.013 16.5918 150.525 18.7892 150.518 21.6041H150.691C151.101 20.9022 151.606 20.304 152.206 19.8071C152.806 19.3102 153.48 18.9291 154.228 18.659C154.976 18.3888 155.764 18.2537 156.591 18.2537C157.969 18.2537 159.217 18.6035 160.336 19.3006C161.455 19.9976 162.346 20.9601 163.014 22.1854C163.678 23.4107 164.012 24.8145 164.012 26.3944C164.012 27.9743 163.669 29.407 162.983 30.6878C162.298 31.971 161.337 32.9841 160.097 33.7294C158.858 34.4747 157.411 34.839 155.755 34.8245H155.752ZM155.741 31.6792C156.653 31.6792 157.471 31.4452 158.191 30.9773C158.912 30.5093 159.481 29.8798 159.898 29.0911C160.317 28.2999 160.526 27.4171 160.526 26.4426C160.526 25.4682 160.322 24.624 159.917 23.8424C159.509 23.0609 158.953 22.4386 158.244 21.9803C157.536 21.5196 156.73 21.2905 155.822 21.2905C155.132 21.2905 154.495 21.428 153.911 21.703C153.327 21.9779 152.813 22.3566 152.373 22.839C151.933 23.3214 151.585 23.8762 151.333 24.5009C151.081 25.1257 150.955 25.7841 150.955 26.4788C150.955 27.405 151.162 28.2637 151.576 29.0549C151.991 29.846 152.561 30.4804 153.283 30.9604C154.008 31.4404 154.826 31.6792 155.741 31.6792Z" fill="white"/>
<path d="M173.25 34.8974C171.416 34.8901 169.848 34.386 168.546 33.385C167.244 32.3864 166.251 30.9296 165.56 29.0192C164.87 27.1089 164.527 24.8054 164.527 22.1135C164.527 19.4217 164.875 17.1351 165.567 15.232C166.26 13.3289 167.258 11.8768 168.564 10.8782C169.868 9.87964 171.432 9.37793 173.25 9.37793C175.068 9.37793 176.629 9.87964 177.931 10.883C179.233 11.8865 180.229 13.3385 180.921 15.2368C181.614 17.1351 181.961 19.4265 181.961 22.1135C181.961 24.8006 181.616 27.1185 180.928 29.0265C180.238 30.9344 179.244 32.3888 177.943 33.3923C176.641 34.3957 175.078 34.8974 173.25 34.8974ZM173.25 31.6676C174.86 31.6676 176.12 30.85 177.03 29.2122C177.94 27.5744 178.394 25.2082 178.394 22.1135C178.394 20.0585 178.186 18.317 177.774 16.8939C177.359 15.4708 176.766 14.3902 175.997 13.6521C175.226 12.914 174.311 12.5449 173.25 12.5449C171.647 12.5449 170.39 13.3675 169.475 15.0125C168.562 16.6575 168.101 19.0237 168.092 22.1111C168.092 24.1758 168.298 25.9197 168.713 27.3428C169.127 28.766 169.718 29.8417 170.485 30.5726C171.251 31.3034 172.173 31.6676 173.248 31.6676H173.25Z" fill="white"/>
<mask id="mask0_1210_6073" style="mask-type:luminance" maskUnits="userSpaceOnUse" x="0" y="0" width="21" height="41">
<path d="M20.8341 25.598C20.8179 25.2097 20.7276 24.8286 20.5608 24.474C20.4288 24.187 20.2505 23.9168 20.0327 23.666C19.6575 23.2366 19.2916 23.0172 19.2869 23.0172C19.2707 23.0075 17.383 21.9197 16.1716 21.1116C15.6899 20.7884 15.3425 20.3543 15.1687 19.8019C15.1641 19.785 15.1734 19.8188 15.1687 19.8019L20.0628 16.7748C20.4427 16.5505 20.6674 16.1284 20.6512 15.6821V11.2343C20.6512 11.2343 20.7322 10.2695 20.4172 9.71713C20.0119 8.85844 19.3309 8.36397 19.324 8.35433L8.91965 2.11436H8.91502V9.73884L12.9035 12.0568C12.9035 12.0568 13.2393 12.2594 13.5682 12.6092C13.8717 12.9276 14.233 13.4413 14.233 14.0588V15.5036L8.98914 18.6128C8.98914 18.6128 8.97987 18.6176 8.97524 18.6224C8.76678 18.743 8.66024 18.9022 8.66024 19.0903V22.788C8.66024 22.788 8.64634 23.0895 8.75289 23.4875C8.81774 23.7215 8.90576 23.9434 9.02157 24.1412C9.16517 24.3944 9.35278 24.6187 9.57513 24.8093C10.7633 25.6318 12.8989 26.862 12.922 26.874C12.922 26.874 13.2926 27.0983 13.6678 27.5229C14.013 27.916 14.4299 28.5697 14.4646 29.4501C14.4855 29.9976 14.4994 31.2639 14.4947 33.1333C14.3164 33.0223 9.37363 30.029 7.61564 28.9846C7.00185 28.4853 6.69148 27.875 6.54324 27.4553C6.38111 26.9946 6.36489 26.6545 6.36489 26.6497V0.558594L0 4.40098V30.8032C0 31.1168 0.0926482 31.4497 0.275627 31.7946C0.530408 32.2673 0.910263 32.6702 1.38277 32.9475C2.48064 33.606 12.1368 39.3805 13.1374 39.9835C13.3853 40.1282 13.6053 40.2054 13.8022 40.2054C13.8439 40.2054 13.8879 40.2054 13.9249 40.1957C14.0222 40.1789 14.1079 40.1427 14.1844 40.0848L20.408 36.2593C20.7183 36.0736 20.8341 35.8299 20.8341 35.6659C20.848 34.2597 20.899 27.1538 20.8341 25.598Z" fill="white"/>
</mask>
<g mask="url(#mask0_1210_6073)">
<path d="M14.7457 20.0612L19.7533 16.9666L20.33 16.5975C20.33 16.5975 20.5362 16.4576 20.601 16.2671C20.6659 16.0765 20.652 15.5797 20.652 15.5797L20.3138 15.2637L19.5796 15.7292L19.3294 16.0838L14.7109 19.5402L14.7457 20.0612Z" fill="url(#paint1_linear_1210_6073)"/>
<path d="M20.838 25.5971C20.8218 25.2087 20.7315 24.8276 20.5647 24.4731C20.4327 24.186 20.2544 23.9159 20.0366 23.665C19.6614 23.2357 19.2955 23.0162 19.2908 23.0162C19.2746 23.0065 17.3869 21.9187 16.1756 21.1107C15.6938 20.7874 15.3464 20.3533 15.1726 19.8009C15.168 19.784 15.1773 19.8178 15.1726 19.8009L20.0668 16.7738C20.4466 16.5495 20.6713 16.1274 20.6551 15.6811V11.2333C20.6551 11.2333 20.7361 10.2685 20.4211 9.71616C20.0158 8.85747 19.3348 8.363 19.3279 8.35335L8.92356 2.11339H8.91893V9.73786L12.9074 12.0558C12.9074 12.0558 13.2433 12.2585 13.5722 12.6082C13.8756 12.9266 14.2369 13.4404 14.2369 14.0578V15.5027L8.99304 18.6118C8.99304 18.6118 8.98378 18.6166 8.97915 18.6214C8.77069 18.742 8.66414 18.9012 8.66414 19.0894V22.787C8.66414 22.787 8.65025 23.0885 8.75679 23.4865C8.82165 23.7205 8.90966 23.9424 9.02547 24.1402C9.16908 24.3935 9.35669 24.6178 9.57904 24.8083C10.7672 25.6308 12.9028 26.861 12.9259 26.873C12.9259 26.873 13.2965 27.0974 13.6718 27.5219C14.0169 27.915 14.4338 28.5687 14.4685 29.4491C14.4894 29.9966 14.5033 31.263 14.4986 33.1323C14.3203 33.0213 9.37753 30.028 7.61954 28.9836C7.00575 28.4843 6.69538 27.874 6.54715 27.4543C6.38501 26.9936 6.3688 26.6535 6.3688 26.6487V0.557617L0.00390625 4.40001V30.8023C0.00390625 31.1158 0.0965545 31.4487 0.279534 31.7936C0.534315 32.2664 0.91417 32.6692 1.38667 32.9466C2.48455 33.6051 12.1407 39.3795 13.1413 39.9825C13.3892 40.1272 13.6092 40.2044 13.8061 40.2044C13.8478 40.2044 13.8918 40.2044 13.9288 40.1948C14.0261 40.1779 14.1118 40.1417 14.1883 40.0838L20.4119 36.2583C20.7222 36.0726 20.838 35.829 20.838 35.6649C20.8519 34.2587 20.9029 27.1528 20.838 25.5971Z" fill="url(#paint2_linear_1210_6073)"/>
<path d="M21.4034 11.1758L11.0547 16.9213L11.1705 12.7894L21.5146 7.24414L21.4034 11.1782V11.1758Z" fill="url(#paint3_linear_1210_6073)"/>
<path style="mix-blend-mode:hard-light" d="M8.91797 9.73874L11.4658 11.2173L18.0299 7.57272L8.9226 2.11426L8.91797 9.73874Z" fill="url(#paint4_linear_1210_6073)"/>
<path style="mix-blend-mode:hard-light" d="M8.01791 13.7639L-2.16406 19.823V4.83933L8.01791 -1.01953V13.7639Z" fill="url(#paint5_linear_1210_6073)"/>
<path style="mix-blend-mode:hard-light" d="M13.4097 40.8151L13.6088 40.5136C13.771 40.3278 13.9655 40.1952 14.1925 40.1156L14.2852 40.0987C14.306 40.0408 14.3454 39.9877 14.3662 39.9298C14.3825 39.8864 14.3987 39.8599 14.4079 39.8092C14.4427 39.6886 14.445 39.6428 14.4543 39.5367C14.4543 39.515 14.4612 39.4788 14.4612 39.4498C14.4658 39.3871 14.4705 39.322 14.4751 39.2593V30.3395L8.79116 26.8252L-5.21484 35.3228L6.90115 45.1664L13.2568 41.394C13.266 41.1913 13.317 40.996 13.405 40.8102L13.4097 40.8151Z" fill="url(#paint6_linear_1210_6073)"/>
<path opacity="0.31" d="M9.16242 29.3359L-1.21875 35.0163L-1.07746 30.8845L9.29676 25.4043L9.16242 29.3383V29.3359Z" fill="url(#paint7_linear_1210_6073)"/>
<path opacity="0.4" d="M12.2691 31.2392L2.08708 37.2982L-3.00391 30.1899L7.17807 24.3311L12.2691 31.2392Z" fill="url(#paint8_linear_1210_6073)"/>
<path d="M22.2132 25.2866L12.0312 31.3456V27.2114L22.2132 21.3525V25.289V25.2866Z" fill="url(#paint9_linear_1210_6073)"/>
<path style="mix-blend-mode:luminosity" d="M8.6641 19.9188V19.0288C8.6641 19.0288 8.6502 18.6838 9.18756 18.5367C9.72491 18.3872 10.209 18.7827 10.209 18.7827L12.8309 20.3457C12.8309 20.3457 13.4355 20.8474 14.1488 20.4374C14.9618 19.9695 15.1749 19.803 15.1749 19.803C15.1749 19.803 15.4737 20.7823 16.4882 21.3154L19.3765 23.0713L12.9259 26.8751C12.9259 26.8751 10.3503 25.3266 10.0191 25.1047C9.68785 24.8828 8.74053 24.4076 8.6641 22.8567V19.9212V19.9188Z" fill="url(#paint10_linear_1210_6073)"/>
<path style="mix-blend-mode:hard-light" d="M14.2384 15.5156C14.2384 16.7096 14.2384 17.9011 14.2407 19.0951C14.2407 19.317 14.2129 19.5462 14.2129 19.7681C14.2129 19.9683 14.1735 20.388 14.1179 20.429C13.8632 20.6147 13.6454 20.6726 13.349 20.5713C12.8093 20.388 12.5198 20.1588 12.1932 19.961C11.6535 19.633 11.0953 19.3339 10.5672 18.9866C10.3588 18.8491 10.148 18.7068 9.91869 18.6127C9.68939 18.5162 9.43461 18.468 9.19141 18.5259C10.873 17.5224 12.5545 16.519 14.2338 15.5156H14.2384Z" fill="url(#paint11_linear_1210_6073)"/>
<path d="M14.4748 36.7221L20.8443 32.7832L20.835 35.5619C20.835 35.5619 20.8651 35.7669 20.7308 35.9647C20.5965 36.1625 20.3185 36.3144 20.1402 36.4254C19.9618 36.5363 14.3242 40 14.3242 40C14.3242 40 14.4655 39.8746 14.4678 39.2282C14.4701 38.5818 14.4725 36.7245 14.4725 36.7245L14.4748 36.7221Z" fill="url(#paint12_linear_1210_6073)"/>
<path d="M14.2365 16.7811L20.6523 12.7939L20.6431 15.9851C20.6431 15.9851 20.6732 16.1901 20.5388 16.3879C20.4045 16.5857 20.1266 16.7376 19.9482 16.8486C19.7699 16.9595 14.0859 20.4715 14.0859 20.4715C14.0859 20.4715 14.2272 20.3461 14.2295 19.6996C14.2319 19.0532 14.2342 16.7835 14.2342 16.7835L14.2365 16.7811Z" fill="url(#paint13_linear_1210_6073)"/>
</g>
<defs>
<linearGradient id="paint0_linear_1210_6073" x1="178.19" y1="12.4195" x2="186.636" y2="4.5514" gradientUnits="userSpaceOnUse">
<stop stop-color="#0437E8"/>
<stop offset="1" stop-color="#9321D5"/>
</linearGradient>
<linearGradient id="paint1_linear_1210_6073" x1="19.4313" y1="19.0868" x2="16.1049" y2="16.7882" gradientUnits="userSpaceOnUse">
<stop stop-color="#0437E8"/>
<stop offset="1" stop-color="#9321D5"/>
</linearGradient>
<linearGradient id="paint2_linear_1210_6073" x1="34.7051" y1="-28.4545" x2="-1.63415" y2="38.5139" gradientUnits="userSpaceOnUse">
<stop stop-color="#0437E8"/>
<stop offset="1" stop-color="#9321D5"/>
</linearGradient>
<linearGradient id="paint3_linear_1210_6073" x1="15.4384" y1="10.4102" x2="17.1899" y2="13.5455" gradientUnits="userSpaceOnUse">
<stop stop-color="white" stop-opacity="0"/>
<stop offset="0.1" stop-color="white" stop-opacity="0.08"/>
<stop offset="0.26" stop-color="white" stop-opacity="0.2"/>
<stop offset="0.4" stop-color="white" stop-opacity="0.27"/>
<stop offset="0.5" stop-color="white" stop-opacity="0.3"/>
<stop offset="0.6" stop-color="white" stop-opacity="0.28"/>
<stop offset="0.73" stop-color="white" stop-opacity="0.22"/>
<stop offset="0.87" stop-color="white" stop-opacity="0.11"/>
<stop offset="0.99" stop-color="white" stop-opacity="0"/>
</linearGradient>
<linearGradient id="paint4_linear_1210_6073" x1="3.19466" y1="2.6039" x2="17.2542" y2="10.1293" gradientUnits="userSpaceOnUse">
<stop stop-color="#0437E8"/>
<stop offset="1" stop-color="#9321D5" stop-opacity="0.2"/>
</linearGradient>
<linearGradient id="paint5_linear_1210_6073" x1="-0.236992" y1="3.66466" x2="6.39843" y2="14.7567" gradientUnits="userSpaceOnUse">
<stop stop-color="#0437E8"/>
<stop offset="1" stop-color="#9321D5" stop-opacity="0.2"/>
</linearGradient>
<linearGradient id="paint6_linear_1210_6073" x1="18.6025" y1="44.0979" x2="2.68532" y2="32.3337" gradientUnits="userSpaceOnUse">
<stop stop-color="#0437E8"/>
<stop offset="0.14" stop-color="#0736E7" stop-opacity="0.98"/>
<stop offset="0.28" stop-color="#1134E6" stop-opacity="0.93"/>
<stop offset="0.43" stop-color="#2132E4" stop-opacity="0.84"/>
<stop offset="0.59" stop-color="#382EE1" stop-opacity="0.71"/>
<stop offset="0.74" stop-color="#552ADD" stop-opacity="0.54"/>
<stop offset="0.9" stop-color="#7825D8" stop-opacity="0.35"/>
<stop offset="1" stop-color="#9321D5" stop-opacity="0.2"/>
</linearGradient>
<linearGradient id="paint7_linear_1210_6073" x1="3.13888" y1="28.5287" x2="4.87173" y2="31.6752" gradientUnits="userSpaceOnUse">
<stop stop-color="white" stop-opacity="0"/>
<stop offset="0.1" stop-color="white" stop-opacity="0.08"/>
<stop offset="0.26" stop-color="white" stop-opacity="0.2"/>
<stop offset="0.4" stop-color="white" stop-opacity="0.27"/>
<stop offset="0.5" stop-color="white" stop-opacity="0.3"/>
<stop offset="0.6" stop-color="white" stop-opacity="0.28"/>
<stop offset="0.73" stop-color="white" stop-opacity="0.22"/>
<stop offset="0.87" stop-color="white" stop-opacity="0.11"/>
<stop offset="0.99" stop-color="white" stop-opacity="0"/>
</linearGradient>
<linearGradient id="paint8_linear_1210_6073" x1="2.51326" y1="26.8734" x2="7.01557" y2="34.3979" gradientUnits="userSpaceOnUse">
<stop stop-color="white" stop-opacity="0"/>
<stop offset="0.1" stop-color="white" stop-opacity="0.08"/>
<stop offset="0.26" stop-color="white" stop-opacity="0.2"/>
<stop offset="0.4" stop-color="white" stop-opacity="0.27"/>
<stop offset="0.5" stop-color="white" stop-opacity="0.3"/>
<stop offset="0.6" stop-color="white" stop-opacity="0.28"/>
<stop offset="0.73" stop-color="white" stop-opacity="0.22"/>
<stop offset="0.87" stop-color="white" stop-opacity="0.11"/>
<stop offset="0.99" stop-color="white" stop-opacity="0"/>
</linearGradient>
<linearGradient id="paint9_linear_1210_6073" x1="16.212" y1="24.7029" x2="18.0547" y2="27.7812" gradientUnits="userSpaceOnUse">
<stop stop-color="white" stop-opacity="0"/>
<stop offset="0.1" stop-color="white" stop-opacity="0.08"/>
<stop offset="0.26" stop-color="white" stop-opacity="0.2"/>
<stop offset="0.4" stop-color="white" stop-opacity="0.27"/>
<stop offset="0.5" stop-color="white" stop-opacity="0.3"/>
<stop offset="0.6" stop-color="white" stop-opacity="0.28"/>
<stop offset="0.73" stop-color="white" stop-opacity="0.22"/>
<stop offset="0.87" stop-color="white" stop-opacity="0.11"/>
<stop offset="0.99" stop-color="white" stop-opacity="0"/>
</linearGradient>
<linearGradient id="paint10_linear_1210_6073" x1="12.5622" y1="20.6689" x2="13.6298" y2="22.4429" gradientUnits="userSpaceOnUse">
<stop stop-color="#253572"/>
<stop offset="0.06" stop-color="#3B3589"/>
<stop offset="0.16" stop-color="#5735A6"/>
<stop offset="0.26" stop-color="#6D35BD"/>
<stop offset="0.37" stop-color="#7D35CE"/>
<stop offset="0.49" stop-color="#8735D7"/>
<stop offset="0.65" stop-color="#8A36DB"/>
<stop offset="0.69" stop-color="#8A35DA" stop-opacity="0.97"/>
<stop offset="0.75" stop-color="#8B33DA" stop-opacity="0.89"/>
<stop offset="0.81" stop-color="#8C2FD9" stop-opacity="0.75"/>
<stop offset="0.89" stop-color="#8E2AD7" stop-opacity="0.56"/>
<stop offset="0.96" stop-color="#9124D5" stop-opacity="0.32"/>
<stop offset="1" stop-color="#9321D5" stop-opacity="0.2"/>
</linearGradient>
<linearGradient id="paint11_linear_1210_6073" x1="15.6999" y1="20.0069" x2="10.0155" y2="16.0792" gradientUnits="userSpaceOnUse">
<stop stop-color="#0437E8"/>
<stop offset="0.14" stop-color="#0736E7" stop-opacity="0.98"/>
<stop offset="0.28" stop-color="#1134E6" stop-opacity="0.93"/>
<stop offset="0.43" stop-color="#2132E4" stop-opacity="0.84"/>
<stop offset="0.59" stop-color="#382EE1" stop-opacity="0.71"/>
<stop offset="0.74" stop-color="#552ADD" stop-opacity="0.54"/>
<stop offset="0.9" stop-color="#7825D8" stop-opacity="0.35"/>
<stop offset="1" stop-color="#9321D5" stop-opacity="0.2"/>
</linearGradient>
<linearGradient id="paint12_linear_1210_6073" x1="16.3208" y1="34.1412" x2="19.483" y2="39.3359" gradientUnits="userSpaceOnUse">
<stop stop-color="#9321D5" stop-opacity="0"/>
<stop offset="1" stop-color="#1C2E70"/>
</linearGradient>
<linearGradient id="paint13_linear_1210_6073" x1="15.9389" y1="14.082" x2="19.5217" y2="19.971" gradientUnits="userSpaceOnUse">
<stop stop-color="#9321D5" stop-opacity="0"/>
<stop offset="1" stop-color="#1C2E70"/>
</linearGradient>
</defs>
</svg>
