<svg width="161" height="103" viewBox="0 0 161 103" fill="none" xmlns="http://www.w3.org/2000/svg">
<g clip-path="url(#clip0_5125_1643)">
<path d="M4.73336 75.0873V74.2702C4.73336 73.6608 4.38577 73.3132 3.84858 73.3132C3.3114 73.3132 2.9638 73.6608 2.9638 74.2702V79.5608C2.9638 80.1702 3.3114 80.5178 3.84858 80.5178C4.38577 80.5178 4.73336 80.1702 4.73336 79.5608V77.8454H3.84858V76.4596H6.20497V79.5608C6.20497 80.9602 5.26151 81.9037 3.84858 81.9037C2.43565 81.9037 1.49219 80.9602 1.49219 79.5608V74.2702C1.49219 72.8708 2.43565 71.9319 3.84858 71.9319C5.26151 71.9319 6.20497 72.8708 6.20497 74.2702V75.0873H4.73787H4.73336Z" fill="white"/>
<path d="M7.57422 79.6286V72.0674H9.04132V79.6286C9.04132 80.1974 9.38891 80.5134 9.85839 80.5134C10.3279 80.5134 10.6754 80.1974 10.6754 79.6286V72.0674H12.1155V79.6286C12.1155 80.9874 11.1991 81.8992 9.85839 81.8992C8.51768 81.8992 7.57422 80.9829 7.57422 79.6286Z" fill="white"/>
<path d="M13.668 72.0718H15.1351V80.3778H17.7533V81.7637H13.668V72.0718Z" fill="white"/>
<path d="M18.8906 72.0718H22.9895V73.4531H20.3577V76.2925H22.4342V77.6784H20.3577V81.7637H18.8906V72.0718Z" fill="white"/>
<path d="M30.1899 81.7637L29.1245 77.7641H28.3616V81.7637H26.8945V72.0718H29.1922C30.5916 72.0718 31.4899 72.9836 31.4899 74.383V75.4484C31.4899 76.3512 31.1153 77.0419 30.4788 77.4301L31.7111 81.7637H30.1854H30.1899ZM28.3616 76.3783H29.1245C29.6933 76.3783 30.0228 76.0442 30.0228 75.48V74.3559C30.0228 73.7872 29.6888 73.4531 29.1245 73.4531H28.3616V76.3738V76.3783Z" fill="white"/>
<path d="M32.9219 72.0718H37.0884V73.4531H34.389V76.1526H36.5377V77.5384H34.389V80.3778H37.0884V81.7637H32.9219V72.0718Z" fill="white"/>
<path d="M37.9922 79.5201V79.1725L39.4051 79.019V79.3756C39.4051 80.0798 39.7663 80.5087 40.3486 80.5087C40.9309 80.5087 41.292 80.1475 41.292 79.5833C41.292 78.9739 41.0438 78.5315 39.9513 77.4932C38.4978 76.1209 38.0825 75.3715 38.0825 74.3062C38.0825 72.8662 38.9131 71.9272 40.3125 71.9272C41.7119 71.9272 42.5425 72.8662 42.5425 74.3197V74.568L41.1295 74.7215V74.4461C41.1295 73.6968 40.8406 73.3086 40.326 73.3086C39.8114 73.3086 39.5225 73.6291 39.5225 74.2385C39.5225 74.8479 39.8249 75.2903 40.8677 76.3286C42.2806 77.7415 42.7366 78.4457 42.7366 79.511C42.7366 80.8969 41.766 81.8945 40.3712 81.8945C38.9763 81.8945 38.0012 80.8969 38.0012 79.511" fill="white"/>
<path d="M43.8516 79.5608V74.2702C43.8516 72.8708 44.795 71.9319 46.208 71.9319C47.6209 71.9319 48.5643 72.8708 48.5643 74.2702V79.5608C48.5643 80.9602 47.6209 81.9037 46.208 81.9037C44.795 81.9037 43.8516 80.9602 43.8516 79.5608ZM47.0927 79.5608V74.2702C47.0927 73.6608 46.7451 73.3132 46.208 73.3132C45.6708 73.3132 45.3232 73.6608 45.3232 74.2702V79.5608C45.3232 80.1702 45.6708 80.5178 46.208 80.5178C46.7451 80.5178 47.0927 80.1702 47.0927 79.5608Z" fill="white"/>
<path d="M49.9844 79.6286V72.0674H51.4515V79.6286C51.4515 80.1974 51.7991 80.5134 52.2685 80.5134C52.738 80.5134 53.0856 80.1974 53.0856 79.6286V72.0674H54.5256V79.6286C54.5256 80.9874 53.6093 81.8992 52.2685 81.8992C50.9278 81.8992 49.9844 80.9829 49.9844 79.6286Z" fill="white"/>
<path d="M59.3735 81.7637L58.3081 77.7641H57.5452V81.7637H56.0781V72.0718H58.3758C59.7752 72.0718 60.6735 72.9836 60.6735 74.383V75.4484C60.6735 76.3512 60.2989 77.0419 59.6624 77.4301L60.8947 81.7637H59.369H59.3735ZM57.5452 76.3783H58.3081C58.8769 76.3783 59.2064 76.0442 59.2064 75.48V74.3559C59.2064 73.7872 58.8724 73.4531 58.3081 73.4531H57.5452V76.3738V76.3783Z" fill="white"/>
<path d="M61.9805 79.6015V74.2296C61.9805 72.8753 62.9104 71.9319 64.2782 71.9319C65.646 71.9319 66.5759 72.8708 66.5759 74.2296V75.3672H65.1359V74.2296C65.1359 73.6608 64.7883 73.3177 64.2917 73.3177C63.7952 73.3177 63.4476 73.6653 63.4476 74.2296V79.6015C63.4476 80.1702 63.7952 80.5178 64.2917 80.5178C64.7883 80.5178 65.1359 80.1702 65.1359 79.6015V78.2156H66.5759V79.6015C66.5759 80.9602 65.6505 81.9037 64.2782 81.9037C62.9059 81.9037 61.9805 80.9602 61.9805 79.6015Z" fill="white"/>
<path d="M67.918 72.0718H72.0891V73.4531H69.3896V76.1526H71.5338V77.5384H69.3896V80.3778H72.0891V81.7637H67.918V72.0718Z" fill="white"/>
<path d="M72.9883 79.5201V79.1725L74.4012 79.019V79.3756C74.4012 80.0798 74.7623 80.5087 75.3447 80.5087C75.927 80.5087 76.2881 80.1475 76.2881 79.5833C76.2881 78.9739 76.0399 78.5315 74.9474 77.4932C73.4939 76.1209 73.0786 75.3715 73.0786 74.3062C73.0786 72.8662 73.9092 71.9272 75.3086 71.9272C76.708 71.9272 77.5386 72.8662 77.5386 74.3197V74.568L76.1256 74.7215V74.4461C76.1256 73.6968 75.8367 73.3086 75.3221 73.3086C74.8075 73.3086 74.5186 73.6291 74.5186 74.2385C74.5186 74.8479 74.821 75.2903 75.8593 76.3286C77.2722 77.7415 77.7282 78.4457 77.7282 79.511C77.7282 80.8969 76.7576 81.8945 75.3627 81.8945C73.9679 81.8945 72.9928 80.8969 72.9928 79.511" fill="white"/>
<path d="M88.418 72.0718V81.7637H86.9509V75.1188L85.5786 81.7637H84.5539L83.1861 75.1188V81.7637H81.7461V72.0718H83.8226L85.0956 78.2607L86.3144 72.0718H88.418Z" fill="white"/>
<path d="M91.4905 72.0718H90.0234V81.7637H91.4905V72.0718Z" fill="white"/>
<path d="M93.1055 72.0718H94.7215L96.5949 78.5767V72.0718H98.0304V81.7637H96.4821L94.5455 75.5612V81.7637H93.1055V72.0718Z" fill="white"/>
<path d="M101.108 72.0718H99.6406V81.7637H101.108V72.0718Z" fill="white"/>
<path d="M102.715 72.0718H104.335L106.204 78.5767V72.0718H107.644V81.7637H106.091L104.155 75.5612V81.7637H102.715V72.0718Z" fill="white"/>
<path d="M112.366 75.0873V74.2702C112.366 73.6608 112.019 73.3132 111.481 73.3132C110.944 73.3132 110.597 73.6608 110.597 74.2702V79.5608C110.597 80.1702 110.944 80.5178 111.481 80.5178C112.019 80.5178 112.366 80.1702 112.366 79.5608V77.8454H111.481V76.4596H113.838V79.5608C113.838 80.9602 112.894 81.9037 111.481 81.9037C110.068 81.9037 109.125 80.9602 109.125 79.5608V74.2702C109.125 72.8708 110.068 71.9319 111.481 71.9319C112.894 71.9319 113.838 72.8708 113.838 74.2702V75.0873H112.371H112.366Z" fill="white"/>
<path d="M117.906 79.6015V74.2296C117.906 72.8753 118.836 71.9319 120.204 71.9319C121.572 71.9319 122.502 72.8708 122.502 74.2296V75.3672H121.062V74.2296C121.062 73.6608 120.714 73.3177 120.217 73.3177C119.721 73.3177 119.373 73.6653 119.373 74.2296V79.6015C119.373 80.1702 119.721 80.5178 120.217 80.5178C120.714 80.5178 121.062 80.1702 121.062 79.6015V78.2156H122.502V79.6015C122.502 80.9602 121.572 81.9037 120.204 81.9037C118.836 81.9037 117.906 80.9602 117.906 79.6015Z" fill="white"/>
<path d="M123.777 79.5608V74.2702C123.777 72.8708 124.721 71.9319 126.134 71.9319C127.547 71.9319 128.49 72.8708 128.49 74.2702V79.5608C128.49 80.9602 127.547 81.9037 126.134 81.9037C124.721 81.9037 123.777 80.9602 123.777 79.5608ZM127.019 79.5608V74.2702C127.019 73.6608 126.671 73.3132 126.134 73.3132C125.597 73.3132 125.249 73.6608 125.249 74.2702V79.5608C125.249 80.1702 125.597 80.5178 126.134 80.5178C126.671 80.5178 127.019 80.1702 127.019 79.5608Z" fill="white"/>
<path d="M136.645 72.0718V81.7637H135.177V75.1188L133.81 81.7637H132.785L131.413 75.1188V81.7637H129.973V72.0718H132.049L133.322 78.2607L134.541 72.0718H136.645Z" fill="white"/>
<path d="M138.254 72.0718H140.552C141.951 72.0718 142.849 72.9836 142.849 74.383V75.5206C142.849 76.92 141.951 77.8318 140.552 77.8318H139.721V81.7637H138.254V72.0718ZM140.484 76.446C141.053 76.446 141.382 76.112 141.382 75.5432V74.3514C141.382 73.7826 141.053 73.4486 140.484 73.4486H139.721V76.4415H140.484V76.446Z" fill="white"/>
<path d="M146.453 79.6151H144.874L144.553 81.7593H143.086L144.693 72.0674H146.661L148.268 81.7593H146.774L146.453 79.6151ZM146.259 78.2066L145.664 74.1484L145.068 78.2066H146.259Z" fill="white"/>
<path d="M149.406 72.0718H151.027L152.896 78.5767V72.0718H154.336V81.7637H152.783L150.846 75.5612V81.7637H149.406V72.0718Z" fill="white"/>
<path d="M160.818 72.0718L158.849 77.7055V81.7637H157.382V77.7055L155.414 72.0718H156.98L158.118 75.7689L159.278 72.0718H160.818Z" fill="white"/>
<path d="M65.5674 62.5198C66.3935 62.3799 67.1474 62.249 67.8516 62.1316H61.5859C62.245 62.4927 62.4301 63.048 65.5629 62.5198" fill="white"/>
<path d="M15.2211 60.4614C17.5098 60.0777 19.7985 57.7619 21.8975 58.1501C23.9966 58.5338 24.3758 58.3217 26.4749 58.1095C26.6916 58.0869 26.9534 58.0734 27.2378 58.0644C29.3504 55.5455 30.5422 52.1779 30.5422 48.2325V28.6501H15.6815V37.394H21.2746V48.2325C21.2746 52.0786 19.0897 54.2634 15.6815 54.2634C12.2734 54.2634 10.0885 52.0786 10.0885 48.2325V14.8322C10.0885 10.9862 12.2734 8.80131 15.6815 8.80131C19.0897 8.80131 21.2746 10.9862 21.2746 14.8322V19.9919H30.5422V14.8322C30.5422 6.00253 24.597 0.057373 15.677 0.057373C6.75704 0.057373 0.816406 6.00253 0.816406 14.8322V48.228C0.816406 52.223 2.04426 55.6222 4.20203 58.1501H9.69125C9.69125 58.1501 12.9324 60.8496 15.2211 60.4614Z" fill="white"/>
<path d="M47.8316 56.2226C48.2017 56.2632 48.5222 56.349 48.8112 56.4573V36.8613H53.6187L60.2816 61.8698C60.9497 61.8653 63.5409 62.583 63.8117 62.732L67.8474 62.1271C68.5696 62.0052 69.2377 61.8878 69.8652 61.7885L62.1821 34.7622C66.2042 32.3156 68.5651 27.9459 68.5651 22.2625V15.5319C68.5651 6.70221 62.8818 0.933105 54.0521 0.933105H39.5391V56.2948C39.837 56.2497 40.1801 56.2226 40.5773 56.2226C43.8185 56.2226 45.5339 55.9653 47.8226 56.2226M48.8112 9.67252H53.6187C57.203 9.67252 59.3021 11.7716 59.3021 15.3559V22.4386C59.3021 26.0228 57.203 28.1219 53.6187 28.1219H48.8112V9.67252Z" fill="white"/>
<path d="M86.6663 61.6937V20.1634L94.4939 58.123C97.5906 57.3917 97.3198 57.8793 100.683 56.7327C101.414 56.4844 102.254 56.0781 103.134 55.5951L110.442 20.1589V51.3473C110.939 51.1216 111.372 50.9726 111.693 50.95C113.625 50.8236 112.018 49.9208 115.011 49.4062C116.279 49.1895 117.986 48.9006 119.71 48.5846V0.933105H106.42L98.7282 40.0122L90.684 0.933105H77.5703V61.2333H83.6825C84.7569 61.2333 85.7816 61.4996 86.6663 61.6937Z" fill="white"/>
<path d="M130.787 43.3753C130.787 43.3753 134.028 43.6326 134.412 44.1472C134.737 44.5806 136.696 46.4855 138.335 46.9054V14.5704C138.335 10.9862 140.519 8.80131 143.666 8.80131C146.812 8.80131 148.997 10.9862 148.997 14.5704V21.7389H158.089V14.5704C158.089 6.00253 152.234 0.057373 143.576 0.057373C134.917 0.057373 129.062 6.00253 129.062 14.5704V46.0161C130.069 45.6098 130.782 45.3028 130.782 45.3028V43.3753H130.787Z" fill="white"/>
<path d="M155.007 50.44C155.964 50.6567 157.079 50.9095 157.883 51.1126C158.009 50.2685 158.091 49.3972 158.091 48.4854V39.7415H148.999V48.4854C148.999 48.6976 148.99 48.9007 148.977 49.1038C149.08 49.1174 149.18 49.1445 149.288 49.1535C151.193 49.2844 153.292 50.0518 155.007 50.44Z" fill="white"/>
<path d="M63.4737 63.0705C62.4264 63.0705 62.0427 62.8177 61.6725 62.5739C61.3385 62.3527 61.0541 62.1631 60.0564 62.2128C57.384 62.3392 56.3097 61.8471 55.0502 60.7547C54.5943 60.362 54.3641 59.9467 54.1609 59.581C53.8359 58.9987 53.6373 58.6421 52.6622 58.6421C52.6306 58.6421 52.5945 58.6421 52.5629 58.6421C51.5202 58.6421 50.8295 58.132 50.1614 57.6399C49.5159 57.1659 48.8523 56.6739 47.796 56.5565C46.374 56.3985 45.1778 56.4392 43.661 56.4933C42.7807 56.5249 41.7831 56.561 40.5868 56.561C38.8218 56.561 38.2305 57.0711 37.6617 57.5632C37.2193 57.9469 36.7588 58.3441 35.8605 58.4434C34.8855 58.5518 33.1159 58.5021 31.238 58.4434C29.4188 58.3893 27.5409 58.3351 26.5117 58.4434C26.0783 58.4886 25.7217 58.5337 25.4057 58.5698C24.1734 58.7233 23.5549 58.7955 21.8395 58.4841C20.7471 58.2854 19.5554 58.9129 18.2914 59.581C17.3163 60.0956 16.3097 60.6238 15.2805 60.7998C13.0685 61.17 10.1478 58.949 9.57455 58.4931H2.72656V57.8205H9.8138L9.9086 57.8972C9.9402 57.9243 13.0595 60.4884 15.1676 60.1363C16.0885 59.9828 17.05 59.4772 17.9754 58.9851C19.2845 58.2945 20.6388 57.5767 21.9614 57.825C23.573 58.1229 24.1192 58.0552 25.3245 57.9063C25.645 57.8656 26.0061 57.8205 26.444 57.7799C27.5229 57.6715 29.4188 57.7257 31.2561 57.7799C33.0256 57.8295 34.8584 57.8882 35.7838 57.7799C36.4744 57.7031 36.804 57.4187 37.2238 57.0576C37.8558 56.5114 38.5735 55.8929 40.5914 55.8929C41.7786 55.8929 42.7672 55.8568 43.6429 55.8252C45.1868 55.7711 46.4056 55.7259 47.8772 55.8929C49.1096 56.0329 49.8815 56.6017 50.5631 57.1027C51.1951 57.5677 51.7459 57.974 52.5674 57.974C52.599 57.974 52.6306 57.974 52.6622 57.974C54.0391 57.974 54.4002 58.6285 54.7523 59.256C54.9374 59.59 55.1315 59.9376 55.4926 60.2491C56.4948 61.1158 57.357 61.6756 60.0248 61.5447C61.2437 61.486 61.668 61.7659 62.0427 62.0141C62.4941 62.3121 62.9636 62.619 65.5141 62.1902L67.3694 61.8742C70.7821 61.2874 73.0392 60.8991 75.6754 60.8991H83.6836C84.6496 60.8991 85.566 61.1068 86.374 61.2874C87.3039 61.4995 88.1074 61.6801 88.586 61.4454C88.8703 61.3054 89.227 60.9714 89.6423 60.5877C90.6444 59.6532 92.0167 58.3712 94.3099 57.8205C95.6371 57.5045 96.3639 57.4007 97.0049 57.3104C97.8942 57.1885 98.5939 57.0892 100.58 56.4121C102.196 55.8613 104.322 54.5522 106.381 53.2838C108.642 51.8889 110.597 50.6836 111.676 50.6159C112.389 50.5707 112.475 50.4353 112.624 50.2186C112.931 49.7627 113.319 49.3609 114.962 49.0766L115.694 48.9502C118.826 48.413 123.566 47.6095 125.688 46.9052C127.611 46.2687 129.791 45.3569 130.455 45.077V43.0095L130.816 43.0366C131.836 43.1179 134.256 43.3661 134.685 43.944C135.113 44.5218 137.65 46.8601 139.131 46.6389C139.898 46.5261 140.314 46.1559 140.684 45.8309C141.068 45.4923 141.501 45.1041 142.169 45.3749C142.611 45.5555 142.9 45.858 143.185 46.1559C143.573 46.5667 143.943 46.9549 144.742 47.0226C145.532 47.0903 146.191 47.4785 146.891 47.8848C147.622 48.3137 148.376 48.756 149.31 48.8192C150.638 48.9095 152.014 49.2887 153.342 49.6589C153.947 49.8259 154.533 49.9884 155.084 50.1103C159.305 51.0583 159.305 51.1124 159.305 51.4645H158.632H158.971L158.768 51.7219C158.47 51.5593 155.811 50.959 154.94 50.7649C154.38 50.6385 153.789 50.4759 153.166 50.3044C151.87 49.9433 150.529 49.5731 149.27 49.4873C148.177 49.4151 147.315 48.9095 146.552 48.4626C145.92 48.0925 145.324 47.7404 144.688 47.6862C143.636 47.5959 143.117 47.0542 142.702 46.6163C142.449 46.35 142.228 46.1198 141.921 45.9934C141.668 45.8896 141.546 45.9663 141.135 46.3274C140.743 46.675 140.201 47.1535 139.239 47.298C137.343 47.5779 134.572 44.9055 134.152 44.3412C133.944 44.1245 132.491 43.8672 131.136 43.7363V45.5149L130.933 45.6052C130.906 45.6187 128.225 46.7743 125.909 47.5417C123.738 48.2595 118.966 49.0766 115.815 49.6137L115.084 49.7401C113.59 49.9974 113.369 50.327 113.193 50.5933C112.949 50.959 112.701 51.2208 111.73 51.284C110.818 51.3472 108.746 52.6202 106.746 53.8571C104.656 55.1436 102.494 56.4753 100.81 57.0486C98.7609 57.7437 98.0341 57.8476 97.1087 57.974C96.4857 58.0597 95.7725 58.159 94.4815 58.4705C92.3598 58.9761 91.0642 60.1904 90.1163 61.0707C89.6468 61.5086 89.2721 61.8561 88.8974 62.0412C88.2068 62.3798 87.2949 62.1721 86.2386 61.9329C85.4667 61.7568 84.5909 61.5582 83.7016 61.5582H75.6935C73.1114 61.5582 70.8769 61.9419 67.5003 62.5197L65.645 62.8357C64.706 62.9937 64.0199 63.0569 63.4962 63.0569" fill="white"/>
<path d="M63.4782 64.0818C62.476 64.0818 62.1149 63.8425 61.7628 63.6123C61.4197 63.3866 61.0902 63.1699 60.0474 63.2241C57.4382 63.3505 56.3864 62.8674 55.1631 61.8066C54.7342 61.4319 54.5085 61.0302 54.3099 60.6781C53.9759 60.0732 53.7276 59.6218 52.6035 59.6534C52.59 59.6534 52.5765 59.6534 52.5629 59.6534C51.5743 59.6534 50.9378 59.1839 50.2607 58.6828C49.5971 58.1953 48.9155 57.6897 47.814 57.5678C46.3785 57.4053 45.1778 57.4504 43.6565 57.5046C42.7762 57.5362 41.7831 57.5723 40.5868 57.5723C38.7586 57.5723 38.1447 58.1005 37.5488 58.6151C37.1064 58.9988 36.6821 59.3599 35.8379 59.4547C34.8764 59.5631 33.1114 59.5089 31.238 59.4547C29.4188 59.4051 27.5319 59.3464 26.4891 59.4547C26.0558 59.4999 25.6946 59.545 25.3786 59.5811C24.1643 59.7301 23.5549 59.8068 21.8666 59.4954C20.72 59.2832 19.5012 59.9287 18.2101 60.6059C17.2486 61.1114 16.251 61.6396 15.2534 61.8066C13.0369 62.1768 10.0621 59.843 9.63323 59.4954H2.72656V59.1568H9.7506L9.79574 59.1974C9.82734 59.2245 12.9963 61.8472 15.1902 61.4726C16.1381 61.3146 17.1087 60.8 18.0476 60.3079C19.3297 59.6308 20.6613 58.9311 21.9208 59.1613C23.5594 59.4638 24.1147 59.3915 25.3335 59.2426C25.654 59.2019 26.0151 59.1568 26.4485 59.1162C27.5138 59.0078 29.4098 59.062 31.2425 59.1162C33.0166 59.1658 34.8584 59.22 35.7928 59.1162C36.5376 59.0349 36.8988 58.7189 37.3231 58.3533C37.9325 57.8251 38.6277 57.2293 40.5778 57.2293C41.7696 57.2293 42.7582 57.1931 43.6339 57.1615C45.1687 57.1074 46.383 57.0667 47.8411 57.2293C49.0283 57.3647 49.7822 57.9199 50.4458 58.4074C51.1048 58.8905 51.6736 59.3103 52.5494 59.3103C52.581 59.3103 52.6126 59.3103 52.6442 59.3103C53.9217 59.3103 54.2467 59.8926 54.5898 60.5065C54.7839 60.8541 54.9825 61.2107 55.3707 61.5448C56.4 62.4341 57.2757 63.0074 60.0203 62.881C61.1805 62.8268 61.5642 63.0796 61.9388 63.3234C62.4173 63.6394 62.9139 63.9644 65.5321 63.522C66.1912 63.4091 66.8096 63.3053 67.3874 63.206C70.7911 62.6237 73.0392 62.2355 75.6664 62.2355H83.6745C84.6225 62.2355 85.5253 62.4386 86.3243 62.6192C87.2859 62.8358 88.1165 63.0254 88.6491 62.7636C88.9561 62.6147 89.3218 62.2716 89.7416 61.8788C90.7302 60.958 92.0844 59.694 94.3325 59.1523C95.6506 58.8363 96.3729 58.737 97.0094 58.6467C97.9077 58.5203 98.6119 58.4255 100.616 57.7439C102.25 57.1886 104.386 55.875 106.453 54.602C108.697 53.2207 110.633 52.0244 111.667 51.9567C112.461 51.9025 112.579 51.731 112.741 51.4872C112.976 51.1396 113.265 50.7108 114.967 50.4174L115.698 50.291C118.835 49.7538 123.58 48.9458 125.719 48.237C127.76 47.5599 130.094 46.5758 130.604 46.3591V44.3594L130.784 44.3729C131.34 44.4181 134.125 44.6618 134.531 45.2126C134.987 45.8265 137.578 48.21 139.14 47.9752C139.957 47.8533 140.413 47.4516 140.779 47.1266C141.158 46.788 141.519 46.472 142.092 46.7022C142.499 46.8693 142.778 47.1582 143.049 47.4425C143.46 47.8759 143.853 48.2867 144.715 48.3589C145.469 48.4221 146.114 48.8013 146.796 49.1986C147.545 49.6364 148.317 50.0878 149.292 50.1556C150.602 50.2458 151.969 50.6205 153.292 50.9862C153.91 51.1577 154.493 51.3202 155.039 51.4421C159.129 52.3585 159.129 52.4352 159.129 52.6338H158.79H158.957L158.84 52.7467C158.601 52.5887 155.861 51.9703 154.962 51.7716C154.407 51.6452 153.82 51.4827 153.197 51.3112C151.893 50.9501 150.543 50.5754 149.265 50.4896C148.214 50.4174 147.405 49.9434 146.625 49.4875C145.975 49.1083 145.365 48.7471 144.688 48.6885C143.695 48.6072 143.225 48.1061 142.806 47.6683C142.548 47.3974 142.309 47.1446 141.966 47.0047C141.605 46.8602 141.397 47.0182 141.004 47.3703C140.603 47.7224 140.106 48.1648 139.194 48.3002C137.37 48.5756 134.68 45.9619 134.265 45.4067C134.044 45.1087 132.251 44.8334 130.947 44.7205V46.5758L130.848 46.621C130.82 46.63 128.144 47.7901 125.837 48.553C123.675 49.2708 118.917 50.0833 115.766 50.6205L115.034 50.7469C113.473 51.0133 113.224 51.3789 113.03 51.6723C112.804 52.0064 112.592 52.2321 111.698 52.2908C110.746 52.354 108.751 53.5863 106.638 54.8864C104.557 56.1684 102.404 57.4956 100.734 58.0644C98.7022 58.755 97.9799 58.8544 97.0681 58.9807C96.4406 59.0665 95.7274 59.1703 94.4228 59.4818C92.2605 60.0009 90.9423 61.2288 89.9808 62.1271C89.5204 62.556 89.1592 62.8945 88.8026 63.0661C88.1661 63.3775 87.2814 63.1789 86.2566 62.9442C85.4757 62.7681 84.5909 62.5695 83.6791 62.5695H75.6709C73.0753 62.5695 70.8363 62.9532 67.4461 63.5355C66.8638 63.6348 66.2499 63.7432 65.5908 63.8515C64.6609 64.0095 63.9838 64.0682 63.4737 64.0682" fill="white"/>
<path d="M63.4782 65.1742C62.476 65.1742 62.1149 64.9349 61.7628 64.7047C61.4197 64.479 61.0902 64.2668 60.0474 64.3165C57.4382 64.4474 56.3864 63.9599 55.1631 62.899C54.7342 62.5243 54.5085 62.1226 54.3099 61.7705C53.9759 61.1656 53.7276 60.7187 52.6035 60.7458C52.59 60.7458 52.5765 60.7458 52.5629 60.7458C51.5743 60.7458 50.9378 60.2763 50.2607 59.7752C49.5971 59.2877 48.9155 58.7821 47.814 58.6602C46.3785 58.4977 45.1778 58.5428 43.6565 58.597C42.7762 58.6286 41.7831 58.6647 40.5868 58.6647C38.7586 58.6647 38.1447 59.1929 37.5488 59.7075C37.1064 60.0912 36.6821 60.4523 35.8379 60.5471C34.8764 60.6555 33.1114 60.6013 31.238 60.5471C29.4143 60.493 27.5319 60.4388 26.4891 60.5471C26.0558 60.5923 25.6946 60.6374 25.3786 60.6735C24.1643 60.8225 23.5549 60.8992 21.8666 60.5878C20.72 60.3756 19.5012 61.0211 18.2101 61.6983C17.2486 62.2038 16.251 62.732 15.2534 62.899C13.0369 63.2692 10.0621 60.9354 9.63323 60.5878H2.72656V60.2492H9.7506L9.79574 60.2898C9.82734 60.3169 12.9963 62.9351 15.1902 62.565C16.1381 62.407 17.1087 61.8924 18.0476 61.4003C19.3297 60.7232 20.6613 60.0235 21.9208 60.2537C23.5594 60.5562 24.1147 60.4885 25.3335 60.335C25.654 60.2943 26.0151 60.2492 26.4485 60.2086C27.5138 60.1002 29.4098 60.1544 31.2425 60.2086C33.0166 60.2582 34.8584 60.3124 35.7928 60.2086C36.5376 60.1273 36.8988 59.8113 37.3231 59.4457C37.9325 58.9175 38.6277 58.3217 40.5778 58.3217C41.7696 58.3217 42.7582 58.2855 43.6339 58.2539C45.1687 58.1998 46.383 58.1592 47.8411 58.3217C49.0283 58.4571 49.7822 59.0123 50.4458 59.4999C51.1048 59.9829 51.6736 60.4027 52.5494 60.4027C52.581 60.4027 52.6126 60.4027 52.6442 60.4027C53.9217 60.4027 54.2467 60.985 54.5898 61.5989C54.7839 61.9465 54.9825 62.3032 55.3707 62.6372C56.4 63.531 57.2757 64.1043 60.0203 63.9734C61.1805 63.9192 61.5642 64.172 61.9388 64.4158C62.4173 64.7318 62.9139 65.0568 65.5321 64.6144C66.1912 64.5015 66.8096 64.3977 67.3874 64.2984C70.7911 63.7161 73.0392 63.3279 75.6664 63.3279H83.6745C84.6225 63.3279 85.5253 63.531 86.3243 63.7116C87.2859 63.9282 88.1165 64.1178 88.6491 63.856C88.9561 63.7071 89.3218 63.364 89.7416 62.9712C90.7302 62.0504 92.0844 60.7864 94.3325 60.2447C95.6506 59.9287 96.3729 59.8294 97.0094 59.7391C97.9077 59.6127 98.6119 59.5179 100.616 58.8363C102.25 58.281 104.386 56.9674 106.453 55.6899C108.697 54.3086 110.633 53.1123 111.667 53.0446C112.461 52.9904 112.579 52.8144 112.741 52.5751C112.976 52.2275 113.265 51.7987 114.967 51.5053L115.698 51.3789C118.835 50.8417 123.58 50.0337 125.719 49.3249C127.76 48.6478 130.094 47.6637 130.604 47.447V45.4473L130.784 45.4608C131.34 45.5059 134.125 45.7497 134.531 46.3004C134.987 46.9144 137.578 49.2888 139.14 49.0631C139.957 48.9412 140.413 48.5395 140.779 48.2144C141.158 47.8759 141.519 47.5599 142.092 47.7901C142.499 47.9571 142.778 48.246 143.049 48.5304C143.46 48.9638 143.853 49.3746 144.715 49.4468C145.469 49.51 146.114 49.8892 146.796 50.2864C147.545 50.7243 148.317 51.1757 149.292 51.2434C150.602 51.3337 151.969 51.7084 153.292 52.0741C153.91 52.2456 154.493 52.4081 155.039 52.53C159.129 53.4464 159.129 53.5276 159.129 53.7217H158.79H158.957L158.84 53.8346C158.601 53.6766 155.861 53.0581 154.962 52.8595C154.407 52.7331 153.82 52.5706 153.197 52.3991C151.893 52.0379 150.543 51.6633 149.265 51.5775C148.214 51.5053 147.405 51.0313 146.625 50.5754C145.975 50.1962 145.365 49.835 144.688 49.7809C143.695 49.6951 143.225 49.1985 142.806 48.7607C142.548 48.4898 142.309 48.237 141.966 48.0971C141.605 47.9526 141.397 48.1106 141.004 48.4627C140.603 48.8148 140.106 49.2572 139.194 49.3926C137.37 49.668 134.68 47.0543 134.265 46.4991C134.044 46.2011 132.251 45.9258 130.947 45.8129V47.6682L130.848 47.7134C130.82 47.7224 128.144 48.8825 125.837 49.6454C123.675 50.3632 118.917 51.1757 115.766 51.7129L115.034 51.8393C113.473 52.1057 113.224 52.4713 113.03 52.7647C112.804 53.0988 112.592 53.3245 111.698 53.3832C110.746 53.4464 108.751 54.6787 106.638 55.9788C104.557 57.2608 102.404 58.588 100.734 59.1568C98.7022 59.8474 97.9799 59.9468 97.0681 60.0732C96.4406 60.1589 95.7274 60.2627 94.4228 60.5742C92.2605 61.0934 90.9423 62.3212 89.9808 63.2195C89.5204 63.6484 89.1592 63.9869 88.8026 64.1585C88.1661 64.4699 87.2814 64.2713 86.2566 64.0411C85.4757 63.8651 84.5909 63.6619 83.6791 63.6619H75.6709C73.0753 63.6619 70.8363 64.0456 67.4461 64.6279C66.8638 64.7273 66.2499 64.8356 65.5908 64.9439C64.6609 65.1019 63.9838 65.1606 63.4737 65.1606" fill="white"/>
<path d="M63.4782 66.4924C62.476 66.4924 62.1149 66.2531 61.7628 66.0229C61.4197 65.7972 61.0902 65.5851 60.0474 65.6347C57.4382 65.7611 56.3864 65.2781 55.1631 64.2173C54.7342 63.8426 54.5085 63.4408 54.3099 63.0887C53.9759 62.4838 53.7276 62.0414 52.6035 62.064H52.5629C51.5743 62.064 50.9378 61.5945 50.2607 61.098C49.5971 60.6104 48.9155 60.1049 47.814 59.983C46.3785 59.8205 45.1778 59.8656 43.6565 59.9198C42.7762 59.9514 41.7831 59.9875 40.5868 59.9875C38.7586 59.9875 38.1447 60.5156 37.5488 61.0303C37.1064 61.414 36.6821 61.7751 35.8379 61.8699C34.8764 61.9782 33.1114 61.9241 31.2425 61.8699C29.4188 61.8157 27.5364 61.7616 26.4936 61.8699C26.0603 61.915 25.6991 61.9602 25.3831 61.9963C24.1688 62.1453 23.5549 62.222 21.8666 61.9105C20.72 61.6984 19.5012 62.3439 18.2101 63.021C17.2486 63.5266 16.251 64.0547 15.2534 64.2218C13.0369 64.5919 10.0621 62.2581 9.63323 61.9105H2.72656V61.572H9.7506L9.79574 61.6126C9.82734 61.6397 12.9963 64.2579 15.1902 63.8877C16.1381 63.7297 17.1087 63.2151 18.0476 62.7231C19.3297 62.0459 20.6613 61.3463 21.9208 61.5765C23.5594 61.8789 24.1147 61.8067 25.3335 61.6577C25.654 61.6171 26.0151 61.572 26.4485 61.5313C27.5138 61.423 29.4098 61.4772 31.2425 61.5313C33.0166 61.5855 34.8539 61.6352 35.7928 61.5313C36.5376 61.4456 36.8988 61.1341 37.3231 60.7684C37.9325 60.2403 38.6277 59.6444 40.5778 59.6444C41.7696 59.6444 42.7582 59.6083 43.6339 59.5767C45.1687 59.5225 46.383 59.4819 47.8411 59.6444C49.0283 59.7798 49.7822 60.3351 50.4458 60.8226C51.1048 61.3056 51.6736 61.7254 52.5494 61.7254C52.581 61.7254 52.6126 61.7254 52.6442 61.7254C53.9217 61.7254 54.2467 62.3078 54.5898 62.9217C54.7839 63.2693 54.9825 63.6259 55.3707 63.9599C56.4 64.8538 57.2757 65.4271 60.0203 65.2961C61.1805 65.242 61.5642 65.4948 61.9388 65.7385C62.4173 66.0545 62.9139 66.3795 65.5321 65.9372C66.1912 65.8243 66.8096 65.7205 67.3874 65.6212C70.7911 65.0388 73.0392 64.6506 75.6664 64.6506H83.6745C84.6225 64.6506 85.5253 64.8538 86.3243 65.0343C87.2859 65.251 88.1165 65.4406 88.6491 65.1788C88.9561 65.0298 89.3218 64.6867 89.7416 64.294C90.7302 63.3731 92.0844 62.1091 94.3325 61.5674C95.6506 61.2515 96.3729 61.1521 97.0094 61.0619C97.9077 60.9355 98.6119 60.8362 100.616 60.159C102.25 59.6038 104.386 58.2856 106.453 57.0127C108.697 55.6313 110.633 54.4351 111.667 54.3674C112.461 54.3132 112.579 54.1371 112.741 53.8979C112.976 53.5503 113.265 53.1214 114.967 52.828L115.698 52.7016C118.835 52.1644 123.58 51.3564 125.719 50.6477C127.76 49.9706 130.094 48.9865 130.604 48.7698V46.77L130.784 46.7836C131.34 46.8287 134.125 47.0725 134.531 47.6232C134.987 48.2371 137.578 50.6206 139.14 50.3859C139.957 50.264 140.413 49.8622 140.779 49.5372C141.158 49.1986 141.519 48.8826 142.092 49.1129C142.499 49.2799 142.778 49.5688 143.049 49.8532C143.46 50.2866 143.853 50.6973 144.715 50.7696C145.469 50.8328 146.114 51.212 146.796 51.6092C147.545 52.0471 148.317 52.4985 149.292 52.5662C150.602 52.6565 151.969 53.0312 153.292 53.3968C153.91 53.5683 154.493 53.7309 155.039 53.8527C159.129 54.7691 159.129 54.8459 159.129 55.0445H158.79H158.957L158.84 55.1573C158.601 54.9993 155.861 54.3809 154.962 54.1823C154.407 54.0559 153.82 53.8934 153.197 53.7218C151.893 53.3607 150.543 52.986 149.265 52.9003C148.214 52.828 147.405 52.354 146.625 51.8981C145.975 51.5189 145.365 51.1578 144.688 51.0991C143.695 51.0178 143.225 50.5168 142.806 50.0789C142.548 49.808 142.309 49.5553 141.966 49.4153C141.605 49.2709 141.397 49.4289 141.004 49.781C140.603 50.1331 140.106 50.5755 139.194 50.7109C137.37 50.9862 134.68 48.3725 134.265 47.8173C134.044 47.5194 132.251 47.244 130.947 47.1312V48.9865L130.848 49.0316C130.82 49.0406 128.144 50.2008 125.837 50.9637C123.675 51.6814 118.917 52.4895 115.766 53.0312L115.034 53.1576C113.473 53.4239 113.224 53.7895 113.03 54.083C112.804 54.417 112.592 54.6427 111.698 54.7014C110.746 54.7646 108.751 55.997 106.638 57.297C104.557 58.5791 102.404 59.9062 100.734 60.475C98.7022 61.1657 97.9799 61.265 97.0681 61.3914C96.4406 61.4772 95.7274 61.5765 94.4228 61.8925C92.2605 62.4116 90.9423 63.6394 89.9808 64.5378C89.5204 64.9666 89.1592 65.3052 88.8026 65.4767C88.1661 65.7882 87.2814 65.5896 86.2566 65.3548C85.4757 65.1788 84.5909 64.9802 83.6791 64.9802H75.6709C73.0753 64.9802 70.8363 65.3639 67.4461 65.9462C66.8638 66.0455 66.2499 66.1538 65.5908 66.2622C64.6609 66.4202 63.9838 66.4789 63.4737 66.4789" fill="white"/>
<path d="M63.4782 67.8149C62.476 67.8149 62.1149 67.5757 61.7628 67.3454C61.4197 67.1197 61.0902 66.9076 60.0474 66.9572C57.4382 67.0836 56.3864 66.6006 55.1631 65.5398C54.7342 65.1651 54.5085 64.7633 54.3099 64.4112C53.9759 63.8063 53.7276 63.3639 52.6035 63.3865C52.59 63.3865 52.5765 63.3865 52.5629 63.3865C51.5743 63.3865 50.9378 62.917 50.2607 62.416C49.5971 61.9284 48.9155 61.4229 47.814 61.301C46.3785 61.1385 45.1778 61.1836 43.6565 61.2378C42.7762 61.2694 41.7831 61.3055 40.5868 61.3055C38.7586 61.3055 38.1447 61.8336 37.5488 62.3483C37.1064 62.732 36.6821 63.0931 35.8379 63.1879C34.8764 63.2962 33.1114 63.2421 31.2425 63.1879C29.4188 63.1337 27.5364 63.0796 26.4891 63.1879C26.0558 63.233 25.6946 63.2782 25.3786 63.3143C24.1598 63.4633 23.5504 63.54 21.8666 63.2285C20.72 63.0164 19.5012 63.6619 18.2101 64.339C17.2486 64.8446 16.251 65.3727 15.2534 65.5398C13.0369 65.9144 10.0621 63.5761 9.63323 63.2285H2.72656V62.89H9.7506L9.79574 62.9306C9.82734 62.9577 12.9963 65.5804 15.1902 65.2057C16.1381 65.0477 17.1087 64.5331 18.0476 64.0411C19.3297 63.3639 20.6613 62.6642 21.9208 62.8945C23.5594 63.1969 24.1147 63.1247 25.3335 62.9757C25.654 62.9351 26.0151 62.8945 26.453 62.8493C27.5183 62.741 29.4143 62.7952 31.247 62.8493C33.0211 62.899 34.8584 62.9532 35.7928 62.8493C36.5376 62.7636 36.8988 62.4521 37.3231 62.0864C37.9325 61.5583 38.6277 60.9624 40.5778 60.9624C41.7696 60.9624 42.7582 60.9263 43.6339 60.8947C45.1687 60.8405 46.383 60.7999 47.8411 60.9624C49.0283 61.0978 49.7822 61.6531 50.4458 62.1406C51.1048 62.6236 51.6736 63.0434 52.5494 63.0434C52.581 63.0434 52.6126 63.0434 52.6442 63.0434C53.9217 63.0434 54.2467 63.6258 54.5898 64.2397C54.7839 64.5873 54.9825 64.9439 55.3707 65.2779C56.4 66.1672 57.2757 66.7405 60.0203 66.6141C61.1805 66.5555 61.5642 66.8128 61.9388 67.0565C62.4173 67.3725 62.9139 67.6975 65.5321 67.2551C66.1912 67.1423 66.8051 67.0385 67.3829 66.9392C70.7911 66.3568 73.0392 65.9686 75.6664 65.9686H83.6745C84.6225 65.9686 85.5253 66.1718 86.3243 66.3523C87.2859 66.569 88.1165 66.7586 88.6491 66.4968C88.9561 66.3478 89.3218 66.0047 89.7416 65.612C90.7302 64.6911 92.0844 63.4271 94.3325 62.8854C95.6506 62.5694 96.3729 62.4701 97.0094 62.3799C97.9077 62.2535 98.6119 62.1587 100.616 61.477C102.25 60.9218 104.386 59.6082 106.453 58.3352C108.697 56.9538 110.633 55.7576 111.667 55.6899C112.461 55.6357 112.579 55.4642 112.741 55.2204C112.976 54.8728 113.265 54.444 114.967 54.1505L115.698 54.0241C118.835 53.487 123.58 52.6789 125.719 51.9702C127.76 51.2931 130.094 50.309 130.604 50.0923V48.0925L130.784 48.1061C131.34 48.1512 134.125 48.395 134.531 48.9457C134.987 49.5596 137.578 51.9386 139.14 51.7039C139.957 51.582 140.413 51.1802 140.779 50.8552C141.158 50.5166 141.519 50.2006 142.092 50.4309C142.499 50.5979 142.778 50.8868 143.049 51.1712C143.46 51.6045 143.853 52.0153 144.715 52.0876C145.469 52.1508 146.114 52.53 146.796 52.9272C147.545 53.3651 148.317 53.8165 149.292 53.8842C150.602 53.9745 151.969 54.3492 153.292 54.7148C153.91 54.8863 154.493 55.0489 155.039 55.1707C159.129 56.0871 159.129 56.1639 159.129 56.3625H158.79H158.957L158.84 56.4753C158.601 56.3173 155.861 55.6989 154.962 55.5003C154.407 55.3739 153.82 55.2114 153.197 55.0398C151.893 54.6787 150.543 54.304 149.265 54.2182C148.214 54.146 147.405 53.672 146.625 53.2161C145.975 52.8369 145.365 52.4758 144.688 52.4171C143.695 52.3358 143.225 51.8348 142.806 51.3969C142.548 51.126 142.309 50.8733 141.966 50.7333C141.605 50.5889 141.397 50.7469 141.004 51.099C140.603 51.4511 140.106 51.8935 139.194 52.0289C137.37 52.3042 134.68 49.6905 134.265 49.1353C134.044 48.8374 132.251 48.562 130.947 48.4491V50.3045L130.848 50.3496C130.82 50.3632 128.144 51.5188 125.837 52.2817C123.675 52.9994 118.917 53.812 115.766 54.3492L115.034 54.4756C113.473 54.7419 113.224 55.1075 113.03 55.401C112.804 55.735 112.592 55.9607 111.698 56.0194C110.746 56.0826 108.751 57.315 106.638 58.615C104.557 59.8971 102.404 61.2242 100.734 61.793C98.7022 62.4837 97.9799 62.583 97.0681 62.7094C96.4406 62.7952 95.7274 62.899 94.4228 63.2105C92.2605 63.7296 90.9423 64.9574 89.9808 65.8558C89.5204 66.2846 89.1547 66.6232 88.8026 66.7947C88.1661 67.1062 87.2814 66.9076 86.2566 66.6773C85.4757 66.5013 84.5909 66.2981 83.6791 66.2981H75.6709C73.0708 66.2981 70.8317 66.6819 67.4461 67.2642C66.8683 67.3635 66.2499 67.4718 65.5953 67.5802C64.6654 67.7382 63.9883 67.7968 63.4782 67.7968" fill="white"/>
<path d="M63.4782 68.957C62.476 68.957 62.1149 68.7177 61.7628 68.4875C61.4197 68.2618 61.0902 68.0496 60.0474 68.0993C57.4382 68.2302 56.3864 67.7427 55.1631 66.6819C54.7342 66.3072 54.5085 65.9054 54.3099 65.5533C53.9759 64.9484 53.7276 64.5151 52.6035 64.5286C52.59 64.5286 52.5765 64.5286 52.5629 64.5286C51.5743 64.5286 50.9378 64.0591 50.2607 63.5581C49.5971 63.0705 48.9155 62.5649 47.814 62.4431C46.3785 62.2805 45.1778 62.3257 43.6565 62.3799C42.7762 62.4115 41.7831 62.4476 40.5868 62.4476C38.7586 62.4476 38.1447 62.9757 37.5488 63.4903C37.1064 63.8741 36.6821 64.2352 35.8379 64.33C34.8764 64.4383 33.1114 64.3842 31.2425 64.33C29.4188 64.2758 27.5364 64.2216 26.4891 64.33C26.0558 64.3751 25.6946 64.4203 25.3786 64.4564C24.1598 64.6053 23.5504 64.6821 21.8666 64.3706C20.72 64.1584 19.5012 64.804 18.2101 65.4811C17.2486 65.9867 16.251 66.5148 15.2534 66.6819C13.0369 67.052 10.0621 64.7182 9.63323 64.3706H2.72656V64.032H9.7506L9.79574 64.0727C9.82734 64.0998 12.9963 66.7225 15.1902 66.3478C16.1381 66.1898 17.1087 65.6752 18.0476 65.1832C19.3297 64.506 20.6613 63.8063 21.9208 64.0366C23.5594 64.339 24.1147 64.2668 25.3335 64.1178C25.654 64.0772 26.0151 64.0366 26.453 63.9914C27.5183 63.8831 29.4143 63.9372 31.247 63.9914C33.0211 64.0411 34.8584 64.0952 35.7928 63.9914C36.5376 63.9057 36.8988 63.5942 37.3231 63.2285C37.9325 62.7004 38.6277 62.1045 40.5778 62.1045C41.7696 62.1045 42.7582 62.0684 43.6339 62.0368C45.1687 61.9826 46.383 61.942 47.8411 62.1045C49.0283 62.2399 49.7822 62.7952 50.4458 63.2827C51.1048 63.7657 51.6736 64.1855 52.5494 64.1855C52.581 64.1855 52.6126 64.1855 52.6442 64.1855C53.9217 64.1855 54.2467 64.7679 54.5898 65.3818C54.7839 65.7294 54.9825 66.086 55.3707 66.42C56.4 67.3093 57.2757 67.8871 60.0203 67.7562C61.1805 67.7021 61.5642 67.9549 61.9388 68.1986C62.4173 68.5146 62.9139 68.8396 65.5321 68.3972C66.1912 68.2889 66.8051 68.1806 67.3829 68.0813C70.7911 67.4989 73.0392 67.1107 75.6664 67.1107H83.6745C84.6225 67.1107 85.5253 67.3138 86.3243 67.4944C87.2859 67.7111 88.1165 67.9007 88.6491 67.6389C88.9561 67.4899 89.3218 67.1468 89.7416 66.7541C90.7302 65.8332 92.0844 64.5692 94.3325 64.0275C95.6506 63.7115 96.3729 63.6122 97.0094 63.5219C97.9077 63.3955 98.6119 63.2962 100.616 62.6191C102.25 62.0639 104.386 60.7503 106.453 59.4773C108.697 58.0959 110.633 56.8997 111.667 56.832C112.461 56.7778 112.579 56.6017 112.741 56.3625C112.976 56.0149 113.265 55.586 114.967 55.2926L115.698 55.1662C118.835 54.629 123.58 53.821 125.719 53.1123C127.76 52.4352 130.094 51.4511 130.604 51.2344V49.2346L130.784 49.2482C131.34 49.2933 134.125 49.5371 134.531 50.0878C134.987 50.7017 137.578 53.0807 139.14 52.8459C139.957 52.7241 140.413 52.3223 140.779 51.9973C141.158 51.6587 141.519 51.3427 142.092 51.573C142.499 51.74 142.778 52.0289 143.049 52.3133C143.46 52.7466 143.853 53.1574 144.715 53.2297C145.469 53.2929 146.114 53.672 146.796 54.0693C147.545 54.5072 148.317 54.9586 149.292 55.0263C150.602 55.1166 151.969 55.4912 153.292 55.8569C153.91 56.0284 154.493 56.1909 155.039 56.3128C159.129 57.2292 159.129 57.3059 159.129 57.5046H158.79H158.957L158.84 57.6174C158.601 57.4594 155.861 56.841 154.962 56.6424C154.407 56.516 153.82 56.3535 153.197 56.1819C151.893 55.8208 150.543 55.4461 149.265 55.3603C148.214 55.2881 147.405 54.8141 146.625 54.3582C145.975 53.979 145.365 53.6179 144.688 53.5637C143.695 53.4779 143.225 52.9814 142.806 52.5435C142.548 52.2726 142.309 52.0199 141.966 51.8799C141.605 51.7355 141.397 51.8935 141.004 52.2456C140.603 52.5977 140.106 53.0401 139.194 53.1755C137.37 53.4554 134.68 50.8371 134.265 50.2819C134.044 49.984 132.251 49.7086 130.947 49.5958V51.4511L130.848 51.4962C130.82 51.5052 128.144 52.6654 125.837 53.4283C123.675 54.1415 118.917 54.9541 115.766 55.4912L115.034 55.6176C113.473 55.884 113.224 56.2496 113.03 56.543C112.804 56.8771 112.592 57.1028 111.698 57.1615C110.746 57.2247 108.751 58.4571 106.638 59.7571C104.557 61.0392 102.404 62.3663 100.734 62.9351C98.7022 63.6258 97.9799 63.7251 97.0681 63.8515C96.4406 63.9373 95.7274 64.0411 94.4228 64.3525C92.2605 64.8717 90.9423 66.0995 89.9808 66.9978C89.5204 67.4267 89.1547 67.7653 88.8026 67.9368C88.1661 68.2483 87.2814 68.0497 86.2566 67.8194C85.4757 67.6434 84.5909 67.4402 83.6791 67.4402H75.6709C73.0708 67.4402 70.8317 67.8239 67.4461 68.4063C66.8683 68.5056 66.2499 68.6094 65.5953 68.7223C64.6654 68.8803 63.9883 68.9389 63.4782 68.9389" fill="white"/>
<path d="M10.2204 97.2021C10.2204 97.658 9.85023 98.4751 9.56584 98.4751C9.28145 98.4751 8.96997 98.4254 8.77586 98.281C8.71718 98.8407 8.59078 99.4818 8.27479 100.132C7.78275 101.143 6.67678 102.159 4.73117 102.159C2.65466 102.159 1.73828 100.877 1.73828 99.2561C1.73828 98.3352 1.98205 97.5723 2.29804 96.8229L2.79911 96.6559C2.60049 97.1209 2.41089 97.8431 2.41089 98.4029C2.41089 99.396 2.86682 100.502 5.06973 100.502C7.56607 100.502 8.16645 98.9401 8.16645 98.7053C8.16645 98.5789 7.94526 97.7709 7.09659 96.701L7.71503 95.3648H7.81886C8.12131 96.0013 8.64947 96.8997 10.0353 96.8997C10.1662 96.8997 10.2204 97.0261 10.2204 97.2021ZM4.46032 94.1912C4.97042 94.3311 5.43087 94.611 5.77846 94.9225C5.71074 95.3107 5.45344 95.7711 5.20967 96.1232C4.88465 95.8749 4.38358 95.5635 3.91862 95.4687L4.45581 94.1957L4.46032 94.1912Z" fill="white"/>
<path d="M9.90949 98.4796H9.53933C9.41294 98.4796 9.36328 98.3487 9.36328 98.1772C9.36328 97.7258 9.73796 96.9042 10.0269 96.9042H10.397C11.7468 96.9042 12.2117 96.4257 12.2117 96.3219C12.2117 96.1007 11.9093 95.2294 11.2457 94.6471L11.9183 93.3064C12.627 93.97 12.8256 94.6922 12.8256 95.5093C12.8256 95.9427 12.7354 96.6649 12.3923 97.2789C12.0041 97.956 11.1554 98.4796 9.91401 98.4796M10.9207 101.36C10.6904 101.129 10.1262 100.859 9.74699 100.813L10.4331 99.7752C10.8891 99.87 11.2818 100.046 11.6339 100.326L10.9207 101.355V101.36ZM12.776 101.278C12.5458 101.048 11.9815 100.777 11.6023 100.732L12.2885 99.6939C12.7444 99.7887 13.1371 99.9648 13.4892 100.249L12.776 101.278Z" fill="white"/>
<path d="M15.2578 95.8389C15.2442 95.9653 15.2352 96.0692 15.2352 96.1685C15.2352 96.7463 15.3977 97.0036 16.4224 97.0036C17.6593 97.0036 18.0791 96.5612 18.0791 96.4303C18.0791 96.1865 17.4832 94.1958 17.2259 93.302C17.2485 92.9634 17.6096 92.2727 17.8579 91.9026C18.0656 92.5571 18.2687 93.2613 18.6389 94.5253C19.2122 96.5206 19.4559 96.8998 20.5935 96.8998C20.7334 96.8998 20.7831 97.0307 20.7831 97.2067C20.7831 97.6581 20.4129 98.4752 20.1285 98.4752C18.7923 98.4752 18.4267 97.4595 18.3093 97.0036C18.2506 97.3783 18.1423 97.7755 17.9798 97.9606C17.736 98.2405 17.086 98.5926 16.2193 98.5926C15.181 98.5926 14.707 98.1818 14.707 97.3196C14.707 96.7598 14.8154 96.2723 14.8831 95.9337L15.2578 95.8389Z" fill="white"/>
<path d="M27.5851 96.9042C27.716 96.9042 27.7747 97.0306 27.7747 97.2067C27.7747 97.6626 27.4045 98.4797 27.1201 98.4797H26.8267C25.5176 98.4797 24.836 98.2946 24.0505 97.6175C23.1793 98.1863 22.1275 98.4797 20.5204 98.4797H20.1232C19.9923 98.4797 19.9336 98.3533 19.9336 98.1863C19.9336 97.7303 20.3083 96.9042 20.5972 96.9042H20.8184C21.7483 96.9042 22.5518 96.823 23.1928 96.5882C22.6601 95.8118 21.7934 94.5253 21.2246 94.5253C21.0576 94.5253 20.85 94.5524 20.85 94.5524L20.7777 94.2409L21.4188 93.1801C21.974 92.9318 23.2966 92.7332 24.2266 92.7332C25.6124 92.7332 26.7545 93.0627 26.7545 93.9791C26.7545 94.8954 26.1225 95.9608 25.3461 96.6379C25.8336 96.8591 26.5423 96.9042 27.409 96.9042H27.5941H27.5851ZM26.0819 94.5298C26.0819 94.3041 25.2468 94.0648 24.3439 94.0648C23.3689 94.0648 22.6286 94.1596 22.2268 94.2951C22.9716 94.5072 23.879 95.7983 24.3349 96.1323C25.4048 95.5816 26.0819 94.769 26.0819 94.5343" fill="white"/>
<path d="M32.2344 97.2066C32.2344 97.6625 31.8643 98.4796 31.5799 98.4796C30.3249 98.4796 29.8194 97.9469 29.6207 97.4233C29.3499 97.8792 28.7044 98.4796 27.1244 98.4796C26.9845 98.4796 26.9258 98.3622 26.9258 98.1862C26.9258 97.7303 27.3005 96.9042 27.5894 96.9042C29.0474 96.9042 29.535 96.3715 29.7787 95.4957L30.176 95.3919C30.1534 95.4732 30.1399 95.5905 30.1399 95.7395C30.1399 96.6785 31.1556 96.9042 32.0539 96.9042C32.1848 96.9042 32.239 97.0351 32.239 97.2066M28.8849 94.4846C28.6547 94.2543 28.0904 93.9835 27.7112 93.9384L28.3974 92.9001C28.8533 92.9949 29.2461 93.1709 29.5982 93.4508L28.8849 94.4846ZM30.7448 94.4033C30.5145 94.1731 29.9503 93.9022 29.5711 93.8571L30.2572 92.8188C30.7132 92.9136 31.1059 93.0897 31.458 93.3741L30.7448 94.4033Z" fill="white"/>
<path d="M31.3789 98.1862C31.3789 97.7302 31.7536 96.9042 32.0425 96.9042C33.3335 96.9042 33.5999 96.3083 33.5999 96.1593C33.5999 94.304 33.4599 91.2614 33.4599 90.6701C33.4599 90.3496 33.5096 90.1916 33.6224 89.9569C33.8346 89.5054 33.9475 89.2797 34.2138 88.6794L34.5524 88.5078C34.5027 88.729 34.4801 89.4468 34.4801 90.3496C34.4801 91.3066 34.5388 94.3898 34.5614 95.1843C34.593 96.71 35.5049 96.9042 36.358 96.9042C36.4889 96.9042 36.5431 97.0351 36.5431 97.2111C36.5431 97.6625 36.1729 98.4796 35.8886 98.4796C34.8503 98.4796 34.2319 97.9876 33.8978 97.3465C33.478 98.0327 32.7918 98.4796 31.5775 98.4796C31.4466 98.4796 31.3879 98.3622 31.3879 98.1862" fill="white"/>
<path d="M35.6797 98.1773C35.6797 97.7259 36.0544 96.9043 36.3433 96.9043C37.6343 96.9043 37.9413 96.3942 37.9413 96.2813C37.9413 94.8819 37.7427 91.6814 37.7427 90.7109C37.7427 90.3994 37.7878 90.2369 37.8916 90.0112C38.0767 89.6049 38.2302 89.2663 38.474 88.675L38.7899 88.5034C38.7674 88.6208 38.7538 88.8646 38.7538 89.2437C38.7538 90.5258 38.8802 93.1936 38.8802 94.092C38.8802 94.8639 38.799 95.69 38.659 96.2226C38.3476 97.3512 37.7246 98.4797 35.8738 98.4797C35.7429 98.4797 35.6842 98.3533 35.6842 98.1773" fill="white"/>
<path d="M48.0879 91.2615C48.0293 91.5052 47.9977 92.0199 47.9977 92.5435C47.9977 93.0672 47.9977 94.7103 48.0112 95.1076C48.0563 96.6469 48.6793 96.8997 49.8304 96.8997C49.9613 96.8997 50.0155 97.0306 50.0155 97.2021C50.0155 97.6581 49.6453 98.4751 49.3609 98.4751C48.1511 98.4751 47.3792 97.965 47.1941 96.832C46.8781 97.649 46.2371 98.1862 45.1808 98.1862C44.1245 98.1862 43.6641 97.5136 43.6641 96.674C43.6641 95.0263 45.1176 93.7714 46.9143 93.2477C46.9052 93.1981 46.9007 93.1213 46.9007 93.0401C46.9097 92.8279 46.9459 92.7421 47.0316 92.5706C47.2438 92.1418 47.4514 91.8574 47.7539 91.415L48.0879 91.2615ZM44.2915 96.1864C44.2915 96.4212 44.7791 96.7011 45.4788 96.7011C46.35 96.7011 47.1219 96.3625 47.1219 95.735C47.1219 95.3603 47.0948 94.4891 47.0768 94.4395C45.6006 94.7058 44.2915 95.8253 44.2915 96.1864ZM46.0882 90.2458C45.8579 90.0156 45.2937 89.7447 44.9145 89.6996L45.6006 88.6613C46.0566 88.7561 46.4493 88.9322 46.8014 89.2166L46.0882 90.2458ZM47.948 90.1645C47.7178 89.9343 47.1535 89.6635 46.7743 89.6183L47.4605 88.5801C47.9164 88.6749 48.3091 88.8509 48.6612 89.1308L47.948 90.1645Z" fill="white"/>
<path d="M54.4766 97.2021C54.4766 97.6581 54.1065 98.4751 53.8221 98.4751C52.5671 98.4751 52.0615 97.9425 51.8629 97.4188C51.5921 97.8748 50.9466 98.4751 49.3666 98.4751C49.2267 98.4751 49.168 98.3578 49.168 98.1817C49.168 97.7258 49.5426 96.8997 49.8316 96.8997C51.2896 96.8997 51.7772 96.367 52.0209 95.4913L52.4182 95.3875C52.3956 95.4687 52.3821 95.5861 52.3821 95.735C52.3821 96.674 53.3977 96.8997 54.2961 96.8997C54.427 96.8997 54.4811 97.0306 54.4811 97.2021M51.0865 101.396C50.8563 101.166 50.292 100.895 49.9128 100.85L50.599 99.8113C51.0549 99.9061 51.4476 100.087 51.7997 100.367L51.0865 101.396ZM52.9418 101.315C52.7116 101.084 52.1473 100.813 51.7726 100.768L52.4588 99.7301C52.9147 99.8249 53.3075 100.001 53.6596 100.281L52.9463 101.315H52.9418Z" fill="white"/>
<path d="M53.8158 98.4797C53.6759 98.4797 53.6172 98.3533 53.6172 98.1863C53.6172 97.7304 53.9919 96.9043 54.2808 96.9043H54.4072C56.6236 96.9043 58.0546 96.2407 59.6617 95.2295C58.497 94.9497 56.9712 94.2635 56.3167 94.2635C55.7479 94.2635 55.468 94.5795 55.2603 95.1393L54.9308 94.7917C55.3642 93.4961 55.7479 93.0627 56.5469 93.0627C57.7792 93.0627 59.9596 94.3357 61.8149 94.3357L61.1062 95.5591C60.885 95.5184 60.7902 95.5049 60.6864 95.5049C60.3388 95.5049 59.8558 95.8164 59.3592 96.1685C59.8377 96.7734 61.3183 96.8998 62.0722 96.8998H62.1986C62.3295 96.8998 62.3882 97.0307 62.3882 97.2022C62.3882 97.6582 62.018 98.4752 61.7337 98.4752H61.5847C60.0815 98.4752 59.0206 97.7665 58.673 96.6921C57.4362 97.6582 55.7479 98.4752 54.1183 98.4752H53.8158V98.4797ZM58.0862 101.369C57.8334 101.121 57.2014 100.809 56.7816 100.764L57.549 99.6083C58.0591 99.7121 58.4925 99.9107 58.8852 100.222L58.0907 101.369H58.0862Z" fill="white"/>
<path d="M66.8438 97.2021C66.8438 97.6581 66.4737 98.4751 66.1893 98.4751C64.9343 98.4751 64.4287 97.9425 64.2301 97.4188C63.9593 97.8748 63.3183 98.4751 61.7338 98.4751C61.5938 98.4751 61.5352 98.3578 61.5352 98.1817C61.5352 97.7258 61.9098 96.8997 62.1987 96.8997C63.6568 96.8997 64.1443 96.367 64.3881 95.4913L64.7854 95.3875C64.7628 95.4687 64.7492 95.5861 64.7492 95.735C64.7492 96.674 65.7649 96.8997 66.6632 96.8997C66.7942 96.8997 66.8483 97.0306 66.8483 97.2021M63.4537 101.396C63.2235 101.166 62.6592 100.895 62.28 100.85L62.9661 99.8113C63.4221 99.9061 63.8148 100.087 64.1669 100.367L63.4537 101.396ZM65.3135 101.315C65.0833 101.084 64.519 100.813 64.1398 100.768L64.826 99.7301C65.2819 99.8249 65.6746 100.001 66.0268 100.281L65.3135 101.315Z" fill="white"/>
<path d="M65.9883 98.1862C65.9883 97.7302 66.363 96.9042 66.6519 96.9042C67.9429 96.9042 68.2092 96.3083 68.2092 96.1593C68.2092 94.304 68.0693 91.2614 68.0693 90.6701C68.0693 90.3496 68.119 90.1916 68.2318 89.9569C68.444 89.5054 68.5568 89.2797 68.8232 88.6794L69.1617 88.5078C69.1121 88.729 69.0895 89.4468 69.0895 90.3496C69.0895 91.3066 69.1482 94.3898 69.1708 95.1843C69.2024 96.71 70.1142 96.9042 70.9674 96.9042C71.0983 96.9042 71.1525 97.0351 71.1525 97.2111C71.1525 97.6625 70.7823 98.4796 70.4979 98.4796C69.4597 98.4796 68.8367 97.9876 68.5072 97.3465C68.0874 98.0327 67.4012 98.4796 66.1869 98.4796C66.056 98.4796 65.9973 98.3622 65.9973 98.1862" fill="white"/>
<path d="M70.4916 98.4796C70.3517 98.4796 70.293 98.3532 70.293 98.1861C70.293 97.7302 70.6676 96.9041 70.9566 96.9041H71.0829C73.2994 96.9041 74.7304 96.2405 76.3374 95.2294C75.1728 94.9495 73.647 94.2633 72.9924 94.2633C72.4237 94.2633 72.1438 94.5793 71.9406 95.1391L71.6066 94.7915C72.04 93.4959 72.4236 93.058 73.2227 93.058C74.455 93.058 76.6354 94.331 78.4907 94.331L77.782 95.5544C77.5608 95.5183 77.466 95.5002 77.3622 95.5002C77.0146 95.5002 76.5315 95.8117 76.035 96.1638C76.5135 96.7687 77.9941 96.8951 78.748 96.8951H78.8744C79.0053 96.8951 79.064 97.026 79.064 97.1975C79.064 97.6535 78.6938 98.4705 78.4094 98.4705H78.2605C76.7572 98.4705 75.6964 97.7618 75.3488 96.6874C74.1119 97.6535 72.4237 98.4705 70.794 98.4705H70.4916V98.4796ZM74.8252 91.7625C74.5724 91.5142 73.9404 91.2027 73.5206 91.1576L74.288 90.002C74.7981 90.1058 75.2315 90.3044 75.6242 90.6159L74.8297 91.7625H74.8252Z" fill="white"/>
<path d="M78.2031 98.1773C78.2031 97.7259 78.5778 96.9043 78.8667 96.9043C80.1578 96.9043 80.4647 96.3942 80.4647 96.2813C80.4647 94.8819 80.2661 91.6814 80.2661 90.7109C80.2661 90.3994 80.3112 90.2369 80.4151 90.0112C80.6001 89.6049 80.7536 89.2663 80.9974 88.675L81.3134 88.5034C81.2908 88.6208 81.2773 88.8646 81.2773 89.2437C81.2773 90.5258 81.4037 93.1936 81.4037 94.092C81.4037 94.8639 81.3224 95.69 81.1825 96.2226C80.871 97.3512 80.248 98.4797 78.3972 98.4797C78.2663 98.4797 78.2076 98.3533 78.2076 98.1773" fill="white"/>
<path d="M84.3211 88.5168C84.2985 88.5981 84.285 88.878 84.285 89.2707C84.285 90.6836 84.4159 93.5953 84.4159 94.5387C84.4159 97.1389 84.1405 97.5091 83.6846 98.7414L83.3144 98.9039C83.4182 98.615 83.4182 97.7257 83.4182 97.333C83.4182 95.085 83.2422 92.8369 83.2422 90.7243C83.2422 90.4128 83.3099 90.2006 83.3912 90.0155C83.5582 89.6544 83.7749 89.1985 84.0006 88.6884L84.3166 88.5168H84.3211Z" fill="white"/>
<path d="M91.3798 95.4913L91.9486 94.1145C92.8649 94.8007 93.3841 96.2362 93.3841 97.4956C93.3841 100.922 91.5919 102.041 90.3912 102.041C89.4613 102.041 89.0324 101.387 88.5765 101.157L88.4727 100.795C88.6939 100.841 88.7616 100.863 88.9828 100.863C91.6732 100.863 92.8514 98.43 92.8514 97.9741C92.8514 97.7033 92.3955 96.358 91.3753 95.4913" fill="white"/>
<path d="M96.7867 98.597C95.446 98.597 95.1797 97.9334 95.1797 97.1389C95.1797 96.7507 95.2023 96.543 95.3196 95.9246L95.7169 95.7937C95.7033 95.911 95.6808 96.0826 95.6808 96.209C95.6808 96.7371 95.8523 97.026 96.9989 97.026C98.5111 97.026 99.0258 96.4572 99.0258 96.3399C99.0032 96.06 98.6421 94.5342 96.4707 93.3786L96.8815 92.1191C98.8362 93.1303 99.6171 94.3898 99.6171 95.744C99.6171 96.3038 99.4907 96.9899 99.2876 97.4323C98.9716 98.1185 98.0417 98.606 96.7867 98.606" fill="white"/>
<path d="M104.56 97.2112C104.56 97.6627 104.19 98.4797 103.906 98.4797C102.425 98.4797 101.725 97.7665 101.622 95.4507C101.554 93.961 101.531 91.0043 101.531 90.5709C101.531 90.3181 101.626 90.0744 101.721 89.8712C101.919 89.4514 102.073 89.0948 102.272 88.675L102.61 88.5034C102.538 88.7111 102.506 89.9705 102.506 91.3789C102.506 92.7874 102.538 94.3402 102.574 95.1167C102.642 96.656 103.215 96.8998 104.371 96.8998C104.502 96.8998 104.556 97.0307 104.556 97.2067" fill="white"/>
<path d="M103.897 98.4796C103.766 98.4796 103.707 98.3622 103.707 98.1862C103.707 97.7302 104.082 96.9041 104.371 96.9041C105.626 96.9041 106.316 96.2812 106.528 95.1707L106.921 95.0669C106.912 95.112 106.908 95.2158 106.908 95.3106C106.908 95.8659 107.327 96.2541 108.086 96.5656C109.038 95.3784 111.006 93.2251 112.92 93.2251C114.031 93.2251 114.527 93.9113 114.618 94.7012C114.64 94.8863 114.64 95.0624 114.618 95.2474C114.582 95.577 114.455 96.051 114.211 96.5611C114.604 96.8545 115.819 96.9087 116.166 96.9087C116.297 96.9087 116.351 97.0396 116.351 97.2111C116.351 97.667 115.981 98.4841 115.697 98.4841C114.6 98.4841 113.765 98.1546 113.358 97.667C112.672 98.1726 111.589 98.4841 110 98.4841C107.928 98.4841 106.899 97.7934 106.461 97.1795C106.158 97.7257 105.508 98.4841 103.901 98.4841M110.659 96.9448C112.794 96.9448 113.841 96.2315 113.841 95.9471C113.841 95.7124 113.589 94.6741 112.361 94.6741C111.133 94.6741 109.625 95.7034 108.655 96.7597C109.016 96.8635 109.688 96.9448 110.659 96.9448Z" fill="white"/>
<path d="M115.484 98.1862C115.484 97.7348 115.859 96.9042 116.148 96.9042C117.462 96.9042 117.778 96.4663 118.166 95.577C118.689 94.3808 119.321 93.5366 120.193 93.5366C120.856 93.5366 121.357 94.0151 121.985 95.2294C122.684 96.5792 123.113 96.9087 124.174 96.9087C124.314 96.9087 124.364 97.0351 124.364 97.2111C124.364 97.6626 123.994 98.4796 123.709 98.4796C122.937 98.4796 122.346 98.1185 121.89 97.4098H121.854C121.597 98.0824 121.154 98.6241 120.585 98.6241C119.804 98.6241 118.545 98.2043 117.954 97.5497C117.511 98.1907 116.798 98.4796 115.678 98.4796C115.548 98.4796 115.484 98.3623 115.484 98.1862ZM120.983 97.1795C121.086 97.1931 121.172 97.1931 121.253 97.1886C121.357 97.1795 121.384 97.0712 121.384 96.99C121.384 96.0239 120.346 94.7058 119.728 94.7058C119.159 94.7058 118.717 95.744 118.531 96.2451C119.033 96.7372 120.22 97.1299 120.978 97.1795" fill="white"/>
<path d="M123.508 98.1773C123.508 97.7259 123.882 96.9043 124.171 96.9043C125.462 96.9043 125.769 96.3942 125.769 96.2813C125.769 94.8819 125.571 91.6814 125.571 90.7109C125.571 90.3994 125.616 90.2369 125.72 90.0112C125.905 89.6049 126.058 89.2663 126.302 88.675L126.618 88.5034C126.595 88.6208 126.582 88.8646 126.582 89.2437C126.582 90.5258 126.708 93.1936 126.708 94.092C126.708 94.8639 126.627 95.69 126.487 96.2226C126.176 97.3512 125.553 98.4797 123.702 98.4797C123.571 98.4797 123.512 98.3533 123.512 98.1773" fill="white"/>
<path d="M129.622 88.5168C129.599 88.5981 129.586 88.878 129.586 89.2707C129.586 90.6836 129.717 93.5953 129.717 94.5387C129.717 97.1389 129.441 97.5091 128.985 98.7414L128.615 98.9039C128.719 98.615 128.719 97.7257 128.719 97.333C128.719 95.085 128.543 92.8369 128.543 90.7243C128.543 90.4128 128.611 90.2006 128.692 90.0155C128.863 89.6544 129.076 89.1985 129.301 88.6884L129.617 88.5168H129.622Z" fill="white"/>
<path d="M138.935 91.2615C138.876 91.5052 138.849 92.0199 138.849 92.5435C138.849 93.0672 138.849 94.7103 138.863 95.1076C138.908 96.6469 139.531 96.8997 140.682 96.8997C140.813 96.8997 140.867 97.0306 140.867 97.2021C140.867 97.6581 140.497 98.4751 140.212 98.4751C139.003 98.4751 138.231 97.965 138.046 96.832C137.73 97.649 137.089 98.1862 136.032 98.1862C134.976 98.1862 134.516 97.5136 134.516 96.674C134.516 95.0263 135.969 93.7714 137.766 93.2477C137.757 93.1981 137.752 93.1213 137.752 93.0401C137.761 92.8279 137.797 92.7421 137.883 92.5706C138.095 92.1418 138.303 91.8574 138.605 91.415L138.935 91.2615ZM135.143 96.1864C135.143 96.4212 135.631 96.7011 136.33 96.7011C137.202 96.7011 137.973 96.3625 137.973 95.735C137.973 95.3603 137.942 94.4891 137.928 94.4395C136.452 94.7058 135.143 95.8253 135.143 96.1864ZM136.94 90.2458C136.71 90.0156 136.145 89.7447 135.766 89.6996L136.452 88.6613C136.908 88.7561 137.301 88.9322 137.653 89.2166L136.94 90.2458ZM138.795 90.1645C138.565 89.9343 138.001 89.6635 137.621 89.6183L138.308 88.5801C138.763 88.6749 139.156 88.8509 139.508 89.1308L138.795 90.1645Z" fill="white"/>
<path d="M141.966 92.0469C142.422 92.3132 142.918 92.6202 143.419 93.0355C144.467 93.9067 144.99 94.5116 144.99 95.261C144.99 95.7079 144.9 96.218 144.719 96.6739C144.268 97.816 143.126 98.4796 140.494 98.4796H140.205C140.074 98.4796 140.016 98.3532 140.016 98.1771C140.016 97.7257 140.39 96.9041 140.679 96.9041H140.909C143.907 96.9041 144.381 96.051 144.381 95.9155C144.381 95.6221 143.311 94.1054 140.548 92.5931C141.122 91.3201 141.248 91.2298 142.11 90.7739C143.546 90.0155 145.536 89.2346 146.841 88.6929L146.232 90.0877C144.625 90.7197 142.923 91.4284 142.002 91.9611L141.975 92.0469H141.966Z" fill="white"/>
<path d="M148.582 98.281C148.469 101.053 146.88 102.046 145.774 102.046C144.844 102.046 144.401 101.418 143.932 101.17L143.828 100.809C144.049 100.854 144.189 100.877 144.41 100.877C146.952 100.877 148.044 98.755 148.058 98.4165C148.058 98.1908 147.625 97.5904 146.862 96.7011L147.534 95.3965C147.918 96.0962 148.451 96.9087 149.855 96.9087C149.994 96.9087 150.044 97.0351 150.044 97.2112C150.044 97.6671 149.669 98.4842 149.39 98.4842C149.2 98.4842 148.762 98.4029 148.577 98.2856" fill="white"/>
<path d="M155.75 95.3017L156.17 95.2069C156.148 95.3017 156.134 95.6222 156.134 95.717C156.134 96.2542 156.527 96.8049 157.344 96.8049C158.03 96.8049 158.301 96.3761 158.301 96.2316C158.301 96.0014 157.999 95.1482 157.367 94.5885L158.008 93.329C158.649 93.8752 158.919 94.8097 158.919 95.5048C158.919 97.1706 158.057 98.3939 156.843 98.3939C155.967 98.3939 155.57 97.9786 155.362 97.622C155.06 98.0418 154.45 98.4842 153.385 98.4842C152.536 98.4842 151.999 98.1095 151.792 97.6536C151.43 98.096 150.821 98.4842 149.751 98.4842H149.381C149.25 98.4842 149.191 98.3578 149.191 98.1908C149.191 97.7348 149.566 96.9087 149.855 96.9087H149.995C151.354 96.9087 151.859 96.3761 152.162 95.5455L152.559 95.4371C152.545 95.5048 152.536 95.726 152.536 95.7983C152.536 96.367 152.925 96.9042 153.909 96.9042C155.073 96.9042 155.493 96.2316 155.75 95.3152M154.252 93.9249C154.022 93.7037 153.471 93.4374 153.11 93.3922L153.773 92.3901C154.225 92.4803 154.599 92.6474 154.938 92.9227L154.252 93.9249ZM155.055 92.2456C154.825 92.0154 154.261 91.7445 153.882 91.7084L154.568 90.6792C155.024 90.774 155.416 90.9455 155.764 91.2164L155.055 92.2501V92.2456ZM156.076 93.8436C155.845 93.6224 155.295 93.3561 154.933 93.32L155.597 92.3088C156.044 92.4036 156.423 92.5751 156.762 92.837L156.076 93.8391V93.8436Z" fill="white"/>
</g>
<defs>
<clipPath id="clip0_5125_1643">
<rect width="160" height="102.106" fill="white" transform="translate(0.816406 0.057373)"/>
</clipPath>
</defs>
</svg>
