<svg width="223" height="42" viewBox="0 0 223 42" fill="none" xmlns="http://www.w3.org/2000/svg">
<g clip-path="url(#clip0_5120_1207)">
<path d="M26.6094 41.076V9.29709H32.1664V12.3168H32.3362C32.5685 11.7808 32.8901 11.2626 33.3189 10.7712C33.7478 10.2709 34.2838 9.86887 34.945 9.54724C35.6061 9.23455 36.4012 9.07373 37.3215 9.07373C38.5454 9.07373 39.689 9.39536 40.7611 10.0386C41.8243 10.6819 42.6909 11.6736 43.352 13.0137C44.0132 14.3538 44.3437 16.0603 44.3437 18.133C44.3437 20.2057 44.031 21.796 43.3967 23.1451C42.7624 24.4941 41.9136 25.5037 40.8505 26.1738C39.7873 26.8438 38.5991 27.1833 37.3036 27.1833C36.4191 27.1833 35.6508 27.0404 34.9986 26.7456C34.3464 26.4507 33.8014 26.0755 33.3636 25.602C32.9258 25.1285 32.5863 24.6192 32.3451 24.0742H32.229V41.0849H26.6183L26.6094 41.076ZM32.1039 18.1062C32.1039 19.0532 32.229 19.8841 32.4881 20.581C32.7472 21.2868 33.1135 21.8317 33.6048 22.2159C34.0873 22.6001 34.6769 22.7966 35.3559 22.7966C36.0349 22.7966 36.6335 22.6001 37.116 22.2159C37.5984 21.8317 37.9647 21.2868 38.2149 20.581C38.465 19.8752 38.5901 19.0532 38.5901 18.1062C38.5901 17.1592 38.465 16.3372 38.2149 15.6404C37.9647 14.9435 37.6074 14.4074 37.1249 14.0233C36.6425 13.6391 36.0617 13.4515 35.3649 13.4515C34.668 13.4515 34.0873 13.6391 33.6138 14.0143C33.1313 14.3896 32.765 14.9256 32.5059 15.6225C32.2468 16.3194 32.1218 17.1502 32.1218 18.1151L32.1039 18.1062Z" fill="white"/>
<g style="mix-blend-mode:multiply" opacity="0.46">
<path style="mix-blend-mode:multiply" d="M26.6094 13.5586V38.9495C26.797 39.1818 26.9846 39.4141 27.1722 39.6643C27.5475 39.7626 27.9138 39.8966 28.2622 40.0663H32.22V17.8291C32.1218 17.7577 32.0324 17.6862 31.9431 17.6058C29.9597 16.5605 28.1639 15.1935 26.6094 13.5586Z" fill="url(#paint0_radial_5120_1207)" fill-opacity="0.5"/>
<path style="mix-blend-mode:multiply" d="M32.22 39.8698V22.6805C32.1218 22.609 32.0324 22.5375 31.9431 22.4571C29.9597 21.4118 28.1639 20.0449 26.6094 18.4099V39.8698H32.22Z" fill="url(#paint1_radial_5120_1207)" fill-opacity="0.28"/>
</g>
<path d="M52.8958 3.41846V26.9154H47.2852V3.41846H52.8958Z" fill="white"/>
<path d="M64.6769 27.2547C62.8275 27.2547 61.2373 26.8705 59.9061 26.1111C58.5749 25.3517 57.5564 24.2885 56.8416 22.9216C56.1269 21.5547 55.7695 19.9733 55.7695 18.1686C55.7695 16.3639 56.1269 14.7647 56.8416 13.3978C57.5564 12.0308 58.5749 10.9677 59.9061 10.2083C61.2373 9.44887 62.8186 9.0647 64.6769 9.0647C66.5352 9.0647 68.1166 9.44887 69.4478 10.2083C70.779 10.9677 71.7975 12.0308 72.5122 13.3978C73.2269 14.7647 73.5843 16.355 73.5843 18.1686C73.5843 19.9823 73.2269 21.5636 72.5122 22.9216C71.7975 24.2885 70.779 25.3517 69.4478 26.1111C68.1166 26.8705 66.5352 27.2547 64.6769 27.2547ZM64.7126 23.0199C65.3827 23.0199 65.9545 22.8144 66.4191 22.4034C66.8837 21.9925 67.241 21.4207 67.4912 20.6791C67.7413 19.9376 67.8664 19.0978 67.8664 18.1329C67.8664 17.168 67.7413 16.2925 67.4912 15.5598C67.241 14.8272 66.8837 14.2555 66.4191 13.8356C65.9545 13.4246 65.3827 13.2191 64.7126 13.2191C64.0426 13.2191 63.4261 13.4246 62.9526 13.8356C62.4702 14.2465 62.1128 14.8183 61.8626 15.5598C61.6125 16.2925 61.4874 17.1501 61.4874 18.1329C61.4874 19.1157 61.6125 19.9465 61.8626 20.6791C62.1128 21.4117 62.4702 21.9835 62.9526 22.4034C63.4261 22.8144 64.0158 23.0199 64.7126 23.0199Z" fill="white"/>
<path d="M77.4733 33.2051H76.4727V39.8432H77.4733V33.2051Z" fill="white"/>
<path d="M83.1216 38.0742H83.0591L79.6819 33.2051H78.7617V39.8342H79.7623V34.974H79.8249L83.1931 39.8342H84.1133V33.2051H83.1216V38.0742Z" fill="white"/>
<path d="M85.3906 39.8342H86.3913V36.9485H89.2145V36.0908H86.3913V34.0628H89.5093V33.2051H85.3906V39.8342Z" fill="white"/>
<path d="M94.8695 33.5267C94.4228 33.2497 93.9046 33.1157 93.3328 33.1157C92.761 33.1157 92.2428 33.2497 91.7961 33.5267C91.3494 33.8037 90.992 34.1878 90.733 34.6971C90.4739 35.2063 90.3398 35.8138 90.3398 36.5196C90.3398 37.2254 90.4739 37.833 90.733 38.3422C90.992 38.8515 91.3494 39.2446 91.7961 39.5126C92.2428 39.7896 92.761 39.9236 93.3328 39.9236C93.9046 39.9236 94.4138 39.7896 94.8695 39.5126C95.3162 39.2356 95.6736 38.8515 95.9326 38.3422C96.1917 37.833 96.3168 37.2254 96.3168 36.5196C96.3168 35.8138 96.1917 35.2063 95.9326 34.6971C95.6736 34.1878 95.3162 33.7947 94.8695 33.5267ZM95.066 37.8866C94.8963 38.2618 94.6551 38.5388 94.3513 38.7264C94.0475 38.914 93.708 39.0123 93.3328 39.0123C92.9576 39.0123 92.6091 38.914 92.3054 38.7264C92.0016 38.5388 91.7693 38.2529 91.5906 37.8866C91.4209 37.5203 91.3315 37.0646 91.3315 36.5196C91.3315 35.9747 91.4209 35.528 91.5906 35.1527C91.7604 34.7775 92.0016 34.5005 92.3054 34.3129C92.6091 34.1253 92.9486 34.027 93.3328 34.027C93.717 34.027 94.0565 34.1253 94.3513 34.3129C94.6551 34.5005 94.8873 34.7864 95.066 35.1527C95.2447 35.519 95.3251 35.9747 95.3251 36.5196C95.3251 37.0646 95.2358 37.5113 95.066 37.8866Z" fill="white"/>
<path d="M101.034 37.0736C101.373 36.9038 101.632 36.6626 101.802 36.3588C101.972 36.0551 102.061 35.6977 102.061 35.2867C102.061 34.8758 101.981 34.5184 101.811 34.2057C101.641 33.893 101.391 33.6518 101.051 33.4731C100.712 33.2944 100.283 33.2051 99.7738 33.2051H97.4062V39.8432H98.4069V37.3327H99.7649C99.7649 37.3327 99.8006 37.3327 99.8274 37.3327L101.176 39.8521H102.32L100.846 37.154C100.908 37.1272 100.989 37.1183 101.051 37.0825L101.034 37.0736ZM98.389 34.0628H99.6487C99.9793 34.0628 100.247 34.1074 100.453 34.2146C100.658 34.3129 100.81 34.4559 100.9 34.6345C100.998 34.8222 101.042 35.0366 101.042 35.2867C101.042 35.5369 100.998 35.7513 100.9 35.9211C100.801 36.0998 100.658 36.2338 100.453 36.3231C100.247 36.4125 99.9882 36.4661 99.6577 36.4661H98.389V34.0628Z" fill="white"/>
<path d="M106.49 38.3601H106.418L104.301 33.2051H103.086V39.8342H104.042V35.0366H104.104L106.061 39.8253H106.847L108.804 35.0366H108.866V39.8342H109.822V33.2051H108.607L106.49 38.3601Z" fill="white"/>
<path d="M112.102 36.9485H115.042V36.0908H112.102V34.0628H115.256V33.2051H111.102V39.8342H115.301V38.9766H112.102V36.9485Z" fill="white"/>
<path d="M120.313 33.5982C119.849 33.3302 119.286 33.2051 118.634 33.2051H116.418V39.8432H118.562C119.232 39.8432 119.813 39.7092 120.286 39.4411C120.76 39.1731 121.126 38.7889 121.376 38.2976C121.627 37.8062 121.752 37.2076 121.752 36.5197C121.752 35.8317 121.627 35.2421 121.376 34.7418C121.126 34.2414 120.769 33.8662 120.304 33.6071L120.313 33.5982ZM120.528 37.8419C120.358 38.2082 120.108 38.4852 119.777 38.6728C119.438 38.8604 119.018 38.9587 118.518 38.9587H117.428V34.0717H118.58C119.062 34.0717 119.465 34.17 119.795 34.3576C120.126 34.5452 120.367 34.8222 120.537 35.1795C120.697 35.5458 120.787 35.9836 120.787 36.5018C120.787 37.02 120.706 37.4667 120.537 37.833L120.528 37.8419Z" fill="white"/>
<path d="M128.996 36.6984C128.808 36.5555 128.603 36.4393 128.38 36.35C128.156 36.2607 127.942 36.1892 127.727 36.1356L127.084 35.9658C126.95 35.9301 126.816 35.8944 126.682 35.8407C126.548 35.7871 126.414 35.7246 126.289 35.6531C126.164 35.5727 126.066 35.4834 125.994 35.3672C125.923 35.2511 125.887 35.1171 125.887 34.9563C125.887 34.7686 125.94 34.5989 126.048 34.456C126.155 34.3041 126.307 34.1879 126.512 34.1075C126.718 34.0271 126.95 33.9824 127.218 33.9824C127.593 33.9824 127.915 34.0628 128.165 34.2415C128.415 34.4113 128.558 34.6525 128.594 34.9563H129.559C129.559 34.5989 129.443 34.2862 129.246 34.0092C129.05 33.7323 128.773 33.5179 128.433 33.357C128.094 33.1962 127.692 33.1248 127.245 33.1248C126.798 33.1248 126.396 33.2052 126.048 33.366C125.699 33.5268 125.413 33.7501 125.208 34.036C125.002 34.3219 124.895 34.6525 124.895 35.0367C124.895 35.5012 125.047 35.8676 125.36 36.1534C125.672 36.4304 126.092 36.6448 126.619 36.7878L127.406 37.0022C127.647 37.0647 127.852 37.1362 128.049 37.2166C128.237 37.297 128.388 37.4042 128.496 37.5293C128.603 37.6544 128.665 37.8152 128.665 38.0118C128.665 38.2262 128.603 38.4138 128.478 38.5746C128.353 38.7354 128.174 38.8605 127.96 38.9498C127.736 39.0392 127.486 39.0839 127.2 39.0839C126.941 39.0839 126.709 39.0481 126.494 38.9677C126.28 38.8962 126.101 38.7712 125.967 38.6193C125.833 38.4674 125.753 38.2619 125.735 38.0207H124.734C124.752 38.4227 124.868 38.7622 125.074 39.0571C125.279 39.3519 125.565 39.5752 125.923 39.7271C126.289 39.8879 126.718 39.9594 127.209 39.9594C127.701 39.9594 128.174 39.879 128.531 39.7092C128.898 39.5395 129.175 39.3072 129.371 39.0213C129.568 38.7265 129.657 38.3959 129.657 38.0207C129.657 37.7259 129.595 37.4668 129.478 37.2523C129.362 37.0379 129.21 36.8592 129.014 36.7163L128.996 36.6984Z" fill="white"/>
<path d="M130.32 34.0628H132.393V39.8342H133.385V34.0628H135.457V33.2051H130.32V34.0628Z" fill="white"/>
<path d="M140.049 37.0736C140.389 36.9038 140.648 36.6626 140.817 36.3588C140.987 36.0551 141.077 35.6977 141.077 35.2867C141.077 34.8758 140.996 34.5184 140.826 34.2057C140.657 33.893 140.407 33.6518 140.067 33.4731C139.728 33.2944 139.299 33.2051 138.789 33.2051H136.422V39.8432H137.422V37.3327H138.78C138.78 37.3327 138.816 37.3327 138.843 37.3327L140.192 39.8521H141.336L139.862 37.154C139.924 37.1272 140.004 37.1183 140.067 37.0825L140.049 37.0736ZM137.414 34.0628H138.673C139.004 34.0628 139.272 34.1074 139.477 34.2146C139.683 34.3129 139.835 34.4559 139.924 34.6345C140.022 34.8222 140.067 35.0366 140.067 35.2867C140.067 35.5369 140.022 35.7513 139.924 35.9211C139.826 36.0998 139.683 36.2338 139.477 36.3231C139.272 36.4125 139.013 36.4661 138.682 36.4661H137.414V34.0628Z" fill="white"/>
<path d="M143.999 33.2051L141.613 39.8432H142.676L143.284 38.0921H145.875L146.482 39.8432H147.546L145.16 33.2051H144.008H143.999ZM143.57 37.2433L144.553 34.4112H144.606L145.58 37.2433H143.57Z" fill="white"/>
<path d="M147.203 34.0628H149.267V39.8342H150.268V34.0628H152.331V33.2051H147.203V34.0628Z" fill="white"/>
<path d="M154.29 36.9485H157.229V36.0908H154.29V34.0628H157.443V33.2051H153.289V39.8342H157.488V38.9766H154.29V36.9485Z" fill="white"/>
<path d="M161.56 37.2702H163.195C163.195 37.6097 163.115 37.9135 162.981 38.1726C162.829 38.4406 162.623 38.6461 162.355 38.798C162.087 38.9409 161.774 39.0213 161.408 39.0213C161.024 39.0213 160.676 38.923 160.372 38.7354C160.068 38.5389 159.827 38.2619 159.657 37.8867C159.478 37.5114 159.398 37.0647 159.398 36.5197C159.398 35.9748 159.487 35.5281 159.657 35.1617C159.827 34.7865 160.068 34.5096 160.372 34.313C160.676 34.1254 161.006 34.0271 161.381 34.0271C161.605 34.0271 161.801 34.0539 161.989 34.1165C162.176 34.179 162.337 34.2594 162.48 34.3755C162.623 34.4828 162.748 34.6168 162.855 34.7776C162.963 34.9384 163.043 35.1081 163.106 35.3047H164.133C164.079 34.9831 163.972 34.6882 163.811 34.4202C163.651 34.1522 163.454 33.9199 163.204 33.7323C162.963 33.5357 162.686 33.3838 162.373 33.2856C162.06 33.1784 161.73 33.1248 161.372 33.1248C160.944 33.1248 160.55 33.2052 160.184 33.357C159.827 33.5179 159.505 33.7412 159.246 34.036C158.987 34.3309 158.773 34.6882 158.63 35.1081C158.487 35.5281 158.406 36.0016 158.406 36.5376C158.406 37.2345 158.531 37.842 158.781 38.3513C159.032 38.8605 159.389 39.2536 159.836 39.5306C160.291 39.8075 160.818 39.9415 161.417 39.9415C161.953 39.9415 162.427 39.8343 162.847 39.611C163.258 39.3876 163.588 39.0749 163.82 38.664C164.053 38.253 164.178 37.7705 164.178 37.2166V36.4661H161.569V37.2881L161.56 37.2702Z" fill="white"/>
<path d="M166.262 33.2051H165.262V39.8432H166.262V33.2051Z" fill="white"/>
<path d="M169.298 34.313C169.601 34.1254 169.941 34.0271 170.325 34.0271C170.539 34.0271 170.736 34.0539 170.924 34.1165C171.111 34.179 171.281 34.2594 171.442 34.3755C171.594 34.4917 171.728 34.6257 171.826 34.7954C171.924 34.9652 172.005 35.1528 172.04 35.3672H173.05C172.996 35.0099 172.889 34.6972 172.728 34.4202C172.567 34.1433 172.371 33.911 172.121 33.7144C171.88 33.5179 171.603 33.3749 171.299 33.2766C170.995 33.1784 170.664 33.1248 170.316 33.1248C169.744 33.1248 169.235 33.2588 168.788 33.5357C168.342 33.8127 167.984 34.1969 167.725 34.7061C167.466 35.2154 167.332 35.8229 167.332 36.5287C167.332 37.2345 167.457 37.842 167.716 38.3513C167.975 38.8605 168.324 39.2536 168.779 39.5216C169.226 39.7986 169.744 39.9326 170.316 39.9326C170.682 39.9326 171.022 39.879 171.326 39.7718C171.638 39.6646 171.906 39.5127 172.148 39.3161C172.389 39.1196 172.585 38.8873 172.737 38.6103C172.889 38.3334 172.996 38.0386 173.05 37.708H172.04C171.996 37.9135 171.924 38.1011 171.817 38.2708C171.71 38.4317 171.576 38.5746 171.424 38.6818C171.272 38.798 171.102 38.8784 170.915 38.9409C170.727 38.9945 170.53 39.0303 170.316 39.0303C169.941 39.0303 169.601 38.932 169.298 38.7444C168.994 38.5567 168.753 38.2708 168.583 37.9045C168.413 37.5382 168.324 37.0737 168.324 36.5376C168.324 36.0016 168.413 35.5459 168.583 35.1796C168.753 34.8044 168.994 34.5274 169.298 34.3309V34.313Z" fill="white"/>
<path d="M180.098 33.5982C179.634 33.3302 179.071 33.2051 178.419 33.2051H176.203V39.8432H178.347C179.017 39.8432 179.598 39.7092 180.072 39.4411C180.545 39.1731 180.911 38.7889 181.162 38.2976C181.412 37.8062 181.537 37.2076 181.537 36.5197C181.537 35.8317 181.412 35.2421 181.162 34.7418C180.911 34.2414 180.554 33.8662 180.09 33.6071L180.098 33.5982ZM180.313 37.8419C180.143 38.2082 179.893 38.4852 179.562 38.6728C179.223 38.8604 178.803 38.9587 178.303 38.9587H177.213V34.0717H178.365C178.848 34.0717 179.25 34.17 179.58 34.3576C179.911 34.5452 180.152 34.8222 180.322 35.1795C180.483 35.5458 180.572 35.9836 180.572 36.5018C180.572 37.02 180.492 37.4667 180.322 37.833L180.313 37.8419Z" fill="white"/>
<path d="M183.61 36.9485H186.549V36.0908H183.61V34.0628H186.773V33.2051H182.609V39.8342H186.808V38.9766H183.61V36.9485Z" fill="white"/>
<path d="M189.688 34.313C189.992 34.1254 190.331 34.0271 190.716 34.0271C190.93 34.0271 191.127 34.0539 191.314 34.1165C191.502 34.179 191.672 34.2594 191.832 34.3755C191.984 34.4917 192.118 34.6257 192.217 34.7954C192.315 34.9652 192.395 35.1528 192.431 35.3672H193.441C193.387 35.0099 193.28 34.6972 193.119 34.4202C192.958 34.1433 192.762 33.911 192.511 33.7144C192.27 33.5179 191.993 33.3749 191.689 33.2766C191.386 33.1784 191.055 33.1248 190.707 33.1248C190.135 33.1248 189.626 33.2588 189.179 33.5357C188.732 33.8127 188.375 34.1969 188.116 34.7061C187.857 35.2154 187.723 35.8229 187.723 36.5287C187.723 37.2345 187.848 37.842 188.107 38.3513C188.366 38.8605 188.714 39.2536 189.17 39.5216C189.617 39.7986 190.135 39.9326 190.707 39.9326C191.073 39.9326 191.412 39.879 191.716 39.7718C192.029 39.6646 192.297 39.5127 192.538 39.3161C192.779 39.1196 192.976 38.8873 193.128 38.6103C193.28 38.3334 193.387 38.0386 193.441 37.708H192.431C192.386 37.9135 192.315 38.1011 192.208 38.2708C192.1 38.4317 191.966 38.5746 191.815 38.6818C191.663 38.798 191.493 38.8784 191.305 38.9409C191.118 38.9945 190.921 39.0303 190.707 39.0303C190.331 39.0303 189.992 38.932 189.688 38.7444C189.384 38.5567 189.143 38.2708 188.973 37.9045C188.804 37.5382 188.714 37.0737 188.714 36.5376C188.714 36.0016 188.804 35.5459 188.973 35.1796C189.143 34.8044 189.384 34.5274 189.688 34.3309V34.313Z" fill="white"/>
<path d="M195.465 33.2051H194.465V39.8432H195.465V33.2051Z" fill="white"/>
<path d="M200.781 36.6984C200.594 36.5555 200.388 36.4393 200.165 36.35C199.941 36.2607 199.727 36.1892 199.512 36.1356L198.869 35.9658C198.735 35.9301 198.601 35.8944 198.467 35.8407C198.333 35.7871 198.199 35.7246 198.074 35.6531C197.949 35.5727 197.851 35.4834 197.779 35.3672C197.708 35.2511 197.672 35.1171 197.672 34.9563C197.672 34.7686 197.726 34.5989 197.833 34.456C197.94 34.3041 198.092 34.1879 198.297 34.1075C198.503 34.0271 198.735 33.9824 199.003 33.9824C199.378 33.9824 199.7 34.0628 199.95 34.2415C200.2 34.4113 200.343 34.6525 200.379 34.9563H201.344C201.344 34.5989 201.228 34.2862 201.031 34.0092C200.835 33.7323 200.558 33.5179 200.218 33.357C199.879 33.1962 199.477 33.1248 199.03 33.1248C198.583 33.1248 198.181 33.2052 197.833 33.366C197.484 33.5268 197.199 33.7501 196.993 34.036C196.788 34.3219 196.68 34.6525 196.68 35.0367C196.68 35.5012 196.832 35.8676 197.145 36.1534C197.458 36.4304 197.878 36.6448 198.405 36.7878L199.191 37.0022C199.432 37.0647 199.638 37.1362 199.834 37.2166C200.022 37.297 200.174 37.4042 200.281 37.5293C200.388 37.6544 200.451 37.8152 200.451 38.0118C200.451 38.2262 200.388 38.4138 200.263 38.5746C200.138 38.7354 199.959 38.8605 199.745 38.9498C199.521 39.0392 199.271 39.0839 198.985 39.0839C198.726 39.0839 198.494 39.0481 198.28 38.9677C198.065 38.8962 197.886 38.7712 197.752 38.6193C197.618 38.4674 197.538 38.2619 197.52 38.0207H196.52C196.537 38.4227 196.654 38.7622 196.859 39.0571C197.065 39.3519 197.35 39.5752 197.708 39.7271C198.074 39.8879 198.503 39.9594 198.994 39.9594C199.486 39.9594 199.959 39.879 200.317 39.7092C200.683 39.5395 200.96 39.3072 201.156 39.0213C201.353 38.7265 201.442 38.3959 201.442 38.0207C201.442 37.7259 201.38 37.4668 201.264 37.2523C201.147 37.0379 200.996 36.8592 200.799 36.7163L200.781 36.6984Z" fill="white"/>
<path d="M203.438 33.2051H202.438V39.8432H203.438V33.2051Z" fill="white"/>
<path d="M209.022 33.5267C208.575 33.2497 208.057 33.1157 207.485 33.1157C206.913 33.1157 206.395 33.2497 205.948 33.5267C205.502 33.8037 205.144 34.1878 204.885 34.6971C204.626 35.2063 204.492 35.8138 204.492 36.5196C204.492 37.2254 204.626 37.833 204.885 38.3422C205.144 38.8515 205.502 39.2446 205.948 39.5126C206.395 39.7896 206.913 39.9236 207.485 39.9236C208.057 39.9236 208.566 39.7896 209.022 39.5126C209.469 39.2356 209.826 38.8515 210.085 38.3422C210.344 37.833 210.469 37.2254 210.469 36.5196C210.469 35.8138 210.344 35.2063 210.085 34.6971C209.826 34.1878 209.469 33.7947 209.022 33.5267ZM209.227 37.8866C209.058 38.2618 208.816 38.5388 208.513 38.7264C208.209 38.914 207.869 39.0123 207.494 39.0123C207.119 39.0123 206.77 38.914 206.467 38.7264C206.163 38.5388 205.931 38.2529 205.752 37.8866C205.582 37.5203 205.493 37.0646 205.493 36.5196C205.493 35.9747 205.582 35.528 205.752 35.1527C205.922 34.7775 206.163 34.5005 206.467 34.3129C206.77 34.1253 207.11 34.027 207.494 34.027C207.878 34.027 208.218 34.1253 208.513 34.3129C208.816 34.5005 209.049 34.7864 209.227 35.1527C209.406 35.519 209.486 35.9747 209.486 36.5196C209.486 37.0646 209.397 37.5113 209.227 37.8866Z" fill="white"/>
<path d="M215.908 38.0742H215.845L212.468 33.2051H211.539V39.8342H212.54V34.974H212.602L215.979 39.8342H216.9V33.2051H215.908V38.0742Z" fill="white"/>
<path d="M222.671 37.2345C222.555 37.0201 222.403 36.8414 222.207 36.6984C222.01 36.5555 221.814 36.4393 221.59 36.35C221.367 36.2607 221.153 36.1892 220.938 36.1356L220.295 35.9658C220.161 35.9301 220.027 35.8944 219.893 35.8407C219.759 35.7871 219.625 35.7246 219.5 35.6531C219.375 35.5727 219.277 35.4834 219.205 35.3672C219.134 35.2511 219.098 35.1171 219.098 34.9563C219.098 34.7686 219.151 34.5989 219.259 34.456C219.366 34.3041 219.518 34.1879 219.723 34.1075C219.929 34.0271 220.161 33.9824 220.429 33.9824C220.804 33.9824 221.126 34.0628 221.376 34.2415C221.626 34.4113 221.769 34.6525 221.805 34.9563H222.77C222.77 34.5989 222.654 34.2862 222.457 34.0092C222.261 33.7323 221.984 33.5179 221.644 33.357C221.305 33.1962 220.903 33.1248 220.456 33.1248C220.009 33.1248 219.607 33.2052 219.259 33.366C218.901 33.5268 218.624 33.7501 218.419 34.036C218.213 34.3219 218.106 34.6525 218.106 35.0367C218.106 35.5012 218.258 35.8676 218.571 36.1534C218.883 36.4304 219.303 36.6448 219.83 36.7878L220.617 37.0022C220.858 37.0647 221.063 37.1362 221.26 37.2166C221.448 37.297 221.599 37.4042 221.707 37.5293C221.814 37.6544 221.876 37.8152 221.876 38.0118C221.876 38.2262 221.814 38.4138 221.689 38.5746C221.564 38.7354 221.385 38.8605 221.171 38.9498C220.947 39.0392 220.697 39.0839 220.411 39.0839C220.152 39.0839 219.92 39.0481 219.705 38.9677C219.491 38.8962 219.312 38.7712 219.178 38.6193C219.044 38.4674 218.964 38.2619 218.946 38.0207H217.945C217.963 38.4227 218.079 38.7622 218.285 39.0571C218.49 39.3519 218.776 39.5752 219.134 39.7271C219.5 39.8879 219.929 39.9594 220.42 39.9594C220.911 39.9594 221.385 39.879 221.742 39.7092C222.109 39.5395 222.386 39.3072 222.582 39.0213C222.779 38.7265 222.868 38.3959 222.868 38.0207C222.868 37.7259 222.806 37.4668 222.689 37.2523L222.671 37.2345Z" fill="white"/>
<path d="M73.3982 33.1513C67.3229 34.4915 61.0869 34.965 54.8687 34.7238C49.3742 34.5093 43.7992 33.9465 38.5549 32.3026C33.248 30.6408 28.3342 27.898 24.5818 23.9134C20.7312 19.8305 18.1403 14.872 14.7542 10.4585C11.3592 6.02715 6.82064 1.86382 0.96875 0.898926V7.64424C6.18631 8.50192 10.3764 11.9326 13.6106 15.7743C17.1396 19.9734 19.668 24.8515 23.1791 29.0684C26.7081 33.3121 31.3092 36.4123 36.5804 38.36C41.7712 40.2808 47.2925 41.0134 52.8228 41.3529C59.72 41.7818 66.6529 41.3708 73.3982 39.8877V33.1424V33.1513Z" fill="white"/>
<g style="mix-blend-mode:multiply">
<path d="M24.9935 24.3154C24.8505 24.1725 24.7076 24.0474 24.5736 23.9044C20.7229 19.8215 18.132 14.863 14.7459 10.4495C12.4141 7.41192 9.55519 4.49938 6.09766 2.65894V9.41318C9.01913 10.9677 11.5118 13.2817 13.6113 15.7743C16.8812 19.6696 19.3024 24.1278 22.4293 28.1124C23.1709 26.7902 24.0286 25.5394 25.0024 24.3154H24.9935Z" fill="url(#paint2_radial_5120_1207)" fill-opacity="0.23"/>
</g>
<path d="M111.724 11.3876C110.965 10.6192 110.071 10.0475 109.026 9.65435C107.99 9.26125 106.837 9.0647 105.586 9.0647C103.809 9.0647 102.272 9.44887 100.959 10.2083C99.6541 10.9677 98.6356 12.0308 97.9209 13.3978C97.2061 14.7647 96.8398 16.355 96.8398 18.1776C96.8398 20.0001 97.1972 21.6708 97.9119 23.0288C98.6267 24.3868 99.6541 25.4321 100.985 26.1647C102.316 26.8973 103.907 27.2636 105.756 27.2636C107.293 27.2636 108.651 27.0313 109.821 26.5578C110.992 26.0843 111.939 25.4232 112.662 24.5744C113.386 23.7168 113.851 22.7161 114.065 21.5636L108.91 21.4117C108.767 21.8048 108.544 22.1265 108.258 22.3945C107.963 22.6625 107.623 22.868 107.212 23.002C106.81 23.136 106.355 23.2075 105.854 23.2075C105.14 23.2075 104.514 23.0556 103.996 22.7608C103.478 22.466 103.076 22.0461 102.79 21.5011C102.504 20.965 102.361 20.3307 102.361 19.616V19.4641H114.11V18.0614C114.11 16.6141 113.895 15.3365 113.475 14.2108C113.055 13.094 112.466 12.147 111.706 11.3787L111.724 11.3876ZM102.379 16.2031C102.406 15.6403 102.558 15.1221 102.835 14.6754C103.13 14.2019 103.523 13.8177 104.014 13.5407C104.514 13.2638 105.077 13.1208 105.703 13.1208C106.328 13.1208 106.873 13.2548 107.346 13.5139C107.82 13.7819 108.204 14.1393 108.481 14.6128C108.758 15.0774 108.901 15.6135 108.901 16.2031H102.379Z" fill="white"/>
<path d="M127.593 16.498L124.198 15.8548C123.457 15.7029 122.938 15.4974 122.652 15.2473C122.367 14.9971 122.224 14.6933 122.233 14.3538C122.233 13.9071 122.447 13.5587 122.903 13.2996C123.358 13.0405 123.912 12.9065 124.564 12.9065C125.065 12.9065 125.502 12.9869 125.878 13.1567C126.253 13.3175 126.566 13.5498 126.798 13.8357C127.039 14.1215 127.182 14.4521 127.236 14.8184L132.391 14.6844C132.248 12.9422 131.488 11.5664 130.104 10.5747C128.728 9.57405 126.843 9.07373 124.457 9.07373C122.867 9.07373 121.482 9.29709 120.312 9.74379C119.141 10.1905 118.239 10.8248 117.605 11.6646C116.97 12.5045 116.658 13.514 116.667 14.6844C116.667 16.0335 117.086 17.1413 117.953 18.0079C118.82 18.8745 120.133 19.4731 121.902 19.7948L124.975 20.3844C125.708 20.5184 126.253 20.715 126.592 20.9562C126.941 21.1974 127.111 21.5191 127.12 21.9122C127.12 22.3589 126.878 22.7073 126.432 22.9753C125.976 23.2433 125.395 23.3774 124.672 23.3774C123.876 23.3774 123.224 23.2076 122.706 22.877C122.197 22.5375 121.875 22.0551 121.75 21.4118L116.211 21.5459C116.416 23.288 117.247 24.6818 118.695 25.7181C120.142 26.7545 122.125 27.2727 124.645 27.2727C126.217 27.2727 127.62 27.0225 128.844 26.5311C130.068 26.0397 131.033 25.3429 131.739 24.4495C132.444 23.556 132.802 22.5018 132.811 21.2957C132.811 20.0092 132.373 18.9817 131.506 18.1955C130.649 17.4183 129.335 16.8554 127.575 16.5248L127.593 16.498Z" fill="white"/>
<path d="M149.775 11.3876C149.016 10.6192 148.122 10.0475 147.077 9.65435C146.04 9.26125 144.888 9.0647 143.637 9.0647C141.859 9.0647 140.323 9.44887 139.009 10.2083C137.705 10.9677 136.686 12.0308 135.972 13.3978C135.257 14.7647 134.891 16.355 134.891 18.1776C134.891 20.0001 135.248 21.6708 135.963 23.0288C136.677 24.3868 137.705 25.4321 139.036 26.1647C140.367 26.8973 141.958 27.2636 143.807 27.2636C145.344 27.2636 146.702 27.0313 147.872 26.5578C149.042 26.0843 149.989 25.4232 150.713 24.5744C151.437 23.7168 151.901 22.7161 152.116 21.5636L146.961 21.4117C146.818 21.8048 146.594 22.1265 146.309 22.3945C146.014 22.6625 145.674 22.868 145.263 23.002C144.861 23.136 144.406 23.2075 143.905 23.2075C143.19 23.2075 142.565 23.0556 142.047 22.7608C141.529 22.466 141.127 22.0461 140.841 21.5011C140.555 20.965 140.412 20.3307 140.412 19.616V19.4641H152.16V18.0614C152.16 16.6141 151.946 15.3365 151.526 14.2108C151.106 13.094 150.517 12.147 149.757 11.3787L149.775 11.3876ZM140.439 16.2031C140.466 15.6403 140.617 15.1221 140.894 14.6754C141.189 14.2019 141.582 13.8177 142.074 13.5407C142.574 13.2638 143.137 13.1208 143.762 13.1208C144.388 13.1208 144.933 13.2548 145.406 13.5139C145.88 13.7819 146.264 14.1393 146.541 14.6128C146.818 15.0774 146.961 15.6135 146.961 16.2031H140.439Z" fill="white"/>
<path d="M168.34 10.6104C167.634 10.1101 166.812 9.72593 165.865 9.46684C164.918 9.19881 163.882 9.07373 162.756 9.07373C161.184 9.07373 159.834 9.31495 158.709 9.80633C157.592 10.2888 156.707 10.9588 156.073 11.7987C155.439 12.6474 155.037 13.6034 154.885 14.6755L160.058 14.8631C160.183 14.3002 160.469 13.8535 160.915 13.5319C161.371 13.2103 161.961 13.0494 162.702 13.0494C163.39 13.0494 163.935 13.2103 164.346 13.5319C164.748 13.8535 164.954 14.3092 164.954 14.8988V14.9524C164.954 15.3098 164.811 15.5868 164.534 15.7833C164.257 15.9799 163.81 16.1317 163.194 16.23C162.577 16.3372 161.773 16.4355 160.773 16.5248C159.879 16.6052 159.039 16.7482 158.244 16.9626C157.458 17.177 156.761 17.4987 156.154 17.9186C155.546 18.3385 155.073 18.8835 154.733 19.5625C154.385 20.2325 154.215 21.0634 154.215 22.0372C154.215 23.1987 154.465 24.1636 154.965 24.9319C155.466 25.7003 156.154 26.272 157.02 26.6562C157.887 27.0314 158.887 27.228 160.013 27.228C160.835 27.228 161.568 27.1208 162.22 26.9153C162.872 26.7098 163.444 26.3971 163.926 25.9861C164.409 25.5752 164.811 25.0659 165.123 24.4673H165.257V26.9242H170.538V14.9435C170.538 14.0143 170.341 13.1835 169.957 12.4509C169.573 11.7272 169.028 11.1107 168.322 10.6104H168.34ZM164.989 20.6524C164.989 21.2242 164.847 21.7245 164.552 22.1623C164.257 22.5912 163.873 22.9307 163.39 23.1808C162.908 23.422 162.363 23.5471 161.755 23.5471C161.112 23.5471 160.585 23.3952 160.165 23.0915C159.745 22.7877 159.54 22.341 159.54 21.7603C159.54 21.3761 159.638 21.0455 159.834 20.7686C160.031 20.4916 160.308 20.2593 160.683 20.0896C161.058 19.9109 161.505 19.7858 162.032 19.6965C162.291 19.6607 162.559 19.6161 162.845 19.5714C163.131 19.5267 163.399 19.4731 163.667 19.4106C163.935 19.348 164.185 19.2855 164.409 19.214C164.632 19.1426 164.829 19.0711 164.989 18.9817V20.6614V20.6524Z" fill="white"/>
<path d="M183.716 9.05591C182.751 9.05591 181.911 9.3418 181.179 9.91359C180.455 10.4854 179.928 11.352 179.606 12.5134H179.419V9.29713H173.969V26.9243H179.579V17.3558C179.579 16.65 179.731 16.0424 180.035 15.5153C180.339 14.9882 180.75 14.5862 181.286 14.2913C181.813 13.9965 182.42 13.8536 183.082 13.8536C183.421 13.8536 183.805 13.8804 184.234 13.934C184.663 13.9876 185.02 14.0591 185.288 14.1484V9.27033C185.047 9.19885 184.797 9.15418 184.52 9.11845C184.243 9.08271 183.975 9.06484 183.716 9.06484V9.05591Z" fill="white"/>
<path d="M193.248 13.8803C193.739 13.514 194.311 13.3353 194.954 13.3353C195.758 13.3353 196.411 13.5944 196.911 14.1037C197.411 14.6129 197.715 15.3277 197.822 16.23H203.067C203.031 14.7827 202.665 13.523 201.986 12.4509C201.298 11.3788 200.351 10.5479 199.135 9.95822C197.92 9.36856 196.5 9.07373 194.874 9.07373C193.033 9.07373 191.443 9.4579 190.121 10.2173C188.79 10.9856 187.771 12.0488 187.056 13.4157C186.342 14.7827 185.984 16.364 185.984 18.1687C185.984 19.9734 186.342 21.5459 187.048 22.9128C187.762 24.2797 188.781 25.3429 190.103 26.1112C191.434 26.8796 193.025 27.2548 194.883 27.2548C196.536 27.2548 197.965 26.951 199.171 26.3524C200.377 25.7539 201.315 24.9051 201.986 23.8241C202.656 22.743 203.013 21.4654 203.067 20.0181H197.822C197.751 20.6346 197.59 21.1617 197.331 21.5995C197.072 22.0283 196.741 22.3589 196.339 22.5822C195.937 22.8056 195.472 22.9128 194.954 22.9128C194.302 22.9128 193.73 22.7341 193.248 22.3678C192.756 22.0015 192.381 21.4654 192.104 20.7507C191.836 20.036 191.693 19.1604 191.693 18.1151C191.693 17.0698 191.827 16.2032 192.104 15.4974C192.372 14.7916 192.756 14.2556 193.248 13.8893V13.8803Z" fill="white"/>
<path d="M222.24 12.2008C221.731 11.2091 221.016 10.4407 220.096 9.88681C219.176 9.34182 218.104 9.06486 216.862 9.06486C215.548 9.06486 214.432 9.36862 213.529 9.98508C212.627 10.5926 211.966 11.4503 211.573 12.5313H211.376V3.41846H205.953V26.9154H211.564V16.8644C211.564 16.1943 211.698 15.6136 211.948 15.1401C212.198 14.6666 212.547 14.3003 212.993 14.0412C213.44 13.7821 213.958 13.657 214.548 13.657C215.45 13.657 216.147 13.934 216.647 14.479C217.148 15.0329 217.389 15.7923 217.38 16.7751V26.9064H222.991V15.6762C222.991 14.345 222.749 13.1835 222.24 12.1918V12.2008Z" fill="white"/>
<path d="M2.59375 27.0493H9.0621L23.7142 3.32007H17.2458L2.59375 27.0493Z" fill="white"/>
<path d="M90.6752 18.0259C91.9796 17.4362 92.9802 16.5785 93.6949 15.4439C94.4097 14.3003 94.767 12.9066 94.767 11.2716C94.767 9.63665 94.4097 8.26079 93.7128 7.07254C93.0159 5.89323 92.0153 4.98194 90.7288 4.35655C89.5137 3.74902 88.0575 3.45419 86.3957 3.41846H76.3894L76.3715 3.42739L73.8789 7.99276H83.8137V8.01063H84.8948C85.0466 8.01063 85.1806 8.01063 85.3236 8.0285C85.4933 8.03743 85.6542 8.0553 85.806 8.07317C86.0205 8.09997 86.2349 8.13571 86.4225 8.18038C86.5386 8.20718 86.6459 8.23398 86.7441 8.26972C86.8424 8.30546 86.9496 8.33226 87.0479 8.368C87.6286 8.61815 88.0753 8.97552 88.3702 9.44903C88.665 9.93148 88.8169 10.539 88.8169 11.2716C88.8169 12.0042 88.665 12.5939 88.3702 13.0584C88.1468 13.4069 87.843 13.6838 87.4589 13.8983C87.3338 13.9697 87.2087 14.0323 87.0658 14.0859C86.485 14.3092 85.7703 14.4254 84.9037 14.4254H76.8987H76.5502V27.0315H82.1609V18.9193H84.9841L89.3082 27.0047H95.5354L95.5622 26.9958L90.6662 17.999L90.6752 18.0259Z" fill="white"/>
</g>
<defs>
<radialGradient id="paint0_radial_5120_1207" cx="0" cy="0" r="1" gradientUnits="userSpaceOnUse" gradientTransform="translate(28.8768 28.8245) rotate(35.82) scale(10.9801 3.62344)">
<stop/>
<stop offset="0.1" stop-color="#231F20" stop-opacity="0.88"/>
<stop offset="0.43" stop-color="#100E0F" stop-opacity="0.1849"/>
<stop offset="0.84" stop-opacity="0"/>
</radialGradient>
<radialGradient id="paint1_radial_5120_1207" cx="0" cy="0" r="1" gradientUnits="userSpaceOnUse" gradientTransform="translate(6.68287 17.6348) rotate(35.82) scale(10.9801 3.62344)">
<stop/>
<stop offset="0.1" stop-color="#231F20" stop-opacity="0.88"/>
<stop offset="0.43" stop-color="#100E0F" stop-opacity="0.1849"/>
<stop offset="0.84" stop-opacity="0"/>
</radialGradient>
<radialGradient id="paint2_radial_5120_1207" cx="0" cy="0" r="1" gradientUnits="userSpaceOnUse" gradientTransform="translate(14.5103 13.433) rotate(-60) scale(12.5436 5.77005)">
<stop offset="0.13" stop-opacity="0.6"/>
<stop offset="1" stop-opacity="0"/>
</radialGradient>
<clipPath id="clip0_5120_1207">
<rect width="222.023" height="40.6148" fill="white" transform="translate(0.96875 0.898926)"/>
</clipPath>
</defs>
</svg>
