<svg width="201" height="79" viewBox="0 0 201 79" fill="none" xmlns="http://www.w3.org/2000/svg">
<g clip-path="url(#clip0_5121_1411)">
<path d="M40.7188 0.642578C50.8127 0.750788 60.3194 4.77523 67.9841 12.8363C75.5417 20.7854 79.0908 30.3991 78.6446 41.338C78.2093 52.0131 73.9612 61.0858 66.1238 68.3443C58.4871 75.4169 49.3282 78.91 38.94 78.7045C27.8576 78.4845 18.4093 74.229 10.893 66.0561C3.5736 58.0984 0.159514 48.5808 0.656794 37.7987C1.14313 27.2647 5.32806 18.2881 13.0474 11.1025C20.5115 4.15272 29.4309 0.685133 40.7188 0.642578ZM73.6183 40.4371C73.5624 30.5499 70.3659 22.6189 64.0314 16.0607C57.7272 9.53282 49.9094 6.02025 40.8355 5.71021C31.3179 5.38436 22.9991 8.61486 16.1284 15.1986C9.2528 21.7873 5.71713 29.993 5.65391 39.4948C5.59433 48.4665 8.74336 56.3573 14.9077 62.9047C21.1826 69.5687 28.9847 73.2065 38.1315 73.6077C47.7452 74.0284 56.1564 70.838 63.0976 64.1886C70.0218 57.5562 73.4943 49.3322 73.6183 40.4371Z" fill="white"/>
<path d="M145.228 44.5272C146.685 46.2416 148.068 47.8647 149.516 49.5657C147.834 49.5657 146.297 49.5584 144.759 49.5693C144.06 49.5742 143.925 48.9043 143.545 48.5492C143.016 48.0568 142.633 47.4124 142.156 46.8592C142.061 46.7498 141.819 46.6987 141.66 46.7231C140.339 46.9273 139.029 47.2532 137.701 47.3589C134.591 47.6045 131.857 46.599 129.412 44.6865C127.291 43.0281 125.876 40.8773 125.299 38.3033C124.486 34.6789 125.014 31.2296 127.346 28.1973C129.283 25.6793 131.786 24.1157 134.938 23.5321C137.766 23.008 140.45 23.3898 142.99 24.6567C145.203 25.7595 146.891 27.4459 148.114 29.6174C149.344 31.8022 149.77 34.1585 149.536 36.5951C149.263 39.4462 148.077 41.9241 145.938 43.8914C145.715 44.0956 145.486 44.2962 145.229 44.5272H145.228ZM142.012 40.7387C144.537 38.2863 144.84 34.0528 142.504 31.1627C140.213 28.3274 136.076 27.8447 133.182 30.049C130.074 32.415 129.682 36.4905 131.4 39.445C133.248 42.622 136.619 43.1132 138.737 42.4275C137.737 41.315 136.749 40.2159 135.647 38.9891C137.306 38.9891 138.758 38.9818 140.209 39.0012C140.357 39.0037 140.531 39.1398 140.645 39.259C141.101 39.732 141.537 40.2232 142.01 40.7399L142.012 40.7387Z" fill="white"/>
<path d="M179.629 24.2761C181.279 24.2761 182.896 24.2713 184.513 24.2858C184.63 24.2858 184.777 24.3977 184.855 24.4998C186.551 26.726 188.246 28.9522 189.926 31.1894C191.618 33.4436 193.294 35.7111 195.031 38.0468V24.315H200.467V46.8555C200.347 46.8653 200.194 46.8884 200.042 46.8884C198.603 46.8908 197.165 46.9005 195.727 46.8786C195.515 46.875 195.225 46.7862 195.109 46.633C192.798 43.5472 190.512 40.4407 188.209 37.3476C187.201 35.9944 186.168 34.6594 185.086 33.2357V46.8555H179.629V24.2749V24.2761Z" fill="white"/>
<path d="M160.582 24.2896H166.562C169.73 31.8071 172.897 39.3222 176.079 46.8702H169.807C169.279 45.5048 168.754 44.1467 168.222 42.7728H158.49C158.012 44.0129 157.544 45.2665 157.038 46.503C156.969 46.6732 156.71 46.8726 156.536 46.875C154.674 46.9018 152.812 46.8921 150.836 46.8921C154.097 39.3283 157.331 31.8278 160.582 24.2896ZM163.399 30.28C162.327 32.9938 161.298 35.5945 160.256 38.2304H166.472C165.454 35.5957 164.447 32.9913 163.399 30.28Z" fill="white"/>
<path d="M103.637 24.2944H122.909V29.007H116.142V46.8605H110.306V29.0289H103.637V24.2932V24.2944Z" fill="white"/>
<path d="M93.793 24.2908H99.5573V46.8544H93.793V24.2908Z" fill="white"/>
<path d="M94.0273 64.5532V57.6302C95.3636 57.6302 96.673 57.5877 97.9788 57.646C98.7679 57.6813 99.5132 57.9877 99.8123 58.8059C100.124 59.6582 99.8537 60.3902 99.0889 60.9191C100.113 61.5246 100.436 62.1519 100.234 63.1027C100.064 63.9052 99.5023 64.4754 98.5126 64.5313C97.0451 64.6152 95.5678 64.5532 94.0273 64.5532ZM95.3368 63.6851C96.3289 63.628 97.27 63.6024 98.2025 63.5076C98.7059 63.4565 98.9673 63.0881 98.9795 62.5811C98.9916 62.0911 98.7071 61.7057 98.2731 61.6522C97.3101 61.5318 96.3326 61.527 95.3368 61.4747V63.6851ZM95.3465 60.4741C96.1453 60.4741 96.9101 60.5008 97.6712 60.4643C98.1782 60.44 98.5673 60.1774 98.6123 59.6205C98.6585 59.0382 98.2682 58.7476 97.7734 58.6916C96.9806 58.6029 96.177 58.6053 95.3465 58.5688V60.4741Z" fill="white"/>
<path d="M132.678 62.2421V57.6219H133.938V64.5899C133.306 64.7382 132.823 64.6386 132.381 64.0586C131.334 62.6871 130.208 61.374 129.019 59.9211V64.6009H127.723V57.6389C128.411 57.4541 128.884 57.6681 129.319 58.242C130.269 59.4943 131.291 60.6907 132.288 61.9053C132.377 62.0135 132.503 62.0926 132.678 62.2409V62.2421Z" fill="white"/>
<path d="M138.279 60.5119H141.625V61.5928H138.273V63.5297H142.201V64.6032H136.965V57.6353H142.026V58.6748H138.278V60.5119H138.279Z" fill="white"/>
<path d="M175.954 57.6291V58.6663H172.192V60.5022H175.551V61.6025H172.187V63.5199H176.128V64.6081H170.879V57.6279H175.953L175.954 57.6291Z" fill="white"/>
<path d="M102.653 57.6047H103.972C103.972 58.0047 103.969 58.4011 103.972 58.7962C103.984 59.8881 103.963 60.9836 104.025 62.0729C104.079 63.0408 104.763 63.6061 105.771 63.6244C106.766 63.6426 107.469 63.0967 107.565 62.1264C107.641 61.3641 107.609 60.5908 107.616 59.8224C107.622 59.0978 107.617 58.3731 107.617 57.6193H108.809C108.809 59.2911 108.927 60.9702 108.77 62.6237C108.652 63.8663 107.67 64.5837 106.302 64.7308C104.535 64.9217 102.866 64.2773 102.684 61.9623C102.651 61.5404 102.656 61.1136 102.654 60.6893C102.651 59.6802 102.653 58.6722 102.653 57.6023V57.6047Z" fill="white"/>
<path d="M185.575 57.6169H186.892C186.892 58.7914 186.891 59.9404 186.892 61.0894C186.892 61.352 186.893 61.6158 186.917 61.8773C187.019 63.0311 187.658 63.6427 188.734 63.6256C189.843 63.6086 190.502 62.9642 190.529 61.7836C190.56 60.4109 190.536 59.037 190.536 57.6267H191.855C191.855 58.0291 191.859 58.4437 191.855 58.8583C191.844 59.91 191.914 60.9702 191.801 62.011C191.593 63.9174 190.481 64.8159 188.573 64.7649C186.746 64.715 185.684 63.7059 185.589 61.8007C185.521 60.4304 185.575 59.0529 185.575 57.6169Z" fill="white"/>
<path d="M195.99 62.6105V64.613H194.707V57.5842C196.139 57.6754 197.591 57.3727 199.006 57.8384C200.018 58.1715 200.608 59.0214 200.609 60.0828C200.61 61.1175 200.054 62.0026 199.084 62.3224C198.539 62.5023 197.944 62.5449 197.366 62.6008C196.931 62.6434 196.487 62.6093 195.99 62.6093V62.6105ZM196.008 61.526C196.807 61.4749 197.555 61.4883 198.278 61.3619C198.972 61.2415 199.293 60.7661 199.291 60.1314C199.287 59.4202 198.953 58.929 198.223 58.8171C197.502 58.7053 196.759 58.7308 196.007 58.6943V61.526H196.008Z" fill="white"/>
<path d="M120.783 58.0741C120.629 58.4461 120.501 58.7562 120.418 58.9543C119.647 58.817 118.947 58.6601 118.237 58.5811C117.952 58.5495 117.606 58.62 117.366 58.7708C117.143 58.9118 116.913 59.2097 116.892 59.4553C116.875 59.662 117.106 60.0061 117.311 60.0948C117.861 60.3319 118.475 60.4219 119.031 60.6517C119.613 60.8936 120.293 61.1076 120.688 61.5502C121.564 62.5338 120.967 64.1071 119.63 64.5363C118.316 64.9582 117.045 64.7855 115.811 64.1958C115.455 64.0256 115.371 63.8311 115.585 63.4919C115.691 63.3253 115.748 63.1283 115.837 62.9216C116.19 63.0906 116.513 63.3046 116.868 63.4019C117.368 63.5369 117.89 63.6475 118.406 63.656C119.2 63.6694 119.713 63.3071 119.773 62.811C119.829 62.3429 119.433 61.9733 118.637 61.7581C118.112 61.6158 117.577 61.5015 117.059 61.335C116.027 61.003 115.545 60.417 115.54 59.544C115.537 58.7087 116.13 57.944 117.082 57.6631C118.337 57.2935 119.55 57.4528 120.783 58.0765V58.0741Z" fill="white"/>
<path d="M144.67 62.8852C145.555 63.4554 146.45 63.7812 147.458 63.6366C147.692 63.6025 147.942 63.5454 148.141 63.4262C148.759 63.0578 148.76 62.3721 148.124 62.0414C147.737 61.8395 147.292 61.7459 146.87 61.6158C146.543 61.5149 146.205 61.4444 145.881 61.3374C144.829 60.9897 144.322 60.3672 144.357 59.4881C144.391 58.6516 145.022 57.8832 145.948 57.6376C147.186 57.3081 148.382 57.4613 149.588 58.0631C149.453 58.4121 149.326 58.7379 149.241 58.9592C148.47 58.8206 147.77 58.6626 147.061 58.5823C146.777 58.5507 146.43 58.62 146.191 58.7695C145.966 58.9094 145.734 59.2048 145.712 59.4516C145.692 59.6583 145.921 60.0048 146.125 60.0936C146.676 60.3319 147.29 60.4219 147.844 60.6517C148.427 60.8924 149.109 61.104 149.504 61.5453C150.398 62.5447 149.768 64.1314 148.397 64.5533C147.141 64.94 145.933 64.7709 144.743 64.2566C144.281 64.0572 144.17 63.8116 144.447 63.3873C144.534 63.2548 144.578 63.0955 144.67 62.8876V62.8852Z" fill="white"/>
<path d="M152.102 62.895C152.937 63.4397 153.795 63.7509 154.761 63.6525C154.998 63.6281 155.282 63.6136 155.453 63.4774C155.684 63.2914 155.962 62.9971 155.968 62.7442C155.974 62.4974 155.71 62.1704 155.476 62.0123C155.185 61.8178 154.805 61.7521 154.458 61.6488C154.071 61.5345 153.673 61.4579 153.291 61.3326C152.261 60.9959 151.777 60.4122 151.775 59.5393C151.772 58.704 152.368 57.938 153.318 57.6596C154.572 57.2912 155.786 57.4517 157.005 58.0669C156.876 58.4012 156.756 58.7113 156.619 59.0687C156.29 58.9459 155.986 58.7563 155.667 58.7271C155.034 58.6675 154.385 58.6298 153.763 58.7222C153.512 58.7587 153.162 59.1453 153.139 59.3982C153.117 59.6378 153.409 60.0426 153.658 60.1448C154.379 60.4439 155.157 60.6007 155.896 60.8621C156.869 61.2062 157.368 61.8627 157.324 62.653C157.271 63.6075 156.682 64.2859 155.687 64.5802C154.527 64.923 153.408 64.7698 152.319 64.3187C151.578 64.0111 151.585 63.9856 151.906 63.2634C151.955 63.154 152.018 63.0518 152.103 62.8938L152.102 62.895Z" fill="white"/>
<path d="M168.203 58.0728C168.049 58.4461 167.929 58.7403 167.803 59.0491C167.328 58.8947 166.885 58.7136 166.421 58.6126C166.113 58.5446 165.776 58.5591 165.456 58.592C164.922 58.6455 164.347 58.7354 164.29 59.4139C164.233 60.0923 164.84 60.192 165.3 60.3489C165.909 60.5568 166.549 60.6735 167.157 60.8838C168.012 61.1805 168.493 61.8079 168.51 62.5508C168.53 63.386 167.986 64.2104 167.145 64.5022C165.773 64.9764 164.436 64.8122 163.169 64.1374C163.036 64.0669 162.955 63.7629 162.976 63.5818C163.001 63.3581 163.159 63.1502 163.196 63.0699C164.075 63.2778 164.894 63.5028 165.727 63.6523C166.006 63.7022 166.37 63.645 166.6 63.4918C166.854 63.3228 167.131 62.9994 167.152 62.7234C167.17 62.4912 166.887 62.1033 166.648 62.0085C165.863 61.6985 165.029 61.5185 164.233 61.2364C163.169 60.8595 162.725 59.9537 163.074 58.9288C163.3 58.2613 163.83 57.8807 164.465 57.6789C165.738 57.2752 166.964 57.4576 168.204 58.0728H168.203Z" fill="white"/>
<path d="M181.412 58.6918V64.5935H180.099V58.7453H177.785V57.6182H183.693V58.6918H181.411H181.412Z" fill="white"/>
<path d="M111.77 64.6105V57.634H113.035V64.6105H111.77Z" fill="white"/>
<path d="M124.7 64.6251H123.469V57.6182H124.7V64.6251Z" fill="white"/>
<path d="M30.1797 59.7459V56.7391C30.953 56.7391 31.7153 56.7525 32.4764 56.7367C34.2929 56.699 35.1415 55.9391 35.1501 54.0679C35.1926 45.1242 35.2376 36.1804 35.2607 27.2367C35.2631 26.5291 35.1683 25.8081 35.0114 25.1175C34.7671 24.0415 34.0424 23.6779 32.9238 23.5649C32.0424 23.4749 31.1439 23.5466 30.2089 23.5466V20.5508H49.1079V23.5466C48.1973 23.5466 47.3121 23.5418 46.4258 23.5478C45.458 23.5551 44.4598 24.202 44.2847 25.0008C44.1461 25.6342 44.0391 26.2908 44.0379 26.9364C44.0221 35.7488 44.0233 44.56 44.0379 53.3724C44.0379 53.9378 44.1838 54.5032 44.2713 55.0673C44.4683 56.3403 45.5966 56.6564 46.5255 56.727C47.351 56.789 48.1851 56.7428 49.0155 56.7464C49.0325 56.7464 49.0496 56.761 49.1006 56.7841V59.7459H30.1809H30.1797Z" fill="white"/>
</g>
<defs>
<clipPath id="clip0_5121_1411">
<rect width="200" height="78.0705" fill="white" transform="translate(0.609375 0.642578)"/>
</clipPath>
</defs>
</svg>
