<svg width="200" height="73" viewBox="0 0 200 73" fill="none" xmlns="http://www.w3.org/2000/svg">
<path fill-rule="evenodd" clip-rule="evenodd" d="M40.8653 54.7899C40.8653 54.2451 40.3869 53.8198 39.8487 53.9029C38.058 54.1786 36.1876 54.2218 34.264 53.9726C24.8355 52.7501 17.5432 44.9495 17.2143 35.6904C16.829 24.8134 25.7658 15.8766 36.8387 15.8766C37.8653 15.8766 38.8719 15.9597 39.852 16.1092C40.3869 16.1923 40.8653 15.7604 40.8653 15.2188V10.8069C39.553 10.601 38.2108 10.478 36.8387 10.478C22.9319 10.478 11.6562 21.4547 11.6562 35.0094C11.6562 48.564 22.9319 59.5407 36.8387 59.5407C38.2108 59.5407 39.553 59.4178 40.8653 59.2118V54.7899Z" fill="white"/>
<path fill-rule="evenodd" clip-rule="evenodd" d="M9.22531 38.3846C10.5309 48.8928 18.2285 57.6768 28.4544 60.4342C32.7932 61.6037 36.9792 61.597 40.8629 60.7698V67.5637C40.8629 68.0089 40.5373 68.3943 40.0955 68.4574C38.5506 68.6767 36.9692 68.7996 35.3613 68.7996C16.7036 68.7996 1.57422 53.6702 1.57422 35.0092C1.57422 27.8864 3.77686 21.2785 7.54094 15.83C7.56087 15.8333 7.58413 15.8333 7.60406 15.8333C11.5143 15.8333 14.6837 12.6606 14.6837 8.75034C14.6837 8.60084 14.6804 8.45134 14.6671 8.30184C20.3847 3.86334 27.564 1.22217 35.3613 1.22217C36.9692 1.22217 38.5506 1.34177 40.0955 1.56436C40.5373 1.62748 40.8629 2.01286 40.8629 2.45804V9.24535C39.0888 8.86661 37.2516 8.65399 35.3613 8.65399C19.7069 8.65399 7.23197 22.325 9.22531 38.3846Z" fill="white"/>
<path fill-rule="evenodd" clip-rule="evenodd" d="M39.8426 26.8863C38.4705 28.2086 36.4905 28.8996 34.3609 28.491C31.7596 27.9926 29.7331 25.7701 29.4606 23.1355C29.4108 22.6704 29.4141 22.2153 29.4606 21.7768C29.5404 21.0359 28.7464 20.5376 28.1085 20.9229C23.8328 23.511 20.8262 28.0159 20.2979 33.182C19.3046 42.9526 26.949 51.1984 36.527 51.1984C38.032 51.1984 39.4838 50.9858 40.8692 50.6004V27.3382C40.8692 26.8066 40.228 26.5176 39.8459 26.8863H39.8426Z" fill="white"/>
<path d="M56.4496 58.6302C56.8948 59.1219 57.237 59.7233 57.4762 60.4342C57.7154 61.1452 57.8317 61.9525 57.8317 62.8561C57.8317 63.7598 57.7087 64.5671 57.4662 65.2813C57.2237 65.9956 56.8848 66.5903 56.4463 67.0654C55.9945 67.5604 55.4629 67.9325 54.845 68.185C54.2304 68.4341 53.526 68.5604 52.7354 68.5604C51.9447 68.5604 51.2636 68.4341 50.6357 68.1783C50.0045 67.9225 49.4696 67.5538 49.0277 67.0687C48.5859 66.5837 48.247 65.9857 48.0078 65.2813C47.7686 64.5737 47.6523 63.7664 47.6523 62.8594C47.6523 61.9525 47.7686 61.1651 48.0045 60.4575C48.2404 59.7498 48.5826 59.1419 49.0344 58.6369C49.4663 58.1552 50.0012 57.7897 50.6423 57.5339C51.2835 57.2781 51.9812 57.1519 52.7354 57.1519C53.4895 57.1519 54.227 57.2814 54.8516 57.5372C55.4762 57.793 56.0077 58.1618 56.4463 58.6369L56.4496 58.6302ZM56.3167 62.8528C56.3167 61.4309 55.9978 60.3312 55.3599 59.5605C54.722 58.7864 53.8516 58.401 52.7486 58.401C51.6457 58.401 50.762 58.7864 50.1241 59.5605C49.4895 60.3345 49.1706 61.4309 49.1706 62.8528C49.1706 64.2747 49.4929 65.391 50.1407 66.1551C50.7885 66.9192 51.6556 67.2979 52.7453 67.2979C53.835 67.2979 54.7021 66.9159 55.3466 66.1551C55.9911 65.391 56.3134 64.2913 56.3134 62.8528H56.3167Z" fill="white"/>
<path d="M67.0444 60.6834C67.0444 61.1684 66.9613 61.6202 66.7919 62.0322C66.6224 62.4475 66.3866 62.8063 66.0809 63.1119C65.7022 63.4906 65.257 63.773 64.7421 63.9624C64.2271 64.1518 63.576 64.2448 62.7919 64.2448H61.3335V68.3278H59.875V57.3711H62.8484C63.5062 57.3711 64.0643 57.4276 64.5195 57.5372C64.9746 57.6468 65.3799 57.8196 65.7354 58.0555C66.1507 58.3345 66.4763 58.6834 66.7022 59.102C66.9314 59.5173 67.0444 60.0455 67.0444 60.6834ZM65.5294 60.7199C65.5294 60.3412 65.463 60.0123 65.3301 59.7332C65.1972 59.4541 64.9979 59.2249 64.7255 59.0488C64.4896 58.896 64.2205 58.7864 63.9182 58.7199C63.6158 58.6535 63.2338 58.6202 62.7753 58.6202H61.3335V62.9989H62.5627C63.1507 62.9989 63.6291 62.9458 63.9979 62.8395C64.3666 62.7332 64.6656 62.5671 64.8949 62.3345C65.1241 62.0986 65.2869 61.8528 65.3832 61.5903C65.4796 61.3312 65.5261 61.0388 65.5261 60.7133L65.5294 60.7199Z" fill="white"/>
<path d="M77.0767 68.3278H75.6183V62.9624H70.1499V68.3278H68.6914V57.3711H70.1499V61.6701H75.6183V57.3711H77.0767V68.3278Z" fill="white"/>
<path d="M87.5702 58.6668H83.6566V68.3311H82.1982V58.6668H78.2812V57.3711H87.5702V58.6668Z" fill="white"/>
<path d="M97.1548 68.3278H95.6964V62.9624H90.228V68.3278H88.7695V57.3711H90.228V61.6701H95.6964V57.3711H97.1548V68.3278Z" fill="white"/>
<path d="M108.468 68.3278H106.916L105.843 65.2747H101.102L100.029 68.3278H98.5508L102.541 57.3711H104.484L108.474 68.3278H108.468ZM105.391 64.0222L103.471 58.6435L101.544 64.0222H105.391Z" fill="white"/>
<path d="M116.793 68.3278H109.859V57.3711H111.318V67.0321H116.793V68.3278Z" fill="white"/>
<path d="M127.742 68.3278H126.283V58.886L123.237 65.3112H122.37L119.346 58.886V68.3278H117.984V57.3711H119.971L122.891 63.4707L125.719 57.3711H127.742V68.3278Z" fill="white"/>
<path d="M138.586 58.6302C139.031 59.1219 139.374 59.7233 139.613 60.4342C139.852 61.1452 139.968 61.9525 139.968 62.8561C139.968 63.7598 139.845 64.5671 139.603 65.2813C139.36 65.9956 139.022 66.5903 138.583 67.0654C138.131 67.5604 137.6 67.9325 136.982 68.185C136.367 68.4341 135.663 68.5604 134.872 68.5604C134.081 68.5604 133.4 68.4341 132.772 68.1783C132.141 67.9225 131.606 67.5538 131.164 67.0687C130.723 66.5837 130.384 65.9857 130.145 65.2813C129.905 64.5737 129.789 63.7664 129.789 62.8594C129.789 61.9525 129.905 61.1651 130.141 60.4575C130.377 59.7498 130.719 59.1419 131.171 58.6369C131.603 58.1552 132.138 57.7897 132.779 57.5339C133.42 57.2781 134.118 57.1519 134.872 57.1519C135.626 57.1519 136.364 57.2814 136.988 57.5372C137.613 57.793 138.144 58.1618 138.583 58.6369L138.586 58.6302ZM138.453 62.8528C138.453 61.4309 138.134 60.3312 137.497 59.5605C136.859 58.7864 135.988 58.401 134.885 58.401C133.782 58.401 132.899 58.7864 132.261 59.5605C131.626 60.3345 131.307 61.4309 131.307 62.8528C131.307 64.2747 131.63 65.391 132.277 66.1551C132.925 66.9192 133.792 67.2979 134.882 67.2979C135.972 67.2979 136.839 66.9159 137.483 66.1551C138.128 65.391 138.45 64.2913 138.45 62.8528H138.453Z" fill="white"/>
<path d="M148.945 68.3278H142.012V57.3711H143.47V67.0321H148.945V68.3278Z" fill="white"/>
<path d="M158.153 58.6302C158.598 59.1219 158.94 59.7233 159.179 60.4342C159.418 61.1452 159.535 61.9525 159.535 62.8561C159.535 63.7598 159.412 64.5671 159.169 65.2813C158.927 65.9956 158.588 66.5903 158.149 67.0654C157.698 67.5604 157.166 67.9325 156.548 68.185C155.933 68.4341 155.229 68.5604 154.438 68.5604C153.648 68.5604 152.967 68.4341 152.339 68.1783C151.708 67.9225 151.173 67.5538 150.731 67.0687C150.289 66.5837 149.95 65.9857 149.711 65.2813C149.472 64.5737 149.355 63.7664 149.355 62.8594C149.355 61.9525 149.472 61.1651 149.708 60.4575C149.944 59.7498 150.286 59.1419 150.738 58.6369C151.169 58.1552 151.704 57.7897 152.345 57.5339C152.987 57.2781 153.684 57.1519 154.438 57.1519C155.193 57.1519 155.93 57.2814 156.555 57.5372C157.179 57.793 157.711 58.1618 158.149 58.6369L158.153 58.6302ZM158.02 62.8528C158.02 61.4309 157.701 60.3312 157.063 59.5605C156.425 58.7864 155.555 58.401 154.452 58.401C153.349 58.401 152.465 58.7864 151.827 59.5605C151.193 60.3345 150.874 61.4309 150.874 62.8528C150.874 64.2747 151.196 65.391 151.844 66.1551C152.492 66.9192 153.359 67.2979 154.448 67.2979C155.538 67.2979 156.405 66.9159 157.05 66.1551C157.694 65.391 158.017 64.2913 158.017 62.8528H158.02Z" fill="white"/>
<path d="M170.717 67.5206C170.119 67.7963 169.465 68.0355 168.757 68.2382C168.049 68.4408 167.362 68.5438 166.701 68.5438C165.847 68.5438 165.066 68.4275 164.352 68.1917C163.637 67.9558 163.036 67.6036 162.534 67.1319C162.03 66.6568 161.638 66.0621 161.365 65.3478C161.089 64.6335 160.953 63.7997 160.953 62.8429C160.953 61.0921 161.465 59.71 162.488 58.6967C163.511 57.6834 164.917 57.1785 166.701 57.1785C167.325 57.1785 167.96 57.2516 168.611 57.4044C169.262 57.5539 169.96 57.8064 170.711 58.1652V59.8961H170.578C170.425 59.7798 170.206 59.6236 169.916 59.4309C169.627 59.2382 169.342 59.0788 169.063 58.9525C168.724 58.7997 168.342 58.6735 167.91 58.5738C167.481 58.4741 166.993 58.4243 166.448 58.4243C165.222 58.4243 164.252 58.8196 163.538 59.607C162.824 60.3944 162.468 61.4608 162.468 62.803C162.468 64.2216 162.84 65.3246 163.588 66.1119C164.335 66.8993 165.348 67.2947 166.634 67.2947C167.106 67.2947 167.574 67.2481 168.043 67.1551C168.511 67.0621 168.923 66.9425 169.275 66.793V64.1086H166.338V62.8296H170.717V67.5339V67.5206Z" fill="white"/>
<path d="M176.861 68.3279H172.535V67.2084H173.97V58.4875H172.535V57.3679H176.861V58.4875H175.425V67.2084H176.861V68.3279Z" fill="white"/>
<path d="M187.035 65.2015C187.035 65.6301 186.935 66.052 186.736 66.4673C186.537 66.8826 186.258 67.2381 185.902 67.5271C185.51 67.8427 185.052 68.0852 184.53 68.2646C184.008 68.4407 183.377 68.5304 182.643 68.5304C181.852 68.5304 181.141 68.4573 180.513 68.3112C179.882 68.165 179.241 67.9457 178.59 67.6567V65.8328H178.693C179.248 66.2946 179.889 66.65 180.613 66.8992C181.337 67.1484 182.022 67.2746 182.66 67.2746C183.563 67.2746 184.264 67.1052 184.769 66.7663C185.271 66.4275 185.523 65.9756 185.523 65.4108C185.523 64.9258 185.404 64.567 185.168 64.3378C184.932 64.1085 184.567 63.9291 184.081 63.7996C183.713 63.6999 183.314 63.6202 182.885 63.557C182.457 63.4939 182.002 63.4109 181.52 63.3145C180.55 63.1085 179.829 62.7564 179.361 62.2581C178.892 61.7597 178.656 61.1119 178.656 60.3112C178.656 59.3943 179.045 58.6435 179.819 58.0554C180.593 57.4707 181.577 57.175 182.769 57.175C183.54 57.175 184.244 57.2481 184.889 57.3943C185.53 57.5405 186.101 57.7232 186.596 57.9392V59.6601H186.493C186.075 59.3079 185.527 59.0122 184.849 58.7797C184.168 58.5471 183.474 58.4309 182.763 58.4309C181.982 58.4309 181.357 58.5936 180.882 58.9159C180.41 59.2381 180.171 59.6568 180.171 60.1684C180.171 60.6235 180.287 60.9823 180.523 61.2415C180.759 61.5006 181.175 61.6999 181.766 61.8361C182.078 61.9059 182.527 61.989 183.105 62.0853C183.683 62.185 184.174 62.2846 184.576 62.3876C185.39 62.6036 186.005 62.9291 186.417 63.3677C186.829 63.8029 187.035 64.4142 187.035 65.2015Z" fill="white"/>
<path d="M196.922 58.6668H193.008V68.3311H191.55V58.6668H187.633V57.3711H196.922V58.6668Z" fill="white"/>
<path d="M62.0936 33.5441H48.1602V30.4378L56.4225 20.1688H48.5621V16.9629H61.6484V20.1257L53.3893 30.3382H62.0936V33.5441Z" fill="white"/>
<path d="M74.3671 33.544H64.6562V30.6039H67.3738V19.8996H64.6562V16.9595H74.3671V19.8996H71.6495V30.6039H74.3671V33.544Z" fill="white"/>
<path d="M93.2788 33.544H89.1593L82.1194 22.1621V33.544H78.1992V16.9595H83.3121L89.3586 26.461V16.9595H93.2788V33.544Z" fill="white"/>
<path d="M109.852 33.544H97.8555V16.9595H109.852V20.1654H102.111V23.0292H109.294V26.2385H102.111V30.3381H109.852V33.544Z" fill="white"/>
<path d="M63.2303 52.5538H58.9545V45.2482H52.639V52.5538H48.3633V35.9692H52.639V42.0389H58.9545V35.9692H63.2303V52.5538Z" fill="white"/>
<path d="M83.9321 44.2682C83.9321 46.9127 83.1747 49.0124 81.6597 50.5672C80.1448 52.122 78.0518 52.8994 75.3774 52.8994C72.703 52.8994 70.62 52.122 69.1083 50.5672C67.5934 49.0124 66.8359 46.9127 66.8359 44.2682C66.8359 41.6237 67.5934 39.4942 69.1083 37.946C70.6233 36.3979 72.713 35.6238 75.3774 35.6238C78.0418 35.6238 80.1248 36.3979 81.6464 37.946C83.168 39.4942 83.9288 41.6005 83.9288 44.2682H83.9321ZM78.2644 48.4675C78.6797 47.9625 78.9886 47.3679 79.188 46.6802C79.3873 45.9924 79.4903 45.1852 79.4903 44.2582C79.4903 43.2649 79.374 42.4177 79.1448 41.7201C78.9156 41.0224 78.6132 40.4576 78.2445 40.0291C77.8657 39.5839 77.4305 39.2616 76.9355 39.059C76.4405 38.8563 75.9289 38.7566 75.394 38.7566C74.8591 38.7566 74.3408 38.853 73.8624 39.0457C73.384 39.2384 72.9422 39.5573 72.5435 40.0025C72.1714 40.4178 71.8691 40.9925 71.6366 41.7234C71.404 42.4543 71.2844 43.3014 71.2844 44.2682C71.2844 45.235 71.3974 46.0954 71.6233 46.7898C71.8492 47.4841 72.1482 48.0489 72.5203 48.4874C72.8924 48.926 73.3242 49.2482 73.8226 49.4575C74.3209 49.6635 74.8425 49.7698 75.394 49.7698C75.9455 49.7698 76.4671 49.6635 76.9654 49.4509C77.4637 49.2383 77.8956 48.9094 78.2677 48.4642L78.2644 48.4675Z" fill="white"/>
<path d="M102.066 46.554C102.066 48.6038 101.441 50.1752 100.196 51.2649C98.9497 52.3546 97.1092 52.9027 94.6839 52.9027C92.2587 52.9027 90.4215 52.3579 89.1757 51.2649C87.9298 50.1719 87.3086 48.6071 87.3086 46.5639V35.9727H91.6076V46.3181C91.6076 47.4676 91.8501 48.328 92.3318 48.8895C92.8135 49.4543 93.5976 49.7367 94.6806 49.7367C95.7637 49.7367 96.5311 49.4642 97.0261 48.9227C97.5211 48.3812 97.767 47.5108 97.767 46.3181V35.9727H102.066V46.554Z" fill="white"/>
<path d="M119.684 47.3446C119.684 48.9792 118.993 50.3047 117.607 51.3247C116.222 52.3446 114.342 52.8562 111.966 52.8562C110.594 52.8562 109.395 52.7366 108.375 52.4941C107.355 52.2516 106.398 51.9459 105.508 51.5738V47.5971H105.976C106.86 48.3014 107.85 48.8429 108.943 49.2217C110.039 49.6004 111.089 49.7898 112.099 49.7898C112.358 49.7898 112.7 49.7665 113.122 49.7233C113.544 49.6801 113.89 49.6037 114.159 49.5007C114.484 49.3679 114.754 49.1984 114.966 48.9991C115.179 48.7998 115.285 48.5008 115.285 48.1087C115.285 47.7466 115.132 47.431 114.823 47.1685C114.514 46.9061 114.063 46.7034 113.471 46.5606C112.847 46.4111 112.189 46.2715 111.494 46.142C110.8 46.0124 110.149 45.8463 109.541 45.647C108.146 45.1951 107.142 44.5805 106.528 43.8031C105.916 43.0291 105.607 42.0623 105.607 40.9128C105.607 39.368 106.299 38.1088 107.684 37.1321C109.069 36.1554 110.85 35.667 113.023 35.667C114.116 35.667 115.192 35.7733 116.259 35.9859C117.325 36.1985 118.245 36.4643 119.026 36.7833V40.6038H118.571C117.903 40.0689 117.082 39.6204 116.116 39.2616C115.146 38.9028 114.159 38.7201 113.149 38.7201C112.793 38.7201 112.438 38.7434 112.086 38.7932C111.734 38.843 111.395 38.9327 111.066 39.0656C110.777 39.1786 110.528 39.3447 110.318 39.5739C110.109 39.7998 110.006 40.059 110.006 40.348C110.006 40.7865 110.172 41.1221 110.508 41.3546C110.843 41.5872 111.475 41.8031 112.401 41.9958C113.009 42.1221 113.594 42.245 114.156 42.3646C114.717 42.4842 115.318 42.647 115.966 42.8563C117.235 43.2716 118.172 43.8397 118.777 44.554C119.381 45.2716 119.684 46.2018 119.684 47.3446Z" fill="white"/>
<path d="M136.235 47.3446C136.235 48.9792 135.544 50.3047 134.158 51.3247C132.773 52.3446 130.892 52.8562 128.517 52.8562C127.145 52.8562 125.946 52.7366 124.926 52.4941C123.906 52.2516 122.949 51.9459 122.059 51.5738V47.5971H122.527C123.411 48.3014 124.401 48.8429 125.494 49.2217C126.59 49.6004 127.64 49.7898 128.65 49.7898C128.909 49.7898 129.251 49.7665 129.673 49.7233C130.095 49.6801 130.441 49.6037 130.71 49.5007C131.035 49.3679 131.304 49.1984 131.517 48.9991C131.73 48.7998 131.836 48.5008 131.836 48.1087C131.836 47.7466 131.683 47.431 131.374 47.1685C131.065 46.9061 130.613 46.7034 130.022 46.5606C129.397 46.4111 128.74 46.2715 128.045 46.142C127.351 46.0124 126.7 45.8463 126.092 45.647C124.696 45.1951 123.693 44.5805 123.079 43.8031C122.467 43.0291 122.158 42.0623 122.158 40.9128C122.158 39.368 122.849 38.1088 124.235 37.1321C125.62 36.1554 127.401 35.667 129.573 35.667C130.666 35.667 131.743 35.7733 132.809 35.9859C133.876 36.1985 134.796 36.4643 135.577 36.7833V40.6038H135.122C134.454 40.0689 133.633 39.6204 132.666 39.2616C131.696 38.9028 130.71 38.7201 129.7 38.7201C129.344 38.7201 128.989 38.7434 128.637 38.7932C128.284 38.843 127.946 38.9327 127.617 39.0656C127.328 39.1786 127.078 39.3447 126.869 39.5739C126.66 39.7998 126.557 40.059 126.557 40.348C126.557 40.7865 126.723 41.1221 127.059 41.3546C127.394 41.5872 128.025 41.8031 128.952 41.9958C129.56 42.1221 130.145 42.245 130.706 42.3646C131.268 42.4842 131.869 42.647 132.517 42.8563C133.786 43.2716 134.723 43.8397 135.328 44.554C135.932 45.2716 136.235 46.2018 136.235 47.3446Z" fill="white"/>
<path d="M151.504 52.5538H139.508V35.9692H151.504V39.1785H143.764V42.0423H150.946V45.2482H143.764V49.3479H151.504V52.5571V52.5538Z" fill="white"/>
<path d="M164.402 52.5538H154.691V49.6136H157.409V38.9094H154.691V35.9692H164.402V38.9094H161.685V49.6136H164.402V52.5538Z" fill="white"/>
<path d="M183.314 52.5538H179.194L172.155 41.1718V52.5538H168.234V35.9692H173.347L179.394 45.4708V35.9692H183.314V52.5538Z" fill="white"/>
<path d="M196.855 52.5538H187.145V49.6136H189.862V38.9094H187.145V35.9692H196.855V38.9094H194.138V49.6136H196.855V52.5538Z" fill="white"/>
<path d="M57.73 13.0892H56.2716V3.64409L53.2251 10.0693H52.358L49.3348 3.64409V13.0859H47.9727V2.12915H49.9593L52.8796 8.22876L55.7068 2.12915H57.73V13.0859V13.0892Z" fill="white"/>
<path d="M69.9687 13.0892H68.0784L64.4139 8.73374H62.3608V13.0892H60.9023V2.12915H63.9721C64.6332 2.12915 65.1847 2.17234 65.6266 2.25872C66.0684 2.3451 66.4671 2.49792 66.8192 2.71718C67.2179 2.96635 67.5269 3.28196 67.7495 3.66402C67.972 4.04275 68.085 4.5278 68.085 5.10919C68.085 5.89988 67.8857 6.561 67.4903 7.09256C67.0917 7.62411 66.5468 8.0261 65.8491 8.29521L69.972 13.0859L69.9687 13.0892ZM66.5601 5.2155C66.5601 4.89989 66.5036 4.62414 66.394 4.38162C66.2844 4.1391 66.1016 3.93312 65.8458 3.76701C65.6365 3.62415 65.384 3.52449 65.095 3.46801C64.806 3.41153 64.4638 3.38495 64.0717 3.38495H62.3575V7.52113H63.8292C64.291 7.52113 64.693 7.48126 65.0352 7.3982C65.3774 7.31847 65.6697 7.16565 65.9123 6.94638C66.1349 6.7404 66.2976 6.50452 66.4006 6.23542C66.5069 5.96965 66.5601 5.62746 66.5601 5.2155Z" fill="white"/>
<path d="M73.4957 13.0892H71.7383V10.9929H73.4957V13.0892Z" fill="white"/>
<path d="M13.024 8.75034C13.024 9.08921 12.9941 9.42143 12.931 9.74369C12.5423 11.8433 10.941 13.5211 8.88121 14.0194C8.47257 14.1191 8.044 14.1722 7.60547 14.1722C4.61546 14.1722 2.18359 11.7403 2.18359 8.75034C2.18359 5.76034 4.61546 3.33179 7.60547 3.33179C10.5955 3.33179 13.024 5.76366 13.024 8.75034Z" fill="white"/>
</svg>
