<svg width="201" height="52" viewBox="0 0 201 52" fill="none" xmlns="http://www.w3.org/2000/svg">
<g clip-path="url(#clip0_5120_789)">
<mask id="mask0_5120_789" style="mask-type:luminance" maskUnits="userSpaceOnUse" x="0" y="0" width="201" height="52">
<path d="M200.197 0.5896H0.402344V51.1208H200.197V0.5896Z" fill="white"/>
</mask>
<g mask="url(#mask0_5120_789)">
<path d="M24.6619 30.653L5.34685 11.8825V28.739H0.757812V1.41895L20.0729 20.2405V3.51165H24.6756V30.653H24.6619ZM4.75781 10.4916L24.0729 29.2621V4.07311H20.6756V21.6314L1.36055 2.80983V28.1775H4.75781V10.4916Z" fill="white"/>
<path d="M25.0188 31.4826L5.70371 12.6992V29.0581H0.402344V0.5896L19.7174 19.4112V3.17996H25.0188V31.4826ZM4.40234 9.66226L23.7174 28.4328V4.40496H21.0325V22.461L1.71741 3.62658V27.8459H4.40234V9.66226Z" fill="white"/>
<path d="M52.6489 28.739H37.4297V3.51172H52.6489V7.56953H42.0324V12.9417H52.3338V16.9994H42.0324V24.6812H52.6489V28.739ZM38.0324 28.1776H52.0461V25.2427H41.4297V16.438H51.7311V13.5031H41.4297V7.02083H52.0461V4.08594H38.0324V28.1903V28.1776Z" fill="white"/>
<path d="M53.0037 29.0708H37.0859V3.17993H53.0037V7.90129H42.3873V12.6099H52.6887V17.3312H42.3873V24.3494H53.0037V29.0708ZM38.3873 27.8458H51.6887V25.5617H41.0722V16.0934H51.3736V13.8093H41.0722V6.66353H51.6887V4.37941H38.3873V27.833V27.8458Z" fill="white"/>
<path d="M70.6765 28.739H64.3203V3.51172H68.5943C70.3888 3.51172 71.8409 3.63932 72.9094 3.90729C74.0189 4.17526 74.9642 4.63464 75.7313 5.2599C76.4984 5.91068 77.1285 6.7401 77.5806 7.7099C78.0463 8.69245 78.2792 9.68776 78.2792 10.6958C78.2792 12.393 77.6354 13.8604 76.3477 15.0854C77.5943 15.5703 78.6217 16.3359 79.3751 17.3822C80.2244 18.5307 80.6628 19.8833 80.6628 21.4018C80.6628 23.4052 79.8957 25.1151 78.3751 26.4932C77.471 27.3354 76.4299 27.9351 75.2929 28.2669C74.06 28.5859 72.5258 28.739 70.6902 28.739H70.6765ZM64.9231 28.1776H70.6765C72.4436 28.1776 73.9367 28.0244 75.1011 27.7182C76.1422 27.4119 77.0874 26.8632 77.9367 26.0848C79.334 24.8088 80.0463 23.2393 80.0463 21.389C80.0463 19.9854 79.6491 18.7348 78.8683 17.6757C78.1011 16.6166 77.0326 15.8638 75.6902 15.4299L75.2107 15.2768L75.5943 14.9578C76.9778 13.7966 77.6765 12.3547 77.6765 10.6703C77.6765 9.7388 77.4573 8.82005 77.0326 7.9013C76.6217 7.00807 76.0463 6.24245 75.334 5.64271C74.6491 5.06849 73.7861 4.66016 72.7724 4.41771C71.745 4.17526 70.3477 4.04766 68.608 4.04766H64.9231V28.152V28.1776ZM71.0874 25.2427H68.3203V17.2164H70.6491C72.8957 17.2164 74.4299 17.5864 75.334 18.3648C76.2518 19.1432 76.7176 20.113 76.7176 21.2614C76.7176 22.4098 76.2381 23.4307 75.2792 24.1835C74.3751 24.8854 72.9778 25.2427 71.1011 25.2427H71.0874ZM68.9231 24.6812H71.0874C72.8135 24.6812 74.0874 24.3749 74.8683 23.7497C75.6902 23.0861 76.1011 22.2695 76.1011 21.2486C76.1011 20.2278 75.7176 19.4494 74.9094 18.7731C74.1285 18.1096 72.6902 17.7778 70.6354 17.7778H68.9094V24.6812H68.9231ZM69.8683 14.6643H68.3203V6.93151H70.0326C71.4573 6.93151 72.5532 7.26328 73.3203 7.9013C74.0874 8.55208 74.4847 9.50911 74.4847 10.7469C74.4847 11.9846 74.1011 12.9927 73.3477 13.6562C72.608 14.3197 71.4299 14.6515 69.8683 14.6515V14.6643ZM68.9231 14.1028H69.8683C71.2655 14.1028 72.2929 13.8221 72.9231 13.2607C73.5532 12.712 73.8683 11.857 73.8683 10.7596C73.8683 9.66224 73.5395 8.87109 72.9094 8.3224C72.2655 7.7737 71.2929 7.49297 70.0189 7.49297H68.9094V14.1028H68.9231Z" fill="white"/>
<path d="M70.6772 29.0708H63.9648V3.17993H68.595C70.4169 3.17993 71.8964 3.3203 72.9922 3.58826C74.1566 3.86899 75.1429 4.35389 75.9511 5.01743C76.7594 5.70649 77.4169 6.56144 77.8827 7.58228C78.3621 8.60311 78.6087 9.64946 78.6087 10.6958C78.6087 12.3164 78.047 13.7583 76.9237 14.9705C78.0333 15.4809 78.9511 16.2338 79.6498 17.1908C80.5402 18.3903 80.9922 19.8067 80.9922 21.4018C80.9922 23.4945 80.184 25.2809 78.595 26.7229C77.6498 27.6033 76.5539 28.2286 75.3621 28.5731C74.0881 28.9049 72.5128 29.0708 70.6498 29.0708H70.6772ZM65.2799 27.8458H70.6772C72.4169 27.8458 73.8827 27.6927 75.0196 27.3992C75.9922 27.1184 76.8963 26.5953 77.7046 25.8424C79.0333 24.6302 79.7046 23.1372 79.7046 21.389C79.7046 20.0492 79.3347 18.8624 78.5813 17.8671C77.8553 16.8591 76.8416 16.1445 75.5813 15.7489L74.5265 15.4171L75.3484 14.7281C76.6498 13.6307 77.3073 12.2653 77.3073 10.6958C77.3073 9.81535 77.1018 8.93488 76.6909 8.06717C76.2936 7.21222 75.7594 6.49764 75.0881 5.92342C74.4443 5.38748 73.6224 4.99191 72.6772 4.76222C71.6772 4.51978 70.3073 4.39217 68.6087 4.39217H65.2799V27.8458ZM71.0881 25.5617H67.9648V16.8846H70.6498C72.9922 16.8846 74.595 17.2929 75.5676 18.1096C76.5676 18.9518 77.0607 19.9981 77.0607 21.2486C77.0607 22.4992 76.5402 23.5966 75.4991 24.426C74.5265 25.1789 73.047 25.5617 71.0881 25.5617ZM69.2799 24.3494H71.1018C72.7457 24.3494 73.9374 24.0687 74.6635 23.5072C75.4032 22.9203 75.7731 22.1802 75.7731 21.2614C75.7731 20.3427 75.4169 19.6408 74.7046 19.0283C73.9922 18.4286 72.6361 18.1223 70.6635 18.1223H69.2936V24.3622L69.2799 24.3494ZM69.8689 14.996H67.9648V6.59972H70.0196C71.5265 6.59972 72.7183 6.95702 73.5539 7.65884C74.4032 8.37342 74.8279 9.41978 74.8279 10.7596C74.8279 12.0995 74.4169 13.1841 73.5813 13.9114C72.7731 14.626 71.5128 14.996 69.8689 14.996ZM69.2799 13.771H69.8827C71.184 13.771 72.1292 13.5158 72.7046 13.0182C73.2525 12.5333 73.5402 11.7677 73.5402 10.7469C73.5402 9.72603 73.2525 9.03696 72.6909 8.55207C72.1155 8.05441 71.2251 7.81196 70.047 7.81196H69.2936V13.771H69.2799Z" fill="white"/>
<path d="M110.184 28.739H104.554L96.9919 18.6455H96.7316V28.739H92.1289V3.51172H97.1152C100.677 3.51172 103.293 4.14974 104.896 5.41302C106.677 6.82943 107.581 8.71797 107.581 11.0276C107.581 12.8268 107.019 14.4091 105.91 15.7106C104.882 16.9101 103.554 17.714 101.923 18.1223L110.211 28.739H110.184ZM104.855 28.1776H108.992L100.869 17.7651L101.321 17.6757C103.006 17.344 104.375 16.5656 105.403 15.3661C106.43 14.1666 106.951 12.712 106.951 11.0404C106.951 8.89661 106.115 7.14844 104.485 5.85964C102.992 4.68568 100.512 4.08594 97.1015 4.08594H92.7179V28.1903H96.1152V18.0968H97.2933L104.855 28.1903V28.1776ZM97.6905 15.3916H96.1152V7.00807H97.8412C101.704 7.00807 103.663 8.37344 103.663 11.0786C103.663 13.9497 101.649 15.4044 97.6905 15.4044V15.3916ZM96.7179 14.8302H97.6905C101.307 14.8302 103.06 13.6052 103.06 11.0659C103.06 8.70521 101.348 7.55677 97.8412 7.55677H96.7179V14.8302Z" fill="white"/>
<path d="M110.867 29.0708H104.347L97.0592 19.3473V29.0708H91.7578V3.17993H97.1003C100.744 3.17993 103.429 3.84347 105.1 5.1578C106.963 6.638 107.908 8.61587 107.908 11.0276C107.908 12.9034 107.319 14.5494 106.155 15.9148C105.196 17.0377 103.95 17.8416 102.47 18.301L110.867 29.0708ZM105.045 27.8458H108.306L100.265 17.5481L101.251 17.3567C102.854 17.0377 104.155 16.2976 105.128 15.1619C106.1 14.0262 106.593 12.6354 106.593 11.0403C106.593 8.99868 105.799 7.33983 104.251 6.10207C102.826 4.97915 100.415 4.40493 97.1003 4.40493H93.0729V27.8585H95.7578V17.765H97.4701L105.032 27.8585L105.045 27.8458ZM97.6893 15.7234H95.7715V6.67629H97.8537C102.963 6.67629 104.032 9.06248 104.032 11.0786C104.032 14.9195 100.593 15.7361 97.703 15.7361L97.6893 15.7234ZM97.0729 14.5111H97.6893C101.114 14.5111 102.717 13.4265 102.717 11.0786C102.717 9.71326 102.21 7.90129 97.8537 7.90129H97.0866V14.5111H97.0729Z" fill="white"/>
<path d="M143.771 28.739H138.73L135.949 22.7416H125.004L122.059 28.739H117.086L130.661 1.55933L143.757 28.7262L143.771 28.739ZM139.127 28.1775H142.839L130.661 2.91193L118.031 28.1775H121.675L124.62 22.1801H136.346L139.127 28.1775ZM134.976 19.2453H126.004L130.593 9.89188L134.976 19.2453ZM126.949 18.6838H134.072L130.593 11.2572L126.949 18.6838Z" fill="white"/>
<path d="M144.322 29.0709H138.5L135.719 23.0735H125.226L122.281 29.0709H116.527L130.678 0.768311L144.322 29.0581V29.0709ZM139.363 27.8459H142.294L130.651 3.7032L118.582 27.8459H121.445L124.39 21.8485H136.582L139.363 27.8459ZM135.527 19.5771H125.459L130.61 9.0881L135.527 19.5771ZM127.5 18.3521H133.527L130.582 12.074L127.5 18.3521Z" fill="white"/>
<path d="M160.771 29.1856C158.401 29.1856 156.429 28.5221 154.881 27.2077C153.36 25.9062 152.401 24.0431 152.018 21.6952L151.977 21.44L156.62 20.483L156.661 20.7892C156.84 22.1801 157.141 23.1499 157.566 23.6603C158.346 24.6684 159.442 25.1533 160.935 25.1533C162.114 25.1533 163.059 24.796 163.826 24.0687C164.593 23.3413 164.977 22.4353 164.977 21.3124C164.977 20.8658 164.908 20.4575 164.771 20.0874C164.634 19.7301 164.429 19.3856 164.155 19.0793C163.867 18.7731 163.497 18.4668 163.045 18.1861C162.579 17.9054 162.018 17.6247 161.374 17.3694L158.826 16.3741C155.1 14.9067 153.209 12.7119 153.209 9.85361C153.209 7.92679 154.018 6.29346 155.593 4.99189C157.168 3.69033 159.141 3.03955 161.47 3.03955C164.62 3.03955 167.114 4.48148 168.881 7.33981L169.031 7.58226L165.278 9.66221L165.127 9.41976C164.552 8.48825 164.004 7.87575 163.497 7.60778C162.963 7.28877 162.278 7.13564 161.442 7.13564C160.415 7.13564 159.552 7.40361 158.881 7.95231C158.209 8.47549 157.894 9.11351 157.894 9.91742C157.894 10.9893 158.798 11.8825 160.593 12.5716L163.237 13.5796C165.429 14.409 167.059 15.4299 168.072 16.6293C169.1 17.8416 169.634 19.3473 169.634 21.0955C169.634 23.4306 168.785 25.3958 167.114 26.9142C165.429 28.4455 163.305 29.2366 160.812 29.2366L160.771 29.1856ZM152.661 21.8611C153.045 23.9666 153.922 25.6254 155.292 26.7866C156.73 27.9989 158.566 28.6114 160.785 28.6114C163.114 28.6114 165.1 27.884 166.661 26.4549C168.223 25.0385 169.004 23.2137 169.004 21.0317C169.004 19.4111 168.525 18.0202 167.579 16.9101C166.62 15.7872 165.072 14.8174 162.99 14.0262L160.346 13.0182C158.305 12.2398 157.278 11.1679 157.278 9.85361C157.278 8.89658 157.689 8.09268 158.483 7.46742C159.264 6.84215 160.264 6.52314 161.442 6.52314C162.401 6.52314 163.196 6.71455 163.812 7.0846C164.36 7.37809 164.908 7.96507 165.483 8.8583L168.209 7.35257C166.552 4.81325 164.346 3.57549 161.47 3.57549C159.292 3.57549 157.456 4.18799 155.99 5.38747C154.538 6.57419 153.812 8.06715 153.812 9.82809C153.812 12.4823 155.525 14.4473 159.072 15.8382L161.62 16.8335C162.305 17.1015 162.894 17.395 163.388 17.7012C163.894 18.0075 164.305 18.3392 164.634 18.6965C164.963 19.0538 165.209 19.4622 165.36 19.896C165.511 20.3171 165.593 20.802 165.593 21.2997C165.593 22.5629 165.155 23.6221 164.278 24.4515C163.401 25.2809 162.278 25.702 160.963 25.702C159.292 25.702 157.99 25.1278 157.114 23.9921C156.661 23.4434 156.333 22.5119 156.141 21.1593L152.689 21.8611H152.661Z" fill="white"/>
<path d="M160.774 29.5174C158.322 29.5174 156.253 28.8283 154.637 27.4629C153.048 26.0976 152.061 24.1835 151.664 21.7463L151.582 21.1848L156.938 20.0874L157.02 20.751C157.226 22.4098 157.582 23.1372 157.856 23.4562C158.568 24.3877 159.555 24.8215 160.938 24.8215C162.007 24.8215 162.87 24.5025 163.582 23.839C164.281 23.1754 164.623 22.346 164.623 21.3124C164.623 20.9041 164.568 20.5213 164.445 20.1895C164.335 19.8705 164.144 19.5642 163.897 19.2835C163.637 18.99 163.294 18.722 162.87 18.4541C162.418 18.1861 161.883 17.9181 161.253 17.6629L158.705 16.6804C154.829 15.1491 152.87 12.8523 152.87 9.8536C152.87 7.82469 153.705 6.10203 155.377 4.74943C157.007 3.39683 159.075 2.70776 161.486 2.70776C164.774 2.70776 167.377 4.21349 169.212 7.16115L169.541 7.68433L165.171 10.096L164.842 9.56011C164.157 8.46271 163.651 8.02886 163.349 7.86297C162.87 7.58224 162.24 7.42912 161.472 7.42912C160.527 7.42912 159.746 7.67157 159.144 8.15646C158.555 8.6286 158.281 9.16453 158.281 9.86636C158.281 10.7979 159.116 11.5763 160.76 12.2143L163.404 13.2223C165.651 14.0645 167.322 15.1236 168.39 16.3741C169.472 17.6502 170.02 19.2197 170.02 21.0444C170.02 23.4689 169.13 25.5106 167.39 27.1056C165.637 28.7007 163.431 29.5174 160.842 29.5174H160.774ZM153.075 22.1163C153.472 23.9921 154.294 25.4851 155.527 26.5442C156.897 27.6926 158.664 28.2796 160.774 28.2796C163.007 28.2796 164.897 27.5905 166.404 26.2124C167.883 24.8598 168.637 23.1116 168.637 21.0189C168.637 19.4749 168.185 18.1606 167.281 17.1142C166.363 16.0424 164.87 15.0981 162.829 14.3325L160.185 13.3244C158.007 12.495 156.897 11.321 156.897 9.8536C156.897 8.79448 157.349 7.90125 158.226 7.21219C159.075 6.53589 160.144 6.19136 161.404 6.19136C162.431 6.19136 163.294 6.39552 163.966 6.80386C164.486 7.08459 165.02 7.62052 165.568 8.39891L167.678 7.23771C166.116 4.99188 164.061 3.90724 161.431 3.90724C159.349 3.90724 157.582 4.49422 156.185 5.64266C154.815 6.76558 154.13 8.16922 154.13 9.84084C154.13 12.3419 155.774 14.2049 159.171 15.5447L161.719 16.54C162.418 16.8207 163.034 17.127 163.541 17.4332C164.075 17.7523 164.514 18.1095 164.856 18.4924C165.212 18.8879 165.472 19.3218 165.651 19.7939C165.815 20.2533 165.897 20.7637 165.897 21.2997C165.897 22.6523 165.418 23.7879 164.472 24.6812C163.527 25.5744 162.322 26.0338 160.897 26.0338C159.103 26.0338 157.719 25.4085 156.76 24.1835C156.308 23.6348 155.993 22.7799 155.774 21.5676L153.034 22.1291L153.075 22.1163Z" fill="white"/>
<path d="M196.951 6.72725H192.362H178.992V2.66943H199.568L196.951 6.72725ZM179.595 6.15303H196.609L198.499 3.23089H179.595V6.15303Z" fill="white"/>
<path d="M197.155 7.04648H192.374H178.648V2.33789H200.21L197.169 7.04648H197.155ZM179.95 5.82148H196.402L197.868 3.56289H179.936V5.82148H179.95Z" fill="white"/>
<path d="M182.569 28.739H177.473L190.788 8.41162H195.884L182.582 28.739H182.569ZM178.541 28.1775H182.24L194.815 8.97308H191.13L178.555 28.1775H178.541Z" fill="white"/>
<path d="M182.771 29.0709H176.84L190.58 8.09277H196.511L182.771 29.0709ZM179.169 27.8587H182.032L194.169 9.31777H191.306L179.155 27.8587H179.169Z" fill="white"/>
<path d="M67.4438 50.0107C67.5807 50.0107 67.6492 50.0745 67.6492 50.2022V50.6232C67.6492 50.7508 67.5807 50.8147 67.4438 50.8147H61.4438C61.3068 50.8147 61.2383 50.7508 61.2383 50.6232L61.2794 41.5889C61.2794 41.4613 61.3479 41.3975 61.4849 41.3975H67.4027C67.5397 41.3975 67.6081 41.4613 67.6081 41.5889V42.01C67.6081 42.1376 67.5397 42.2014 67.4027 42.2014H62.2109V45.4553H66.6355C66.7725 45.4553 66.841 45.5191 66.841 45.6467V46.0678C66.841 46.1954 66.7725 46.2592 66.6355 46.2592H62.2383V49.998H67.4438V50.0107Z" fill="white"/>
<path d="M67.4422 50.9804H61.4422C61.2093 50.9804 61.0586 50.84 61.0586 50.6231L61.0997 41.5887C61.0997 41.3718 61.2504 41.2314 61.4833 41.2314H67.4011C67.6339 41.2314 67.7846 41.3718 67.7846 41.5887V42.0098C67.7846 42.2268 67.6339 42.3671 67.4011 42.3671H62.3874V45.302H66.6339C66.8668 45.302 67.0175 45.4424 67.0175 45.6593V46.0804C67.0175 46.2973 66.8668 46.4377 66.6339 46.4377H62.4148V49.8447H67.4422C67.675 49.8447 67.8257 49.9851 67.8257 50.202V50.6231C67.8257 50.84 67.675 50.9804 67.4422 50.9804ZM61.4011 50.6486C61.4011 50.6486 61.4148 50.6486 61.4285 50.6486H67.4285H67.4559C67.4559 50.6486 67.4559 50.6359 67.4559 50.6231V50.202V50.1765C67.4559 50.1765 67.4422 50.1765 67.4285 50.1765H62.0586V46.1059H66.6202C66.6339 46.1059 66.6476 46.1059 66.6476 46.1059C66.6476 46.1059 66.6476 46.0932 66.6476 46.0804V45.6593V45.6338C66.6476 45.6338 66.6476 45.6338 66.6202 45.6338H62.0312V42.0481H67.3874C67.4011 42.0481 67.4148 42.0481 67.4148 42.0481C67.4148 42.0481 67.4148 42.0354 67.4148 42.0226V41.6015V41.576C67.4148 41.576 67.4011 41.576 67.3874 41.576H61.4696H61.4422C61.4422 41.576 61.4422 41.5887 61.4422 41.6015L61.4011 50.6359V50.6614V50.6486Z" fill="white"/>
<path d="M82.3608 41.3975C82.5115 41.3975 82.58 41.4868 82.5252 41.6144L78.9773 50.6615C78.9362 50.7636 78.8677 50.8147 78.7444 50.8147H77.9773C77.854 50.8147 77.7855 50.7636 77.7444 50.6615L74.2101 41.6144C74.1554 41.4868 74.2238 41.3975 74.3745 41.3975H74.9088C75.0321 41.3975 75.1006 41.4485 75.1417 41.5506L78.3334 49.5386H78.3882L81.5937 41.5506C81.6348 41.4485 81.7033 41.3975 81.8266 41.3975H82.3745H82.3608Z" fill="white"/>
<path d="M78.7443 50.9805H77.9772C77.7854 50.9805 77.6484 50.8911 77.5799 50.7125L74.032 41.6654C73.9909 41.5505 73.9909 41.4484 74.0594 41.3591C74.1278 41.2698 74.2374 41.2188 74.3744 41.2188H74.9087C75.0457 41.2188 75.2237 41.2698 75.3059 41.4867L78.3607 49.1302L81.4292 41.4867C81.5114 41.2698 81.7032 41.2188 81.8402 41.2188H82.3881C82.5251 41.2188 82.6347 41.2698 82.7032 41.3591C82.7717 41.4484 82.7717 41.5505 82.7306 41.6654L79.1826 50.7125C79.1004 50.9294 78.9087 50.9805 78.7717 50.9805H78.7443ZM74.3607 41.5505L77.895 50.5977C77.895 50.5977 77.9224 50.6487 77.9635 50.6487H78.7306C78.7306 50.6487 78.7854 50.6487 78.7991 50.5977L82.347 41.5505H81.7991C81.7991 41.5505 81.7443 41.5505 81.7306 41.6016L78.484 49.7044H78.1826L74.9498 41.6016C74.9498 41.6016 74.9224 41.5505 74.8813 41.5505H74.347H74.3607Z" fill="white"/>
<path d="M95.6508 50.0107C95.7878 50.0107 95.8563 50.0745 95.8563 50.2022V50.6232C95.8563 50.7508 95.7878 50.8147 95.6508 50.8147H89.6508C89.5138 50.8147 89.4453 50.7508 89.4453 50.6232L89.4864 41.5889C89.4864 41.4613 89.5549 41.3975 89.6919 41.3975H95.6097C95.7467 41.3975 95.8152 41.4613 95.8152 41.5889V42.01C95.8152 42.1376 95.7467 42.2014 95.6097 42.2014H90.4179V45.4553H94.8426C94.9796 45.4553 95.048 45.5191 95.048 45.6467V46.0678C95.048 46.1954 94.9796 46.2592 94.8426 46.2592H90.4453V49.998H95.6508V50.0107Z" fill="white"/>
<path d="M95.6492 50.9804H89.6492C89.4163 50.9804 89.2656 50.84 89.2656 50.6231L89.3067 41.5887C89.3067 41.3718 89.4574 41.2314 89.6903 41.2314H95.6081C95.841 41.2314 95.9916 41.3718 95.9916 41.5887V42.0098C95.9916 42.2268 95.841 42.3671 95.6081 42.3671H90.5944V45.302H94.841C95.0738 45.302 95.2245 45.4424 95.2245 45.6593V46.0804C95.2245 46.2973 95.0738 46.4377 94.841 46.4377H90.6218V49.8447H95.6492C95.8821 49.8447 96.0327 49.9851 96.0327 50.202V50.6231C96.0327 50.84 95.8821 50.9804 95.6492 50.9804ZM89.6081 50.6486C89.6081 50.6486 89.6218 50.6486 89.6355 50.6486H95.6355H95.6629C95.6629 50.6486 95.6629 50.6359 95.6629 50.6231V50.202V50.1765C95.6629 50.1765 95.6492 50.1765 95.6355 50.1765H90.2656V46.1059H94.8273C94.841 46.1059 94.8547 46.1059 94.8547 46.1059C94.8547 46.1059 94.8547 46.0932 94.8547 46.0804V45.6593V45.6338C94.8547 45.6338 94.8547 45.6338 94.8273 45.6338H90.2382V42.0481H95.5944C95.6081 42.0481 95.6218 42.0481 95.6218 42.0481C95.6218 42.0481 95.6218 42.0354 95.6218 42.0226V41.6015V41.576C95.6218 41.576 95.6081 41.576 95.5944 41.576H89.6766H89.6492C89.6492 41.576 89.6492 41.5887 89.6492 41.6015L89.6081 50.6359V50.6614V50.6486Z" fill="white"/>
<path d="M110.978 50.6232C110.978 50.7508 110.91 50.8147 110.773 50.8147H109.759C109.649 50.8147 109.567 50.7764 109.512 50.687L104.088 42.2269L104.129 50.6232C104.129 50.7508 104.06 50.8147 103.923 50.8147H103.334C103.197 50.8147 103.129 50.7508 103.129 50.6232L103.17 41.5889C103.17 41.4613 103.238 41.3975 103.375 41.3975H104.43C104.54 41.3975 104.622 41.4357 104.677 41.5251L109.978 49.7683L110.006 41.5889C110.006 41.4613 110.074 41.3975 110.211 41.3975H110.732C110.869 41.3975 110.937 41.4613 110.937 41.5889L110.978 50.6232Z" fill="white"/>
<path d="M110.773 50.9804H109.759C109.527 50.9804 109.417 50.8656 109.348 50.7635L104.253 42.8265L104.294 50.6231C104.294 50.84 104.143 50.9804 103.91 50.9804H103.321C103.088 50.9804 102.938 50.84 102.938 50.6231L102.979 41.5887C102.979 41.3718 103.129 41.2314 103.362 41.2314H104.417C104.65 41.2314 104.759 41.3463 104.828 41.4484L109.801 49.1812L109.828 41.6015C109.828 41.3846 109.979 41.2442 110.211 41.2442H110.732C110.965 41.2442 111.116 41.3846 111.116 41.6015L111.157 50.6359C111.157 50.8528 111.006 50.9932 110.773 50.9932V50.9804ZM103.896 41.627L109.664 50.6104C109.664 50.6104 109.705 50.6614 109.759 50.6614H110.773H110.801C110.801 50.6614 110.801 50.6486 110.801 50.6359L110.759 41.6015V41.576C110.759 41.576 110.746 41.576 110.732 41.576H110.211H110.184C110.184 41.576 110.184 41.5887 110.184 41.6015L110.157 50.3679L104.527 41.627C104.527 41.627 104.485 41.576 104.431 41.576H103.376H103.348C103.348 41.576 103.348 41.5887 103.348 41.6015L103.307 50.6359V50.6614C103.307 50.6614 103.307 50.6614 103.335 50.6614H103.924H103.951C103.951 50.6614 103.951 50.6486 103.951 50.6359L103.91 41.6398L103.896 41.627Z" fill="white"/>
<path d="M125.362 42.01C125.362 42.1376 125.294 42.2014 125.157 42.2014H122.047L122.075 50.6232C122.075 50.7508 122.006 50.8147 121.869 50.8147H121.267C121.13 50.8147 121.061 50.7508 121.061 50.6232L121.102 42.2014H117.979C117.842 42.2014 117.773 42.1376 117.773 42.01V41.5889C117.773 41.4613 117.842 41.3975 117.979 41.3975H125.157C125.294 41.3975 125.362 41.4613 125.362 41.5889V42.01Z" fill="white"/>
<path d="M121.868 50.9804H121.265C121.032 50.9804 120.881 50.84 120.881 50.6231L120.923 42.3671H117.977C117.744 42.3671 117.594 42.2268 117.594 42.0098V41.5887C117.594 41.3718 117.744 41.2314 117.977 41.2314H125.155C125.388 41.2314 125.539 41.3718 125.539 41.5887V42.0098C125.539 42.2268 125.388 42.3671 125.155 42.3671H122.224L122.251 50.6231C122.251 50.84 122.101 50.9804 121.868 50.9804ZM121.238 50.6486C121.238 50.6486 121.251 50.6486 121.265 50.6486H121.868H121.895C121.895 50.6486 121.895 50.6359 121.895 50.6231L121.868 42.0354H125.155H125.183C125.183 42.0354 125.183 42.0226 125.183 42.0098V41.5887V41.5632C125.183 41.5632 125.169 41.5632 125.155 41.5632H117.977H117.95C117.95 41.5632 117.95 41.576 117.95 41.5887V42.0098V42.0354C117.95 42.0354 117.95 42.0354 117.977 42.0354H121.279L121.238 50.6231V50.6486Z" fill="white"/>
<path d="M139.182 43.3752C139.237 43.5028 139.169 43.5922 139.018 43.5922H138.497C138.388 43.5922 138.319 43.5539 138.264 43.4518C137.84 42.7627 137.004 42.0609 135.552 42.0609C134.1 42.0609 133.21 42.6734 133.21 43.5922C133.21 44.562 134.073 44.9448 135.744 45.4297L136.347 45.5956C138.511 46.2208 139.456 47.0885 139.456 48.4029C139.456 49.9979 138.086 50.9677 135.922 50.9677C133.374 50.9677 132.196 49.6151 131.867 48.5049C131.826 48.3773 131.895 48.3008 132.045 48.3008H132.593C132.717 48.3008 132.785 48.3518 132.84 48.4539C133.223 49.2961 134.1 50.1638 135.963 50.1638C137.525 50.1638 138.484 49.564 138.484 48.5177C138.484 47.5351 137.648 46.9482 135.854 46.425L135.237 46.2463C133.374 45.6976 132.278 45.0469 132.251 43.7198C132.223 42.1885 133.703 41.2698 135.634 41.2698C137.566 41.2698 138.771 42.3799 139.196 43.4008L139.182 43.3752Z" fill="white"/>
<path d="M135.909 51.1208C133.375 51.1208 132.06 49.781 131.676 48.5305C131.635 48.4156 131.662 48.3135 131.717 48.237C131.758 48.1859 131.854 48.1094 132.032 48.1094H132.58C132.772 48.1094 132.895 48.1859 132.991 48.3518C133.32 49.0919 134.101 49.9724 135.95 49.9724C137.443 49.9724 138.292 49.4364 138.292 48.4922C138.292 47.65 137.566 47.0758 135.786 46.5526L135.169 46.3739C133.58 45.9018 132.101 45.251 132.06 43.6943C132.06 43.0435 132.292 42.4693 132.772 42.0226C133.416 41.4101 134.429 41.0784 135.635 41.0784C137.703 41.0784 138.909 42.2268 139.361 43.3114C139.416 43.4263 139.402 43.5411 139.334 43.6177C139.265 43.707 139.155 43.7581 139.019 43.7581H138.498C138.32 43.7581 138.183 43.6815 138.101 43.5284C137.813 43.0435 137.073 42.2268 135.539 42.2268C134.21 42.2268 133.375 42.75 133.375 43.5922C133.375 44.4344 134.114 44.7917 135.786 45.2765L136.388 45.4424C138.621 46.0932 139.621 46.9992 139.621 48.4029C139.621 50.0872 138.197 51.1336 135.909 51.1336V51.1208ZM132.032 48.4539C132.388 49.6023 133.594 50.8018 135.923 50.8018C137.991 50.8018 139.292 49.8831 139.292 48.4029C139.292 47.1651 138.375 46.3484 136.306 45.7614L135.703 45.5956C134.142 45.1489 133.046 44.7406 133.046 43.6049C133.046 42.5841 134.032 41.9206 135.566 41.9206C137.279 41.9206 138.101 42.8521 138.429 43.4008C138.457 43.4646 138.471 43.4646 138.512 43.4646H139.032C138.621 42.4948 137.525 41.4484 135.649 41.4484C134.566 41.4484 133.608 41.7547 133.046 42.3034C132.635 42.6862 132.429 43.1838 132.443 43.7325C132.471 44.8427 133.265 45.5062 135.306 46.106L135.923 46.2846C137.882 46.8716 138.676 47.5224 138.676 48.5432C138.676 49.6789 137.662 50.3552 135.977 50.3552C133.827 50.3552 132.991 49.2195 132.69 48.5432C132.662 48.4922 132.635 48.4922 132.608 48.4922H132.06L132.032 48.4539Z" fill="white"/>
</g>
</g>
<defs>
<clipPath id="clip0_5120_789">
<rect width="200" height="51.0417" fill="white" transform="translate(0.402344 0.5896)"/>
</clipPath>
</defs>
</svg>
