<svg width="201" height="64" viewBox="0 0 201 64" fill="none" xmlns="http://www.w3.org/2000/svg">
<g clip-path="url(#clip0_5120_960)">
<path d="M87.9031 11.9619C86.7426 13.4416 84.731 13.9107 83.0192 13.1467C80.7029 12.1118 78.1739 11.7347 75.4515 11.7347C72.4437 11.7347 69.4989 12.6728 69.4989 14.9939C69.4989 18.0016 72.4437 18.4368 76.7668 18.8768C85.4757 19.8149 94.5569 23.3256 94.5569 33.4078C94.5569 43.49 85.1613 47.6293 75.3258 47.6921C67.5018 47.755 61.8925 46.401 55.877 40.1486C55.79 40.0567 55.7851 39.9117 55.8673 39.8198L60.0066 35.0761C61.3461 33.5432 63.5946 33.2579 65.3064 34.3604C68.8364 36.638 72.4679 37.107 75.3935 37.107C79.465 37.107 82.2842 35.666 82.2842 33.224C82.2842 31.0335 79.7793 29.6554 74.9534 29.2153C65.3693 28.3401 57.1004 25.8933 57.1004 14.9939C57.1004 5.72404 66.1817 1.71533 75.4515 1.71533C81.9408 1.71533 87.023 3.17568 91.67 6.76369C91.7764 6.84589 91.7958 7.00063 91.7136 7.10702L87.9031 11.9668V11.9619Z" fill="white"/>
<path d="M110.22 2.82767V35.6662C110.22 35.8016 110.326 35.9079 110.461 35.9079H130.96C131.095 35.9079 131.201 36.0143 131.201 36.1497V42.3731C131.201 44.6168 129.383 46.435 127.144 46.435H98.0582C97.9228 46.435 97.8164 46.3238 97.8164 46.1932V6.64295C97.8164 4.39924 99.6346 2.58105 101.878 2.58105H109.978C110.113 2.58105 110.22 2.68744 110.22 2.82283" fill="white"/>
<path d="M134.027 46.1884V6.64295C134.027 4.39924 135.846 2.58105 138.089 2.58105H146.126C146.261 2.58105 146.368 2.69227 146.368 2.82283V42.3683C146.368 44.612 144.55 46.4302 142.306 46.4302H134.269C134.134 46.4302 134.027 46.3238 134.027 46.1884Z" fill="white"/>
<path d="M196.905 33.5385L199.245 35.173C201.078 36.4544 201.533 38.9689 200.261 40.8113L196.097 46.8364C196.02 46.9476 195.87 46.9766 195.759 46.8993L191.716 44.0849C190.416 43.1807 188.723 43.1323 187.35 43.9157C184.748 45.3954 181.779 46.4254 178.433 47.0637C164.342 49.7474 153.012 43.171 150.319 29.0173C147.621 14.8635 155.749 4.64588 169.84 1.95729C183.994 -0.74097 195.246 5.78708 197.945 19.9408C198.859 24.7329 198.365 29.2929 196.823 33.2532C196.784 33.3596 196.818 33.4757 196.91 33.5385M168.829 13.2242C163.834 15.4824 161.223 20.6807 162.374 26.7155C163.805 34.2203 169.555 37.9728 176.446 36.6575C183.486 35.318 187.108 30.0327 185.812 22.5714C184.444 14.6894 176.117 9.93118 168.829 13.2242Z" fill="white"/>
<path d="M57.9766 53.6062H62.1013C64.0356 53.6062 65.1671 54.4282 65.1671 55.9128C65.1671 56.9428 64.6303 57.494 64.1323 57.7116C64.7174 57.9195 65.6265 58.4756 65.6265 60.0279C65.6265 61.6768 64.5675 62.5085 62.5655 62.5085H57.9766V53.6062ZM62.0675 56.9428C62.8025 56.9428 63.2425 56.672 63.2425 56.1546C63.2425 55.6371 62.8218 55.3809 62.0481 55.3809H59.8673V56.9428H62.0675ZM62.5027 60.729C63.2764 60.729 63.7164 60.4002 63.7164 59.7039C63.7261 59.0221 63.2764 58.6642 62.5027 58.6642H59.8673V60.729H62.5027Z" fill="white"/>
<path d="M77.768 58.8867L74.0156 53.6062H76.3367L78.74 57.0636L81.1433 53.6062H83.4644L79.712 58.8867V62.4989H77.768V58.8867Z" fill="white"/>
<path d="M104.066 53.6061L107.093 53.5916C110.29 53.5771 112.292 55.4775 112.292 58.0742C112.292 60.6709 110.29 62.5133 107.093 62.5133H104.066V53.611V53.6061ZM107.089 60.729C109.337 60.7193 110.338 59.7135 110.338 58.0742C110.338 56.435 109.332 55.376 107.089 55.3566L106.01 55.347V60.7338H107.089V60.729Z" fill="white"/>
<path d="M122.234 53.6062H129.26V55.3809H124.178V56.9379L127.747 56.9428V58.6642H124.178V60.729H129.27V62.5085H122.234V53.6062Z" fill="white"/>
<path d="M138.562 61.5801L139.612 60.0617C140.502 60.5791 141.585 60.8692 142.595 60.8692C143.543 60.8692 144.138 60.5259 144.172 59.965C144.206 59.4282 143.867 59.23 142.813 58.9979L141.71 58.7561C139.723 58.3161 138.92 57.4118 138.92 56.0627C138.92 54.583 140.429 53.4853 142.387 53.4805C143.717 53.4805 144.999 53.8818 145.913 54.4379L144.931 55.9515C144.21 55.5259 143.437 55.2455 142.576 55.2406C141.657 55.2406 141.009 55.5501 141.014 56.1207C141.014 56.6236 141.401 56.8654 142.281 57.0588L143.495 57.3248C145.405 57.7406 146.198 58.553 146.198 59.965C146.198 61.5027 144.723 62.6246 142.513 62.6294C141.096 62.6294 139.588 62.2184 138.562 61.5752" fill="white"/>
<path d="M158.037 53.6062H156.078V62.5085H158.037V53.6062Z" fill="white"/>
<path d="M167.98 58.0695C167.98 55.4728 170.055 53.437 172.763 53.437C174.296 53.437 175.63 54.0898 176.491 55.1295L174.992 56.3045C174.475 55.6565 173.667 55.2649 172.758 55.2649C171.191 55.2649 169.924 56.4254 169.924 58.0647C169.924 59.7039 171.191 60.8645 172.758 60.8645C173.677 60.8645 174.494 60.4099 174.915 59.8538V58.0647H176.873V60.4776C175.988 61.7687 174.47 62.6827 172.763 62.6827C170.055 62.6827 167.98 60.6614 167.98 58.0647" fill="white"/>
<path d="M186.891 53.6062H188.825L193.341 59.6265V53.6062H195.285V62.5085H193.37L188.844 56.4979V62.5085H186.891V53.6062Z" fill="white"/>
<mask id="mask0_5120_960" style="mask-type:luminance" maskUnits="userSpaceOnUse" x="2" y="0" width="48" height="64">
<path d="M26.3319 0.569418L12.7246 14.1768L12.5022 14.3992L5.1569 21.7445C0.97895 25.9224 0.97895 32.6971 5.1569 36.875H20.2923L15.7807 41.3866C11.6366 45.5307 11.6366 52.2522 15.7807 56.3963L22.1056 62.7213C22.8261 63.4418 23.9915 63.4418 24.712 62.7213L38.3194 49.1139L38.5418 48.8915L45.8871 41.5462C50.065 37.3683 50.065 30.5888 45.8871 26.4108H30.7517L35.2633 21.8992C39.4074 17.7551 39.4074 11.0336 35.2633 6.88953L28.9383 0.569418C28.5805 0.211584 28.1066 0.027832 27.6327 0.027832C27.1588 0.027832 26.6898 0.206749 26.3271 0.569418" fill="white"/>
</mask>
<g mask="url(#mask0_5120_960)">
<path d="M50.0665 0.027832H0.980469V63.4418H50.0665V0.027832Z" fill="url(#paint0_linear_5120_960)"/>
</g>
<mask id="mask1_5120_960" style="mask-type:luminance" maskUnits="userSpaceOnUse" x="3" y="2" width="44" height="60">
<path d="M6.48771 23.2144C4.83878 24.8634 3.92969 27.0587 3.92969 29.3943C3.92969 31.4688 4.64535 33.4272 5.96064 34.9988H24.9742L17.1115 42.8614C13.7363 46.2367 13.7363 51.7251 17.1115 55.0955L23.3543 61.3334L44.4423 40.2454C46.0912 38.5964 47.0003 36.4011 47.0003 34.0655C47.0003 31.991 46.2846 30.0326 44.9693 28.461H25.9558L33.8185 20.5984C37.1937 17.2231 37.1937 11.7347 33.8185 8.36433L27.5806 2.12158L6.48771 23.2144Z" fill="white"/>
</mask>
<g mask="url(#mask1_5120_960)">
<path d="M47.0003 2.12158H3.92969V61.3334H47.0003V2.12158Z" fill="white"/>
</g>
</g>
<defs>
<linearGradient id="paint0_linear_5120_960" x1="-1.55116" y1="28.0017" x2="45.4459" y2="28.0017" gradientUnits="userSpaceOnUse">
<stop stop-color="white"/>
<stop offset="1" stop-color="white"/>
</linearGradient>
<clipPath id="clip0_5120_960">
<rect width="200" height="63.4139" fill="white" transform="translate(0.980469 0.027832)"/>
</clipPath>
</defs>
</svg>
