<svg width="156" height="71" viewBox="0 0 156 71" fill="none" xmlns="http://www.w3.org/2000/svg">
<g clip-path="url(#clip0_5125_1576)">
<path d="M2.97437 23.1422V14.8225H0V8.92589H3.17046V4.50891L10.0023 2.64941V8.93275H14.699V14.8294H10.0023V22.6595C9.99531 22.8797 10.0345 23.0989 10.1174 23.303C10.2002 23.5071 10.325 23.6916 10.4835 23.8446C10.642 23.9975 10.8308 24.1156 11.0377 24.1911C11.2447 24.2667 11.4651 24.298 11.6849 24.2832H14.7018V30.1798C13.4161 30.3399 12.1221 30.4246 10.8265 30.4335C5.88977 30.4335 2.97711 27.9487 2.97711 23.1532" fill="white"/>
<path d="M19.125 30.1687V8.93126H25.5701V10.4781H25.8238C27.2621 9.13577 29.1622 8.39911 31.1294 8.42113C31.6933 8.41606 32.2564 8.46195 32.812 8.55827V15.3504H29.9885C29.463 15.359 28.9448 15.474 28.465 15.6886C27.9853 15.9032 27.554 16.2128 27.1973 16.5987C26.8406 16.9847 26.5659 17.4389 26.3896 17.934C26.2134 18.4291 26.1395 18.9548 26.1722 19.4794V30.1673L19.125 30.1687Z" fill="white"/>
<path d="M34.982 25.3336C34.982 22.0054 37.2529 19.932 40.6771 18.8349L46.3735 17.0344V16.5257C46.3933 16.2549 46.354 15.9831 46.2582 15.7291C46.1624 15.4752 46.0125 15.245 45.8189 15.0548C45.6253 14.8646 45.3926 14.7188 45.1369 14.6275C44.8813 14.5362 44.6088 14.5017 44.3385 14.5263C43.3018 14.5263 42.4186 15.3683 42.2637 16.8164L35.5703 15.7385C35.8812 13.6246 36.9583 11.6986 38.5968 10.3272C40.2353 8.95571 42.3207 8.23443 44.4564 8.30056C50.7781 8.30056 53.5578 11.5506 53.5578 16.5284V30.1702H47.1373V28.7399H46.8768C46.1205 29.4567 45.2242 30.0095 44.2442 30.3635C43.2641 30.7174 42.2215 30.865 41.1817 30.7969C37.2269 30.7969 34.9766 28.5082 34.9766 25.3363M46.3872 22.4566V21.5364L43.5294 22.3976C42.6093 22.6513 42.1389 23.1409 42.1389 23.8649C42.1389 24.4134 42.5887 24.844 43.5294 24.844C44.2125 24.8533 44.8763 24.6176 45.4005 24.1797C45.9248 23.7417 46.2748 23.1304 46.3872 22.4566Z" fill="white"/>
<path d="M57.0678 19.5603C57.0678 12.978 61.7467 8.30458 67.7352 8.30458C69.5957 8.24811 71.4085 8.89828 72.809 10.1243V0.378418H79.8562V30.1687H73.411V28.7398H73.1573C72.443 29.4366 71.5928 29.9789 70.6597 30.3328C69.7266 30.6867 68.7306 30.8446 67.7338 30.7968C61.7453 30.7968 57.0664 26.1343 57.0664 19.5616M73.0586 19.5616C73.1002 18.9488 73.0154 18.3339 72.8094 17.7552C72.6035 17.1765 72.2808 16.6463 71.8614 16.1975C71.4421 15.7487 70.9349 15.3909 70.3715 15.1462C69.808 14.9016 69.2003 14.7754 68.5861 14.7754C67.9718 14.7754 67.3641 14.9016 66.8007 15.1462C66.2372 15.3909 65.7301 15.7487 65.3107 16.1975C64.8913 16.6463 64.5687 17.1765 64.3627 17.7552C64.1568 18.3339 64.072 18.9488 64.1136 19.5616C64.072 20.1745 64.1568 20.7893 64.3627 21.3681C64.5687 21.9468 64.8913 22.477 65.3107 22.9258C65.7301 23.3746 66.2372 23.7324 66.8007 23.9771C67.3641 24.2217 67.9718 24.3479 68.5861 24.3479C69.2003 24.3479 69.808 24.2217 70.3715 23.9771C70.9349 23.7324 71.4421 23.3746 71.8614 22.9258C72.2808 22.477 72.6035 21.9468 72.8094 21.3681C73.0154 20.7893 73.1002 20.1745 73.0586 19.5616Z" fill="white"/>
<path d="M83.9408 19.5397C83.8864 18.043 84.1424 16.5512 84.6927 15.1583C85.243 13.7654 86.0758 12.5015 87.1385 11.4461C88.2012 10.3908 89.4708 9.56682 90.8675 9.02615C92.2642 8.48549 93.7577 8.23981 95.254 8.30459C101.029 8.30459 105.961 12.1442 105.961 19.5219C105.959 20.2228 105.907 20.9226 105.804 21.6159L91.2416 21.5967C91.4096 22.5836 91.9368 23.4735 92.7216 24.0951C93.5064 24.7166 94.4935 25.0258 95.4927 24.9632C96.3309 25.0316 97.1717 24.8667 97.922 24.4867C98.6723 24.1067 99.3028 23.5265 99.7437 22.8103L105.458 25.2375C103.756 28.722 99.5613 30.7968 95.3788 30.7968C93.8748 30.8638 92.3732 30.6199 90.9677 30.0803C89.5623 29.5408 88.2832 28.7172 87.2104 27.661C86.1376 26.6048 85.2941 25.3387 84.7327 23.9418C84.1713 22.5449 83.9041 21.0473 83.9476 19.5425M98.8729 17.288C98.8074 16.3693 98.3946 15.51 97.7184 14.8847C97.0421 14.2593 96.1531 13.915 95.2321 13.9215C94.27 13.905 93.3344 14.2365 92.5974 14.8551C91.8604 15.4737 91.3716 16.3377 91.221 17.288H98.8729Z" fill="white"/>
<path d="M110.469 30.1687V8.93126H116.914V10.4781H117.168C118.606 9.13589 120.506 8.39925 122.473 8.42113C123.037 8.41598 123.6 8.46187 124.156 8.55826V15.3503H121.332C120.807 15.359 120.289 15.474 119.809 15.6886C119.329 15.9032 118.898 16.2128 118.541 16.5987C118.184 16.9846 117.91 17.4389 117.733 17.934C117.557 18.4291 117.483 18.9548 117.516 19.4794V30.1673L110.469 30.1687Z" fill="white"/>
<path d="M147.348 12.0209L148.679 0.511475H155.999L152.183 12.0209H147.348Z" fill="white"/>
<path d="M127.84 24.0814L134.148 23.5534C134.284 24.0636 134.588 24.513 135.011 24.8292C135.434 25.1454 135.951 25.3099 136.479 25.2963C137.576 25.2963 138.262 24.9234 138.262 24.2775C138.262 23.515 137.793 23.2408 136.383 22.673L132.955 21.3415C129.705 20.0895 128.394 18.0929 128.394 15.0198C128.394 10.9867 131.722 8.34424 136.967 8.34424C142.213 8.34424 144.738 10.9676 145.11 14.5494L138.802 15.0774C138.734 14.6485 138.507 14.261 138.166 13.9924C137.825 13.7239 137.395 13.5942 136.962 13.6293C136.002 13.6293 135.436 13.9625 135.436 14.4904C135.436 15.0184 135.729 15.2927 136.708 15.704L140.094 17.0356C143.522 18.3466 145.305 20.3048 145.305 23.755C145.305 28.1775 142.134 30.7624 136.497 30.7624C131.252 30.7624 128.491 28.2556 127.845 24.0869" fill="white"/>
<path d="M72.8164 69.9668V40.1765H79.843V50.1775C80.4748 49.5118 81.2374 48.9838 82.0829 48.6268C82.9285 48.2697 83.8386 48.0913 84.7564 48.1027C89.8069 48.1027 92.8005 51.7833 92.8005 57.4015V69.9682H85.7753V57.1876C85.7877 56.8268 85.7268 56.4673 85.5963 56.1307C85.4658 55.7941 85.2684 55.4876 85.016 55.2295C84.7636 54.9714 84.4614 54.7673 84.1278 54.6294C83.7942 54.4915 83.4361 54.4227 83.0752 54.4271C82.1588 54.4974 81.3068 54.9249 80.7027 55.6175C80.0987 56.3101 79.7909 57.2123 79.8457 58.1297V69.9723L72.8164 69.9668Z" fill="white"/>
<path d="M97.4207 61.2974V48.7307H104.447V61.525C104.437 61.886 104.501 62.2453 104.634 62.581C104.767 62.9168 104.966 63.2221 105.221 63.4785C105.475 63.7349 105.779 63.937 106.113 64.0727C106.448 64.2083 106.807 64.2746 107.168 64.2676C108.086 64.2048 108.943 63.7842 109.554 63.0962C110.166 62.4081 110.483 61.5077 110.437 60.5884V48.7307H117.464V69.9682H111.042V68.5379H110.768C109.335 69.8764 107.443 70.6128 105.483 70.5948C100.375 70.5948 97.418 66.9335 97.418 61.2974" fill="white"/>
<path d="M129.212 68.5379H128.957V69.9668H122.512V40.1765H129.564V49.9238C130.965 48.6979 132.778 48.0477 134.638 48.104C140.627 48.104 145.306 52.7829 145.306 59.3584C145.306 65.9338 140.627 70.5935 134.638 70.5935C133.642 70.641 132.646 70.4828 131.714 70.129C130.781 69.7751 129.931 69.233 129.217 68.5365M138.26 59.357C138.203 58.4843 137.891 57.6474 137.364 56.9494C136.837 56.2514 136.118 55.7228 135.294 55.4287C134.47 55.1346 133.579 55.0879 132.729 55.2943C131.879 55.5006 131.108 55.9511 130.511 56.5902C129.914 57.2292 129.517 58.029 129.369 58.8909C129.22 59.7529 129.328 60.6393 129.677 61.4411C130.026 62.2429 130.603 62.9249 131.335 63.4033C132.067 63.8817 132.923 64.1354 133.798 64.1333C134.416 64.1516 135.031 64.038 135.601 63.8001C136.172 63.5622 136.686 63.2055 137.108 62.7536C137.53 62.3017 137.851 61.7651 138.05 61.1794C138.249 60.5937 138.32 59.9725 138.26 59.357Z" fill="white"/>
<path d="M67.3627 45.9634H60.2812V69.9832H67.3627V45.9634Z" fill="white"/>
<path d="M55.3744 54.4546H48.293V69.9833H55.3744V54.4546Z" fill="white"/>
</g>
<defs>
<clipPath id="clip0_5125_1576">
<rect width="156" height="70.2151" fill="white" transform="translate(0 0.378418)"/>
</clipPath>
</defs>
</svg>
