<svg width="216" height="55" viewBox="0 0 216 55" fill="none" xmlns="http://www.w3.org/2000/svg">
<g clip-path="url(#clip0_5125_2074)">
<path d="M28.8359 45.7107H42.1997V44.1003H30.4463C29.5573 44.1003 28.8359 44.8217 28.8359 45.7107Z" fill="#F9F9F9"/>
<path d="M44.7574 44.1003H42.207V45.7107H44.7574V44.1003Z" fill="#F9F9F9"/>
<path d="M29.3594 38.2129H42.1985V36.6025H30.9697C30.0808 36.6025 29.3594 37.3239 29.3594 38.2129Z" fill="#F9F9F9"/>
<path d="M44.7574 36.5952H42.207V38.2056H44.7574V36.5952Z" fill="#F9F9F9"/>
<path d="M30.3242 30.7075H42.2015V29.0972H31.9346C31.0456 29.0972 30.3242 29.8185 30.3242 30.7075Z" fill="#F9F9F9"/>
<path d="M44.7574 29.0972H42.207V30.7075H44.7574V29.0972Z" fill="#F9F9F9"/>
<path d="M31.8172 22.1237C31.5548 22.4079 31.3945 22.7868 31.3945 23.2022H42.2079V22.1966H33.5587C32.9684 22.1966 32.3928 22.1675 31.8172 22.1165V22.1237Z" fill="#F9F9F9"/>
<path d="M33.0041 21.592C32.5305 21.592 32.1079 21.7961 31.8164 22.124C32.3921 22.1677 32.9677 22.2041 33.5579 22.2041H42.2072V21.592H33.0114H33.0041Z" fill="#F9F9F9"/>
<path d="M44.1526 22.1968H42.207V23.2024H44.7574V21.592H44.1526V22.1968Z" fill="#F9F9F9"/>
<path d="M44.1599 21.592H42.207V22.2041H44.1599V21.592Z" fill="#F9F9F9"/>
<path d="M34.9714 14.0867C34.1553 14.0867 33.4922 14.7498 33.4922 15.5659V15.697H42.207V14.0867H34.9714Z" fill="#F9F9F9"/>
<path d="M45.0124 14.0867H42.207V15.697H45.0124V14.0867Z" fill="#F9F9F9"/>
<path d="M21.2231 29.8696C20.5309 18.9032 11.4225 10.2175 0.28125 10.2175V36.9158C0.28125 44.8291 6.69351 51.2414 14.6068 51.2414H21.2668V51.1248C21.2377 50.9353 21.2231 50.7459 21.2231 50.5492V29.8696Z" fill="#F9F9F9"/>
<path d="M29.7791 1.21875H12.2109C12.2109 8.33052 15.7523 14.6189 21.1735 18.4153C22.1864 12.2289 25.6111 6.85133 30.4494 3.27359C31.3311 2.61779 30.8793 1.21875 29.7791 1.21875Z" fill="#F9F9F9"/>
<path d="M44.7954 1.21118C44.3291 1.21118 43.8627 1.23304 43.4037 1.26219C33.2534 1.93256 25.0486 9.83129 23.9119 19.8577C23.8244 20.6374 23.7734 21.4316 23.7734 22.2405V50.5564C23.7734 51.3361 24.4074 51.97 25.187 51.97H44.7954C45.5751 51.97 46.209 51.3361 46.209 50.5564V2.62479C46.209 1.84512 45.5751 1.21118 44.7954 1.21118ZM25.2235 22.2405C25.2235 21.6648 25.2526 21.0892 25.3036 20.5208C26.1562 10.7276 34.2516 2.98184 44.1542 2.64665C44.3509 2.64665 44.555 2.63208 44.7517 2.63208V50.52L25.2235 50.5637V22.2332V22.2405Z" fill="#F9F9F9"/>
<path d="M52.2852 0.927002V5.6779H55.229V26.7655C55.3966 26.423 55.5933 26.1024 55.8046 25.8182C56.73 24.5722 58.1873 23.8945 60.1839 23.7925V5.6779H63.1277V0.927002H52.2924H52.2852Z" fill="#F9F9F9"/>
<path d="M74.5539 6.13707C73.4391 4.94935 71.887 4.35913 69.9123 4.35913C67.9376 4.35913 66.3929 4.94935 65.278 6.13707C64.1632 7.3248 63.6094 8.91329 63.6094 10.9025V19.3696C63.6094 23.7343 65.7079 25.9131 69.9123 25.9131C74.1167 25.9131 76.2226 23.7343 76.2226 19.3696V10.9025C76.2226 8.91329 75.6688 7.3248 74.5539 6.13707ZM71.0928 20.4116C71.0928 20.878 70.998 21.2642 70.8159 21.5702C70.6337 21.869 70.335 22.0293 69.9123 22.0293C69.4897 22.0293 69.1837 21.8762 69.0015 21.5702C68.8193 21.2642 68.7246 20.878 68.7246 20.4116V10.101C68.7246 8.86957 69.1181 8.25749 69.9123 8.25749C70.7066 8.25749 71.0928 8.87686 71.0928 10.101V20.4116Z" fill="#F9F9F9"/>
<path d="M89.7586 5.86018C89.1976 4.85462 88.2212 4.35913 86.844 4.35913C85.8166 4.35913 85.0296 4.57773 84.4831 5.01493C83.9366 5.45213 83.5067 6.06421 83.2006 6.83659V4.58502H78.0781V29.1993H83.2006V23.4283C83.8054 25.0824 84.7964 25.9058 86.159 25.9058C87.2083 25.9058 88.0608 25.6507 88.7166 25.1552C89.3724 24.6525 89.8461 23.9675 90.1521 23.1004C90.4509 22.2406 90.6112 21.2642 90.6112 20.1785V9.79497C90.6112 8.17005 90.327 6.85845 89.7513 5.86018H89.7586ZM85.5032 19.253C85.5032 20.0254 85.4449 20.6739 85.3429 21.1986C85.2409 21.7232 84.9203 21.9855 84.3957 21.9855C83.871 21.9855 83.5213 21.7159 83.3901 21.1913C83.2662 20.6594 83.2006 20.0109 83.2006 19.253V11.0118C83.2006 10.254 83.2662 9.60552 83.3901 9.0736C83.514 8.54896 83.8492 8.27935 84.3957 8.27935C84.9422 8.27935 85.2409 8.54167 85.3429 9.05902C85.4449 9.57637 85.5032 10.2322 85.5032 11.0118V19.253Z" fill="#F9F9F9"/>
<path d="M104.573 12.7678C105.513 12.4618 106.162 11.908 106.504 11.0992C106.847 10.2904 107.014 9.21196 107.014 7.86393C107.014 6.5159 106.912 5.24802 106.686 4.21332C106.468 3.17133 106.031 2.3698 105.389 1.79415C104.741 1.21851 103.779 0.934326 102.518 0.934326H94.9258V25.6871H99.9317V14.3928C100.595 14.3928 101.068 14.4802 101.367 14.6551C101.666 14.83 101.812 15.2745 101.812 15.9958V25.6871H106.686V16.3165C106.686 15.34 106.533 14.5458 106.213 13.9337C105.899 13.3143 105.353 12.9282 104.581 12.7678H104.573ZM101.156 10.1009H99.9536V5.51034H101.105C101.52 5.51034 101.797 5.66336 101.957 5.96212C102.103 6.26087 102.183 6.89481 102.183 7.86393C102.183 9.35041 101.841 10.1009 101.156 10.1009Z" fill="#F9F9F9"/>
<path d="M120.742 15.5951C120.786 14.9539 120.8 13.7152 120.8 11.8571V10.3269C120.8 6.34839 118.782 4.35913 114.731 4.35913C112.756 4.35913 111.211 4.86191 110.082 5.86747C108.96 6.88031 108.398 8.3595 108.398 10.3269V18.8086C108.398 20.3023 108.588 21.5775 108.974 22.6341C109.36 23.6906 109.994 24.5067 110.883 25.0678C111.772 25.6289 112.974 25.9131 114.468 25.9131C116.071 25.9131 117.325 25.6434 118.25 25.1042C119.168 24.565 119.831 23.7635 120.217 22.6996C120.611 21.6431 120.8 20.3169 120.8 18.743V17.548H115.794V19.5664C115.794 20.3023 115.729 20.8925 115.598 21.3516C115.466 21.8107 115.131 22.0293 114.614 22.0293C114.242 22.0293 113.98 21.9127 113.812 21.6795C113.652 21.4463 113.543 21.1476 113.499 20.7905C113.455 20.4262 113.426 20.0619 113.426 19.683V15.6024H120.742V15.5951ZM113.397 13.0885V10.254C113.397 9.45979 113.506 8.91329 113.725 8.59268C113.951 8.27935 114.257 8.11904 114.665 8.11904C115.037 8.11904 115.321 8.28664 115.51 8.61454C115.692 8.94244 115.794 9.48893 115.794 10.254V13.0885H113.404H113.397Z" fill="#F9F9F9"/>
<path d="M133.828 6.72729C133.311 5.94762 132.597 5.3574 131.708 4.95664C130.826 4.55587 129.813 4.35913 128.691 4.35913C126.542 4.35913 124.968 4.79633 123.984 5.67073C123 6.54513 122.505 8.03889 122.505 10.1447V10.5455C122.505 10.6548 122.505 10.7568 122.519 10.8297H127.409V9.5618C127.409 8.64368 127.744 8.18462 128.429 8.18462C129.165 8.18462 129.536 8.75298 129.536 9.88241V12.0538L126.41 13.1177C125.332 13.4893 124.487 13.9338 123.867 14.4584C123.255 14.9831 122.818 15.6607 122.57 16.4695C122.315 17.2929 122.191 18.3422 122.191 19.6247C122.191 20.827 122.301 21.8981 122.527 22.8454C122.752 23.7926 123.175 24.5359 123.78 25.0824C124.399 25.6216 125.288 25.8985 126.461 25.8985C127.183 25.8985 127.824 25.6653 128.392 25.199C128.953 24.7253 129.354 24.055 129.602 23.1733V25.6799H134.608V9.60552C134.608 8.46152 134.346 7.49968 133.828 6.72729ZM129.522 20.3606C129.522 20.7614 129.442 21.133 129.296 21.4828C129.143 21.8252 128.859 22.0001 128.451 22.0001C127.7 22.0001 127.321 21.3735 127.321 20.1274V17.4168C127.321 16.5861 127.518 15.9668 127.897 15.5369C128.283 15.1069 128.822 14.7572 129.522 14.4803V20.3606Z" fill="#F9F9F9"/>
<path d="M136.555 0.927002V25.6798H141.67V0.927002H136.555Z" fill="#F9F9F9"/>
<path d="M151.129 20.8633V15.1943H155.8V10.5381H151.129V5.70705H155.997V0.927002H146.102V25.6798H156.317V20.856H151.129V20.8633Z" fill="#F9F9F9"/>
<path d="M168.996 15.9449C168.333 14.9831 167.517 14.1451 166.541 13.4456L163.422 11.1649C162.817 10.7277 162.519 10.1374 162.519 9.37235C162.519 8.60725 162.876 8.2502 163.59 8.2502C164.012 8.2502 164.289 8.44694 164.442 8.84042C164.588 9.2339 164.661 9.64195 164.661 10.0719V10.8734H169.864V10.4799C169.864 6.39211 167.823 4.35913 163.736 4.35913C162.628 4.35913 161.593 4.54858 160.646 4.93478C159.691 5.32097 158.926 5.9039 158.351 6.69815C157.775 7.48511 157.491 8.48338 157.491 9.68567C157.491 10.99 157.709 12.0101 158.154 12.7388C158.598 13.4747 159.232 14.167 160.085 14.8228L162.766 16.8922C163.32 17.3148 163.794 17.752 164.18 18.2038C164.566 18.6555 164.756 19.3478 164.756 20.2659C164.756 21.3589 164.391 21.9054 163.663 21.9054C163.247 21.9054 162.949 21.7742 162.759 21.4973C162.577 21.2204 162.475 20.8488 162.475 20.3752V17.8977H157.418V19.5664C157.418 23.7926 159.495 25.8985 163.663 25.8985C165.63 25.8985 167.182 25.3811 168.312 24.3391C169.441 23.2899 170.009 21.7815 170.009 19.7923C170.009 18.1892 169.674 16.9067 169.011 15.9376L168.996 15.9449Z" fill="#F9F9F9"/>
<path d="M178.723 9.23379V5.39372H177.302V0.927002H172.405V5.40101H170.984V9.24107H172.405V22.3935C172.405 23.5885 172.646 24.4702 173.119 25.0458C173.593 25.6215 174.511 25.9056 175.866 25.9056C176.479 25.9056 177.083 25.8474 177.674 25.7453C178.264 25.6433 178.613 25.5632 178.723 25.5267V22.0947C178.548 22.1312 178.344 22.153 178.118 22.153C177.797 22.153 177.586 22.0802 177.469 21.9417C177.36 21.8033 177.302 21.5555 177.302 21.213V9.23379H178.723Z" fill="#F9F9F9"/>
<path d="M191.535 6.72729C191.017 5.94762 190.303 5.3574 189.414 4.95664C188.525 4.55587 187.52 4.35913 186.39 4.35913C184.241 4.35913 182.674 4.79633 181.69 5.67073C180.699 6.54513 180.204 8.03889 180.204 10.1447V10.5455C180.204 10.6548 180.204 10.7568 180.219 10.8297H185.115V9.5618C185.115 8.64368 185.45 8.18462 186.128 8.18462C186.871 8.18462 187.243 8.75298 187.243 9.88241V12.0538L184.117 13.1177C183.038 13.4893 182.193 13.9338 181.574 14.4584C180.954 14.9831 180.525 15.6607 180.277 16.4695C180.022 17.2929 179.891 18.3422 179.891 19.6247C179.891 20.827 180.007 21.8981 180.233 22.8454C180.459 23.7926 180.874 24.5359 181.486 25.0824C182.098 25.6216 182.995 25.8985 184.168 25.8985C184.889 25.8985 185.53 25.6653 186.092 25.199C186.653 24.7253 187.061 24.055 187.308 23.1733V25.6799H192.314V9.60552C192.314 8.46152 192.052 7.49968 191.535 6.72729ZM187.228 20.3606C187.228 20.7614 187.148 21.133 186.995 21.4828C186.849 21.8252 186.565 22.0001 186.15 22.0001C185.399 22.0001 185.028 21.3735 185.028 20.1274V17.4168C185.028 16.5861 185.217 15.9668 185.603 15.5369C185.99 15.1069 186.529 14.7572 187.228 14.4803V20.3606Z" fill="#F9F9F9"/>
<path d="M201.442 9.23379V5.39372H200.021V0.927002H195.124V5.40101H193.703V9.24107H195.124V22.3935C195.124 23.5885 195.364 24.4702 195.831 25.0458C196.304 25.6215 197.223 25.9056 198.585 25.9056C199.197 25.9056 199.795 25.8474 200.385 25.7453C200.982 25.6433 201.332 25.5632 201.442 25.5267V22.0947C201.259 22.1312 201.063 22.153 200.837 22.153C200.516 22.153 200.305 22.0802 200.188 21.9417C200.072 21.8033 200.021 21.5555 200.021 21.213V9.23379H201.442Z" fill="#F9F9F9"/>
<path d="M215.23 15.5951C215.266 14.9539 215.288 13.7152 215.288 11.8571V10.3269C215.288 6.34839 213.262 4.35913 209.211 4.35913C207.236 4.35913 205.692 4.86191 204.569 5.86747C203.44 6.88031 202.879 8.3595 202.879 10.3269V18.8086C202.879 20.3023 203.076 21.5775 203.455 22.6341C203.841 23.6906 204.482 24.5067 205.371 25.0678C206.26 25.6289 207.455 25.9131 208.956 25.9131C210.552 25.9131 211.812 25.6434 212.73 25.1042C213.656 24.565 214.312 23.7635 214.705 22.6996C215.091 21.6431 215.288 20.3169 215.288 18.743V17.548H210.275V19.5664C210.275 20.3023 210.209 20.8925 210.078 21.3516C209.954 21.8107 209.619 22.0293 209.094 22.0293C208.73 22.0293 208.46 21.9127 208.3 21.6795C208.133 21.4463 208.023 21.1476 207.987 20.7905C207.936 20.4262 207.914 20.0619 207.914 19.683V15.6024H215.23V15.5951ZM207.885 13.0885V10.254C207.885 9.45979 207.987 8.91329 208.213 8.59268C208.431 8.27935 208.745 8.11904 209.145 8.11904C209.517 8.11904 209.808 8.28664 209.991 8.61454C210.18 8.94244 210.275 9.48893 210.275 10.254V13.0885H207.885Z" fill="#F9F9F9"/>
<path d="M61.1006 51.4599C59.3081 51.4599 57.8653 50.8988 56.7723 49.7839C55.6793 48.6691 55.1328 47.1097 55.1328 45.0986V33.6804C55.1328 31.2831 55.6064 29.4396 56.561 28.1644C57.5155 26.8893 59.0603 26.248 61.2099 26.248C62.383 26.248 63.425 26.4666 64.3431 26.8966C65.254 27.3265 65.9754 27.975 66.5 28.8275C67.0246 29.6873 67.287 30.7658 67.287 32.0701V36.3473H62.3612V32.6894C62.3612 31.9462 62.2664 31.4507 62.077 31.1884C61.8875 30.9334 61.5961 30.8022 61.2026 30.8022C60.7435 30.8022 60.4302 30.9698 60.2772 31.305C60.1242 31.6402 60.0367 32.0774 60.0367 32.6312V45.0258C60.0367 45.7107 60.1387 46.1916 60.3355 46.4758C60.5322 46.76 60.8237 46.8984 61.2026 46.8984C61.6252 46.8984 61.924 46.7235 62.0989 46.3811C62.2737 46.0313 62.3612 45.5868 62.3612 45.033V40.5736H67.338V45.2589C67.338 47.4376 66.7915 49.0115 65.6912 49.9952C64.5909 50.9717 63.0607 51.4672 61.0933 51.4672L61.1006 51.4599Z" fill="#F9F9F9"/>
<path d="M75.0412 51.46C70.8368 51.46 68.7383 49.2813 68.7383 44.9165V36.4495C68.7383 34.4602 69.2994 32.8717 70.4142 31.6913C71.5291 30.5108 73.0738 29.9133 75.0412 29.9133C77.0086 29.9133 78.568 30.5036 79.6828 31.6913C80.7977 32.879 81.3588 34.4675 81.3588 36.4495V44.9165C81.3588 49.274 79.2529 51.46 75.0412 51.46ZM75.0412 47.5762C75.4639 47.5762 75.7699 47.4232 75.9521 47.1171C76.1342 46.8111 76.229 46.4249 76.229 45.9585V35.6479C76.229 34.4165 75.8355 33.8044 75.0485 33.8044C74.2616 33.8044 73.8681 34.4165 73.8681 35.6479V45.9585C73.8681 46.4249 73.9628 46.8111 74.145 47.1171C74.3271 47.4232 74.6332 47.5762 75.0485 47.5762H75.0412Z" fill="#F9F9F9"/>
<path d="M83.2099 51.234V30.1319H88.1357V32.5802C88.3615 31.7204 88.7477 31.0573 89.287 30.5982C89.8335 30.1392 90.6277 29.906 91.677 29.906C92.5222 29.906 93.2436 30.1027 93.8338 30.4889C94.4313 30.8751 94.8467 31.3925 95.0944 32.0264C95.4806 31.3342 95.9324 30.8023 96.4497 30.4452C96.9671 30.0809 97.7103 29.906 98.6794 29.906C99.8526 29.906 100.756 30.1538 101.39 30.6565C102.024 31.1593 102.461 31.8515 102.709 32.7405C102.957 33.6295 103.081 34.6496 103.081 35.8155V51.234H98.0601V35.7353C98.0601 34.3727 97.7103 33.6951 97.0181 33.6951C96.6538 33.6951 96.3696 33.8189 96.1728 34.0667C95.9761 34.3144 95.8376 34.6205 95.7648 34.9848C95.6919 35.3491 95.6482 35.7135 95.6482 36.0851V51.234H90.6277V35.7353C90.6277 35.2981 90.5767 34.8536 90.4674 34.4164C90.3581 33.9792 90.0885 33.7534 89.644 33.7534C89.2651 33.7534 88.9809 33.8918 88.7696 34.1614C88.5656 34.431 88.4198 34.7662 88.347 35.167C88.2741 35.5677 88.2304 35.9539 88.2304 36.3401V51.234H83.1953H83.2099Z" fill="#F9F9F9"/>
<path d="M105.055 54.7535V30.1392H110.177V32.3908C110.491 31.6111 110.913 31.0063 111.467 30.5691C112.013 30.1319 112.8 29.9133 113.821 29.9133C115.198 29.9133 116.174 30.4161 116.742 31.4217C117.311 32.4272 117.595 33.7388 117.595 35.3637V45.7472C117.595 46.8257 117.442 47.8021 117.136 48.6692C116.83 49.5363 116.356 50.2212 115.7 50.724C115.045 51.2268 114.199 51.4745 113.15 51.4745C111.78 51.4745 110.789 50.6511 110.184 48.9971V54.7608H105.062L105.055 54.7535ZM111.372 47.5397C111.897 47.5397 112.217 47.2774 112.319 46.7528C112.429 46.2281 112.48 45.5796 112.48 44.8145V36.5733C112.48 35.7937 112.421 35.1451 112.319 34.6278C112.21 34.1104 111.897 33.8481 111.372 33.8481C110.848 33.8481 110.491 34.1104 110.367 34.6424C110.243 35.1743 110.177 35.8155 110.177 36.5733V44.8145C110.177 45.5724 110.243 46.2209 110.367 46.7455C110.491 47.2701 110.826 47.5397 111.372 47.5397Z" fill="#F9F9F9"/>
<path d="M123.344 51.46C122.171 51.46 121.274 51.1904 120.662 50.6439C120.05 50.0974 119.627 49.3541 119.402 48.4069C119.176 47.4596 119.066 46.3885 119.066 45.1862C119.066 43.9037 119.19 42.8471 119.445 42.031C119.7 41.2076 120.13 40.5373 120.75 40.0126C121.362 39.488 122.207 39.0435 123.285 38.6792L126.411 37.608V35.4439C126.411 34.3072 126.04 33.7388 125.304 33.7388C124.626 33.7388 124.291 34.1979 124.291 35.116V36.3839H119.394C119.387 36.311 119.38 36.2163 119.38 36.0924V35.6916C119.38 33.5931 119.875 32.0993 120.866 31.2249C121.857 30.3505 123.424 29.9133 125.573 29.9133C126.696 29.9133 127.708 30.1101 128.597 30.5108C129.486 30.9116 130.193 31.4945 130.71 32.2742C131.228 33.0539 131.49 34.0157 131.49 35.1597V51.2414H126.484V48.7348C126.244 49.6164 125.836 50.2941 125.275 50.7604C124.714 51.2268 124.072 51.4673 123.351 51.4673L123.344 51.46ZM125.326 47.547C125.741 47.547 126.018 47.3722 126.171 47.0297C126.324 46.6799 126.397 46.3083 126.397 45.9075V40.0272C125.705 40.3114 125.165 40.6611 124.779 41.0911C124.393 41.521 124.203 42.1403 124.203 42.971V45.6889C124.203 46.935 124.582 47.5616 125.326 47.5616V47.547Z" fill="#F9F9F9"/>
<path d="M133.429 51.234V30.1319H138.464V32.8207C138.654 32.0118 139.003 31.3269 139.514 30.7585C140.024 30.1902 140.738 29.906 141.641 29.906C143.106 29.906 144.162 30.3578 144.825 31.254C145.489 32.1503 145.816 33.389 145.816 34.9557V51.234H140.854V35.4803C140.854 35.065 140.767 34.686 140.599 34.3363C140.432 33.9865 140.14 33.8117 139.725 33.8117C139.339 33.8117 139.054 33.9428 138.872 34.2124C138.69 34.482 138.574 34.8099 138.53 35.2107C138.479 35.6115 138.457 36.0049 138.457 36.3984V51.2413H133.422L133.429 51.234Z" fill="#F9F9F9"/>
<path d="M147.762 34.7006V29.6145H152.797V34.7006H147.762ZM147.762 51.234V35.9976H152.797V51.234H147.762Z" fill="#F9F9F9"/>
<path d="M160.702 51.4599C159.201 51.4599 158.006 51.1757 157.117 50.6147C156.228 50.0536 155.587 49.2375 155.201 48.1809C154.814 47.1244 154.625 45.8492 154.625 44.3554V35.8738C154.625 33.9137 155.186 32.4272 156.315 31.4216C157.438 30.4161 158.99 29.906 160.957 29.906C165.008 29.906 167.034 31.8953 167.034 35.8738V37.404C167.034 39.2621 167.012 40.5081 166.976 41.1493H159.66V45.2298C159.66 45.6015 159.682 45.9731 159.733 46.3374C159.777 46.7017 159.886 46.9932 160.046 47.2337C160.214 47.4668 160.476 47.5834 160.841 47.5834C161.365 47.5834 161.693 47.3575 161.824 46.8985C161.955 46.4394 162.021 45.8492 162.021 45.1205V43.0948H167.027V44.2899C167.027 45.8638 166.83 47.1827 166.444 48.2465C166.058 49.3104 165.395 50.1119 164.477 50.6511C163.551 51.1903 162.291 51.4599 160.702 51.4599ZM159.631 38.6427H162.021V35.8009C162.021 35.0431 161.926 34.4966 161.737 34.1614C161.547 33.8262 161.27 33.6586 160.892 33.6586C160.491 33.6586 160.177 33.8189 159.959 34.1396C159.74 34.4602 159.631 35.0139 159.631 35.8009V38.6427Z" fill="#F9F9F9"/>
<path d="M174.643 51.4599C170.482 51.4599 168.398 49.3468 168.398 45.1278V43.4519H173.463V45.9294C173.463 46.4103 173.557 46.7819 173.747 47.0515C173.936 47.3211 174.235 47.4596 174.643 47.4596C175.372 47.4596 175.743 46.9131 175.743 45.8128C175.743 44.8947 175.554 44.2097 175.168 43.7506C174.782 43.2989 174.315 42.8544 173.761 42.4391L171.073 40.3696C170.227 39.7138 169.586 39.0216 169.142 38.2857C168.704 37.557 168.479 36.5369 168.479 35.2326C168.479 34.023 168.77 33.0247 169.346 32.2377C169.921 31.4508 170.686 30.8606 171.641 30.4817C172.596 30.0955 173.623 29.906 174.731 29.906C178.818 29.906 180.866 31.9463 180.866 36.0268V36.4203H175.663V35.6187C175.663 35.1961 175.59 34.7881 175.445 34.3946C175.299 34.0011 175.015 33.8044 174.592 33.8044C173.878 33.8044 173.521 34.1833 173.521 34.9265C173.521 35.6697 173.82 36.2818 174.425 36.7117L177.55 38.9925C178.527 39.6993 179.343 40.5299 180.006 41.4991C180.669 42.4682 180.997 43.7506 180.997 45.3537C180.997 47.343 180.429 48.8586 179.299 49.9006C178.17 50.9426 176.618 51.4599 174.65 51.4599H174.643Z" fill="#F9F9F9"/>
<path d="M182.301 51.2194V46.2354H187.336V51.2194H182.301Z" fill="#F9F9F9"/>
<path d="M192.961 51.46C191.788 51.46 190.899 51.1904 190.279 50.6439C189.667 50.0974 189.245 49.3541 189.019 48.4069C188.793 47.4596 188.684 46.3885 188.684 45.1862C188.684 43.9037 188.807 42.8471 189.062 42.031C189.318 41.2076 189.747 40.5373 190.367 40.0126C190.979 39.488 191.831 39.0435 192.903 38.6792L196.029 37.608V35.4439C196.029 34.3072 195.657 33.7388 194.921 33.7388C194.243 33.7388 193.908 34.1979 193.908 35.116V36.3839H189.012C189.004 36.311 188.997 36.2163 188.997 36.0924V35.6916C188.997 33.5931 189.492 32.0993 190.483 31.2249C191.474 30.3505 193.041 29.9133 195.191 29.9133C196.313 29.9133 197.326 30.1101 198.215 30.5108C199.104 30.9116 199.81 31.4945 200.328 32.2742C200.845 33.0539 201.107 34.0157 201.107 35.1597V51.2414H196.101V48.7348C195.861 49.6164 195.453 50.2941 194.892 50.7604C194.331 51.2268 193.69 51.4673 192.961 51.4673V51.46ZM194.943 47.547C195.358 47.547 195.635 47.3722 195.788 47.0297C195.941 46.6799 196.014 46.3083 196.014 45.9075V40.0272C195.322 40.3114 194.783 40.6611 194.396 41.0911C194.01 41.521 193.821 42.1403 193.821 42.971V45.6889C193.821 46.935 194.2 47.5616 194.943 47.5616V47.547Z" fill="#F9F9F9"/>
<path d="M208.953 51.4599C207.452 51.4599 206.257 51.1757 205.368 50.6147C204.479 50.0536 203.837 49.2375 203.458 48.1809C203.072 47.1244 202.883 45.8492 202.883 44.3554V35.8738C202.883 33.9137 203.444 32.4272 204.573 31.4216C205.695 30.4161 207.248 29.906 209.215 29.906C213.266 29.906 215.292 31.8953 215.292 35.8738V37.404C215.292 39.2621 215.277 40.5081 215.234 41.1493H207.918V45.2298C207.918 45.6015 207.94 45.9731 207.991 46.3374C208.034 46.7017 208.144 46.9932 208.304 47.2337C208.464 47.4668 208.734 47.5834 209.098 47.5834C209.623 47.5834 209.951 47.3575 210.082 46.8985C210.213 46.4467 210.279 45.8492 210.279 45.1205V43.0948H215.285V44.2899C215.285 45.8638 215.088 47.1827 214.702 48.2465C214.316 49.3104 213.653 50.1119 212.734 50.6511C211.809 51.1903 210.548 51.4599 208.96 51.4599H208.953ZM207.881 38.6427H210.271V35.8009C210.271 35.0431 210.177 34.4966 209.987 34.1614C209.798 33.8262 209.521 33.6586 209.142 33.6586C208.741 33.6586 208.428 33.8189 208.209 34.1396C207.991 34.4602 207.881 35.0139 207.881 35.8009V38.6427Z" fill="#F9F9F9"/>
</g>
<defs>
<clipPath id="clip0_5125_2074">
<rect width="215" height="53.8265" fill="white" transform="translate(0.28125 0.927002)"/>
</clipPath>
</defs>
</svg>
